<svg width="1440" height="723" viewBox="0 0 1440 723" fill="none" xmlns="http://www.w3.org/2000/svg">
<g filter="url(#filter0_bd_402_292)">
<rect x="426.882" y="1" width="96" height="96" rx="30" transform="rotate(45 426.882 1)" fill="url(#paint0_linear_402_292)" shape-rendering="crispEdges"/>
<rect x="426.882" y="1.70711" width="95" height="95" rx="29.5" transform="rotate(45 426.882 1.70711)" stroke="url(#paint1_linear_402_292)" shape-rendering="crispEdges"/>
</g>
<g filter="url(#filter1_bd_402_292)">
<mask id="path-3-inside-1_402_292" fill="white">
<path d="M1231.79 65.2136C1243.5 53.4978 1262.5 53.4978 1274.21 65.2136L1325.12 116.125C1336.84 127.841 1336.84 146.836 1325.12 158.552L1274.21 209.463C1262.5 221.179 1243.5 221.179 1231.79 209.463L1180.87 158.552C1169.16 146.836 1169.16 127.841 1180.87 116.125L1231.79 65.2136Z"/>
</mask>
<path d="M1231.79 65.2136C1243.5 53.4978 1262.5 53.4978 1274.21 65.2136L1325.12 116.125C1336.84 127.841 1336.84 146.836 1325.12 158.552L1274.21 209.463C1262.5 221.179 1243.5 221.179 1231.79 209.463L1180.87 158.552C1169.16 146.836 1169.16 127.841 1180.87 116.125L1231.79 65.2136Z" fill="url(#paint2_linear_402_292)" shape-rendering="crispEdges"/>
<path d="M1231.79 209.463L1231.08 210.17L1231.79 209.463ZM1231.79 65.2136L1231.08 64.5064L1231.79 65.2136ZM1273.51 65.9207L1324.42 116.832L1325.83 115.418L1274.92 64.5064L1273.51 65.9207ZM1324.42 157.845L1273.51 208.756L1274.92 210.17L1325.83 159.259L1324.42 157.845ZM1232.49 208.756L1181.58 157.845L1180.17 159.259L1231.08 210.17L1232.49 208.756ZM1181.58 116.832L1232.49 65.9207L1231.08 64.5064L1180.17 115.418L1181.58 116.832ZM1181.58 157.845C1170.26 146.519 1170.26 128.158 1181.58 116.832L1180.17 115.418C1168.06 127.524 1168.06 147.153 1180.17 159.259L1181.58 157.845ZM1273.51 208.756C1262.18 220.081 1243.82 220.081 1232.49 208.756L1231.08 210.17C1243.19 222.277 1262.81 222.277 1274.92 210.17L1273.51 208.756ZM1324.42 116.832C1335.74 128.158 1335.74 146.519 1324.42 157.845L1325.83 159.259C1337.94 147.153 1337.94 127.524 1325.83 115.418L1324.42 116.832ZM1274.92 64.5064C1262.81 52.4002 1243.19 52.4002 1231.08 64.5064L1232.49 65.9207C1243.82 54.5955 1262.18 54.5955 1273.51 65.9207L1274.92 64.5064Z" fill="url(#paint3_linear_402_292)" mask="url(#path-3-inside-1_402_292)"/>
</g>
<g filter="url(#filter2_bd_402_292)">
<mask id="path-5-inside-2_402_292" fill="white">
<path fill-rule="evenodd" clip-rule="evenodd" d="M1090.25 405.071L1021.54 473.787C1009.82 485.502 1009.82 504.497 1021.54 516.213L1165.79 660.463C1177.5 672.178 1196.5 672.178 1208.21 660.463L1352.46 516.213C1364.18 504.497 1364.18 485.502 1352.46 473.787L1208.21 329.537C1196.87 318.199 1178.72 317.833 1166.94 328.44L1174.78 330.542L1189.87 386.833L1169.26 407.436L1148.66 428.042L1120.51 420.499L1092.37 412.959L1090.25 405.071Z"/>
</mask>
<path fill-rule="evenodd" clip-rule="evenodd" d="M1090.25 405.071L1021.54 473.787C1009.82 485.502 1009.82 504.497 1021.54 516.213L1165.79 660.463C1177.5 672.178 1196.5 672.178 1208.21 660.463L1352.46 516.213C1364.18 504.497 1364.18 485.502 1352.46 473.787L1208.21 329.537C1196.87 318.199 1178.72 317.833 1166.94 328.44L1174.78 330.542L1189.87 386.833L1169.26 407.436L1148.66 428.042L1120.51 420.499L1092.37 412.959L1090.25 405.071Z" fill="url(#paint4_linear_402_292)" shape-rendering="crispEdges"/>
<path d="M1021.54 473.787L1020.83 473.079L1021.54 473.787ZM1090.25 405.071L1091.22 404.812L1090.77 403.139L1089.55 404.364L1090.25 405.071ZM1021.54 516.213L1020.83 516.92L1020.83 516.92L1021.54 516.213ZM1208.21 660.463L1208.92 661.17L1208.92 661.17L1208.21 660.463ZM1352.46 516.213L1351.76 515.506L1351.76 515.506L1352.46 516.213ZM1352.46 473.787L1353.17 473.079L1352.46 473.787ZM1208.21 329.537L1208.92 328.83L1208.92 328.83L1208.21 329.537ZM1166.94 328.44L1166.27 327.697L1164.9 328.93L1166.68 329.406L1166.94 328.44ZM1174.78 330.542L1175.75 330.283L1175.6 329.725L1175.04 329.576L1174.78 330.542ZM1189.87 386.833L1190.57 387.541L1190.98 387.132L1190.83 386.575L1189.87 386.833ZM1169.26 407.436L1168.56 406.729L1168.56 406.729L1169.26 407.436ZM1148.66 428.042L1148.4 429.007L1148.96 429.157L1149.37 428.749L1148.66 428.042ZM1120.51 420.499L1120.77 419.533L1120.77 419.533L1120.51 420.499ZM1092.37 412.959L1091.4 413.217L1091.55 413.775L1092.11 413.925L1092.37 412.959ZM1022.24 474.494L1090.96 405.778L1089.55 404.364L1020.83 473.079L1022.24 474.494ZM1022.24 515.506C1010.92 504.181 1010.92 485.819 1022.24 474.494L1020.83 473.079C1008.72 485.186 1008.72 504.814 1020.83 516.92L1022.24 515.506ZM1166.49 659.756L1022.24 515.506L1020.83 516.92L1165.08 661.17L1166.49 659.756ZM1207.51 659.756C1196.18 671.081 1177.82 671.081 1166.49 659.756L1165.08 661.17C1177.19 673.276 1196.81 673.276 1208.92 661.17L1207.51 659.756ZM1351.76 515.506L1207.51 659.756L1208.92 661.17L1353.17 516.92L1351.76 515.506ZM1351.76 474.494C1363.08 485.819 1363.08 504.181 1351.76 515.506L1353.17 516.92C1365.28 504.814 1365.28 485.186 1353.17 473.079L1351.76 474.494ZM1207.51 330.244L1351.76 474.494L1353.17 473.079L1208.92 328.83L1207.51 330.244ZM1167.61 329.183C1179 318.93 1196.55 319.284 1207.51 330.244L1208.92 328.83C1197.2 317.113 1178.44 316.736 1166.27 327.697L1167.61 329.183ZM1166.68 329.406L1174.52 331.508L1175.04 329.576L1167.2 327.475L1166.68 329.406ZM1173.82 330.801L1188.9 387.092L1190.83 386.575L1175.75 330.283L1173.82 330.801ZM1189.16 386.126L1168.56 406.729L1169.97 408.144L1190.57 387.541L1189.16 386.126ZM1168.56 406.729L1147.95 427.334L1149.37 428.749L1169.97 408.144L1168.56 406.729ZM1148.92 427.076L1120.77 419.533L1120.25 421.465L1148.4 429.007L1148.92 427.076ZM1120.77 419.533L1092.62 411.993L1092.11 413.925L1120.25 421.465L1120.77 419.533ZM1093.33 412.7L1091.22 404.812L1089.29 405.33L1091.4 413.217L1093.33 412.7Z" fill="url(#paint5_linear_402_292)" mask="url(#path-5-inside-2_402_292)"/>
</g>
<g filter="url(#filter3_bd_402_292)">
<mask id="path-7-inside-3_402_292" fill="white">
<path fill-rule="evenodd" clip-rule="evenodd" d="M426.127 444.127L417.213 435.213C405.497 423.497 386.502 423.497 374.787 435.213L278.62 531.38C266.904 543.095 266.904 562.09 278.62 573.806L374.787 669.973C386.502 681.688 405.497 681.688 417.213 669.973L513.38 573.806C525.095 562.09 525.095 543.095 513.38 531.38L483.448 501.448L471.278 504.348L448.636 509.743L432.643 492.83L416.65 475.917L426.127 444.127Z"/>
</mask>
<path fill-rule="evenodd" clip-rule="evenodd" d="M426.127 444.127L417.213 435.213C405.497 423.497 386.502 423.497 374.787 435.213L278.62 531.38C266.904 543.095 266.904 562.09 278.62 573.806L374.787 669.973C386.502 681.688 405.497 681.688 417.213 669.973L513.38 573.806C525.095 562.09 525.095 543.095 513.38 531.38L483.448 501.448L471.278 504.348L448.636 509.743L432.643 492.83L416.65 475.917L426.127 444.127Z" fill="url(#paint6_linear_402_292)" shape-rendering="crispEdges"/>
<path d="M417.213 435.213L416.506 435.92L416.506 435.92L417.213 435.213ZM426.127 444.127L427.085 444.413L427.256 443.841L426.834 443.42L426.127 444.127ZM374.787 435.213L374.079 434.506L374.787 435.213ZM278.62 531.38L277.913 530.672L277.913 530.672L278.62 531.38ZM278.62 573.806L279.327 573.099L279.327 573.099L278.62 573.806ZM374.787 669.973L374.079 670.68L374.079 670.68L374.787 669.973ZM417.213 669.973L416.506 669.265L416.506 669.265L417.213 669.973ZM513.38 573.806L514.087 574.513L514.087 574.513L513.38 573.806ZM513.38 531.38L512.672 532.087L512.672 532.087L513.38 531.38ZM483.448 501.448L484.155 500.741L483.76 500.346L483.216 500.475L483.448 501.448ZM471.278 504.348L471.047 503.375L471.047 503.375L471.278 504.348ZM448.636 509.743L447.909 510.43L448.306 510.849L448.868 510.715L448.636 509.743ZM432.643 492.83L433.37 492.143L433.37 492.143L432.643 492.83ZM416.65 475.917L415.691 475.631L415.527 476.184L415.923 476.604L416.65 475.917ZM416.506 435.92L425.42 444.834L426.834 443.42L417.92 434.506L416.506 435.92ZM375.494 435.92C386.819 424.595 405.181 424.595 416.506 435.92L417.92 434.506C405.814 422.4 386.186 422.4 374.079 434.506L375.494 435.92ZM279.327 532.087L375.494 435.92L374.079 434.506L277.913 530.672L279.327 532.087ZM279.327 573.099C268.002 561.774 268.002 543.412 279.327 532.087L277.913 530.672C265.807 542.779 265.807 562.407 277.913 574.513L279.327 573.099ZM375.494 669.265L279.327 573.099L277.913 574.513L374.079 670.68L375.494 669.265ZM416.506 669.265C405.181 680.591 386.819 680.591 375.494 669.265L374.079 670.68C386.186 682.786 405.814 682.786 417.92 670.68L416.506 669.265ZM512.672 573.099L416.506 669.265L417.92 670.68L514.087 574.513L512.672 573.099ZM512.672 532.087C523.998 543.412 523.998 561.774 512.672 573.099L514.087 574.513C526.193 562.407 526.193 542.779 514.087 530.672L512.672 532.087ZM482.741 502.155L512.672 532.087L514.087 530.672L484.155 500.741L482.741 502.155ZM483.216 500.475L471.047 503.375L471.51 505.32L483.68 502.421L483.216 500.475ZM471.047 503.375L448.404 508.77L448.868 510.715L471.51 505.32L471.047 503.375ZM449.363 509.055L433.37 492.143L431.917 493.517L447.909 510.43L449.363 509.055ZM433.37 492.143L417.376 475.23L415.923 476.604L431.917 493.517L433.37 492.143ZM417.608 476.203L427.085 444.413L425.169 443.841L415.691 475.631L417.608 476.203Z" fill="url(#paint7_linear_402_292)" mask="url(#path-7-inside-3_402_292)"/>
</g>
<g filter="url(#filter4_d_402_292)">
<mask id="mask0_402_292" style="mask-type:alpha" maskUnits="userSpaceOnUse" x="426" y="430" width="71" height="70">
<path fill-rule="evenodd" clip-rule="evenodd" d="M484.419 443.357L472.274 430.129L454.808 434.306L437.343 438.482L426.704 473.291L438.849 486.518L450.995 499.746L468.461 495.569L485.925 491.393L496.565 456.585L484.419 443.357Z" fill="white"/>
</mask>
<g mask="url(#mask0_402_292)">
<path fill-rule="evenodd" clip-rule="evenodd" d="M484.419 443.357L472.274 430.129L454.808 434.306L437.343 438.482L426.704 473.291L438.849 486.518L450.995 499.746L468.461 495.569L485.925 491.393L496.565 456.585L484.419 443.357Z" fill="#F85E11"/>
<path fill-rule="evenodd" clip-rule="evenodd" d="M455.314 462.78L453.09 470.058L447.343 473.216L450.941 461.442C451.889 458.419 453.961 455.883 456.706 454.388C459.452 452.893 462.647 452.56 465.596 453.462C468.545 454.363 471.008 456.425 472.449 459.2C473.889 461.974 474.19 465.235 473.285 468.272L470.373 477.798C470.287 478.098 470.143 478.377 469.951 478.621C469.759 478.865 469.521 479.068 469.253 479.219C468.984 479.369 468.69 479.464 468.387 479.498C468.084 479.531 467.778 479.502 467.488 479.414C467.198 479.325 466.928 479.178 466.696 478.981C466.464 478.784 466.273 478.54 466.134 478.266C465.996 477.991 465.912 477.69 465.889 477.38C465.866 477.07 465.904 476.758 466 476.461L468.912 466.935C469.458 465.089 469.272 463.108 468.395 461.422C467.518 459.737 466.02 458.485 464.228 457.937C462.436 457.389 460.494 457.591 458.825 458.497C457.155 459.404 455.894 460.944 455.314 462.78Z" fill="white"/>
<path d="M464.495 468.984C464.005 470.586 462.31 471.487 460.708 470.998C459.106 470.508 458.204 468.812 458.693 467.21C459.183 465.608 460.879 464.707 462.481 465.196C464.083 465.686 464.985 467.381 464.495 468.984Z" fill="white"/>
</g>
</g>
<g filter="url(#filter5_bd_402_292)">
<mask id="path-13-inside-4_402_292" fill="white">
<path fill-rule="evenodd" clip-rule="evenodd" d="M211.136 185.318C201.294 182.917 190.473 185.561 182.787 193.248L109.247 266.787C97.5318 278.503 97.5318 297.498 109.247 309.213L182.787 382.752C194.502 394.468 213.497 394.468 225.213 382.752L298.752 309.213C310.468 297.498 310.468 278.503 298.752 266.787L260.616 228.65L257.267 236.993L239.532 239.527L221.797 242.062L210.736 227.969L199.673 213.876L211.136 185.318Z"/>
</mask>
<path fill-rule="evenodd" clip-rule="evenodd" d="M211.136 185.318C201.294 182.917 190.473 185.561 182.787 193.248L109.247 266.787C97.5318 278.503 97.5318 297.498 109.247 309.213L182.787 382.752C194.502 394.468 213.497 394.468 225.213 382.752L298.752 309.213C310.468 297.498 310.468 278.503 298.752 266.787L260.616 228.65L257.267 236.993L239.532 239.527L221.797 242.062L210.736 227.969L199.673 213.876L211.136 185.318Z" fill="url(#paint8_linear_402_292)" shape-rendering="crispEdges"/>
<path d="M182.787 193.248L183.494 193.955L183.494 193.955L182.787 193.248ZM211.136 185.318L212.064 185.69L212.494 184.619L211.373 184.346L211.136 185.318ZM109.247 266.787L108.54 266.08L108.54 266.08L109.247 266.787ZM109.247 309.213L108.54 309.92L109.247 309.213ZM182.787 382.752L182.079 383.459L182.079 383.459L182.787 382.752ZM298.752 266.787L298.045 267.494L298.045 267.494L298.752 266.787ZM260.616 228.65L261.323 227.943L260.252 226.872L259.688 228.278L260.616 228.65ZM257.267 236.993L257.409 237.983L257.98 237.901L258.195 237.365L257.267 236.993ZM239.532 239.527L239.674 240.517L239.674 240.517L239.532 239.527ZM221.797 242.062L221.011 242.679L221.367 243.133L221.939 243.051L221.797 242.062ZM210.736 227.969L211.522 227.352L211.522 227.352L210.736 227.969ZM199.673 213.876L198.745 213.504L198.53 214.04L198.887 214.494L199.673 213.876ZM183.494 193.955C190.924 186.525 201.382 183.968 210.899 186.289L211.373 184.346C201.206 181.867 190.023 184.597 182.079 192.541L183.494 193.955ZM109.955 267.494L183.494 193.955L182.079 192.541L108.54 266.08L109.955 267.494ZM109.955 308.506C98.6294 297.181 98.6294 278.819 109.955 267.494L108.54 266.08C96.4341 278.186 96.4341 297.814 108.54 309.92L109.955 308.506ZM183.494 382.045L109.955 308.506L108.54 309.92L182.079 383.459L183.494 382.045ZM224.506 382.045C213.181 393.37 194.819 393.37 183.494 382.045L182.079 383.459C194.186 395.566 213.814 395.566 225.92 383.459L224.506 382.045ZM298.045 308.506L224.506 382.045L225.92 383.459L299.459 309.92L298.045 308.506ZM298.045 267.494C309.37 278.819 309.37 297.181 298.045 308.506L299.459 309.92C311.565 297.814 311.565 278.186 299.459 266.08L298.045 267.494ZM259.909 229.357L298.045 267.494L299.459 266.08L261.323 227.943L259.909 229.357ZM258.195 237.365L261.544 229.023L259.688 228.278L256.339 236.62L258.195 237.365ZM239.674 240.517L257.409 237.983L257.126 236.003L239.391 238.537L239.674 240.517ZM221.939 243.051L239.674 240.517L239.391 238.537L221.656 241.072L221.939 243.051ZM209.949 228.586L221.011 242.679L222.584 241.444L211.522 227.352L209.949 228.586ZM198.887 214.494L209.949 228.586L211.522 227.352L200.46 213.259L198.887 214.494ZM210.208 184.945L198.745 213.504L200.601 214.249L212.064 185.69L210.208 184.945Z" fill="url(#paint9_linear_402_292)" mask="url(#path-13-inside-4_402_292)"/>
</g>
<mask id="mask1_402_292" style="mask-type:alpha" maskUnits="userSpaceOnUse" x="208" y="182" width="55" height="53">
<path fill-rule="evenodd" clip-rule="evenodd" d="M254.139 193.293L245.68 182.62L232.241 184.819L218.802 187.017L208.841 212.758L217.3 223.43L225.759 234.102L239.197 231.903L252.636 229.705L262.597 203.965L254.139 193.293Z" fill="white"/>
</mask>
<g mask="url(#mask1_402_292)">
<g filter="url(#filter6_d_402_292)">
<path fill-rule="evenodd" clip-rule="evenodd" d="M254.139 193.293L245.68 182.62L232.241 184.819L218.802 187.017L208.841 212.758L217.3 223.429L225.759 234.102L239.197 231.903L252.636 229.705L262.597 203.965L254.139 193.293Z" fill="#F85E11"/>
</g>
<path fill-rule="evenodd" clip-rule="evenodd" d="M234.515 213.767L229.119 211.68L224.499 213.722L233.226 217.1C235.478 217.948 237.973 217.872 240.169 216.889C242.365 215.907 244.084 214.097 244.953 211.853C245.821 209.609 245.768 207.114 244.805 204.909C243.843 202.704 242.048 200.968 239.812 200.08L232.751 197.347C232.311 197.187 231.827 197.206 231.401 197.4C230.975 197.593 230.642 197.945 230.474 198.382C230.305 198.818 230.314 199.302 230.499 199.732C230.683 200.161 231.029 200.501 231.461 200.679L233.54 201.484L230.224 210.052C230.055 210.494 230.067 210.985 230.259 211.418C230.45 211.851 230.805 212.19 231.246 212.362C231.687 212.532 232.178 212.519 232.611 212.328C233.044 212.137 233.384 211.782 233.556 211.341L236.871 202.773L238.522 203.411C239.21 203.669 239.841 204.06 240.377 204.562C240.912 205.065 241.343 205.668 241.644 206.338C241.945 207.009 242.11 207.732 242.129 208.466C242.149 209.201 242.022 209.932 241.757 210.617C241.492 211.302 241.093 211.927 240.585 212.457C240.076 212.987 239.467 213.411 238.794 213.704C238.12 213.998 237.395 214.154 236.661 214.165C235.926 214.175 235.197 214.041 234.515 213.767Z" fill="white"/>
</g>
<g filter="url(#filter7_d_402_292)">
<mask id="mask2_402_292" style="mask-type:alpha" maskUnits="userSpaceOnUse" x="1087" y="324" width="93" height="94">
<path fill-rule="evenodd" clip-rule="evenodd" d="M1143.82 330.823L1121.02 324.522L1104.42 341.379L1087.82 358.235L1100.23 404.548L1123.03 410.847L1145.84 417.147L1162.43 400.29L1179.03 383.435L1166.62 337.123L1143.82 330.823Z" fill="white"/>
</mask>
<g mask="url(#mask2_402_292)">
<path fill-rule="evenodd" clip-rule="evenodd" d="M1143.82 330.823L1121.02 324.522L1104.42 341.379L1087.82 358.235L1100.23 404.548L1123.03 410.847L1145.84 417.147L1162.43 400.29L1179.03 383.435L1166.62 337.123L1143.82 330.823Z" fill="#F85E11"/>
<path fill-rule="evenodd" clip-rule="evenodd" d="M1125.13 373.265L1122.54 363.6L1114.98 359.232L1119.17 374.864C1120.25 378.907 1122.89 382.354 1126.52 384.446C1130.14 386.539 1134.45 387.106 1138.49 386.023C1142.54 384.94 1145.98 382.295 1148.08 378.67C1150.17 375.046 1150.74 370.738 1149.65 366.696L1146.26 354.042C1146.03 353.267 1145.51 352.611 1144.81 352.215C1144.11 351.819 1143.28 351.715 1142.5 351.924C1141.72 352.133 1141.05 352.639 1140.64 353.333C1140.23 354.028 1140.1 354.856 1140.29 355.64L1143.68 368.295C1144.34 370.755 1144 373.376 1142.73 375.582C1141.45 377.787 1139.35 379.397 1136.89 380.056C1134.43 380.715 1131.81 380.37 1129.61 379.097C1127.4 377.823 1125.79 375.726 1125.13 373.265Z" fill="white"/>
</g>
</g>
<defs>
<filter id="filter0_bd_402_292" x="337.427" y="-20.5737" width="178.912" height="178.912" filterUnits="userSpaceOnUse" color-interpolation-filters="sRGB">
<feFlood flood-opacity="0" result="BackgroundImageFix"/>
<feGaussianBlur in="BackgroundImage" stdDeviation="17"/>
<feComposite in2="SourceAlpha" operator="in" result="effect1_backgroundBlur_402_292"/>
<feColorMatrix in="SourceAlpha" type="matrix" values="0 0 0 0 0 0 0 0 0 0 0 0 0 0 0 0 0 0 127 0" result="hardAlpha"/>
<feMorphology radius="1" operator="erode" in="SourceAlpha" result="effect2_dropShadow_402_292"/>
<feOffset dy="10"/>
<feGaussianBlur stdDeviation="12"/>
<feComposite in2="hardAlpha" operator="out"/>
<feColorMatrix type="matrix" values="0 0 0 0 0 0 0 0 0 0 0 0 0 0 0 0 0 0 0.2 0"/>
<feBlend mode="normal" in2="effect1_backgroundBlur_402_292" result="effect2_dropShadow_402_292"/>
<feBlend mode="normal" in="SourceGraphic" in2="effect2_dropShadow_402_292" result="shape"/>
</filter>
<filter id="filter1_bd_402_292" x="1138.09" y="22.4268" width="229.823" height="229.823" filterUnits="userSpaceOnUse" color-interpolation-filters="sRGB">
<feFlood flood-opacity="0" result="BackgroundImageFix"/>
<feGaussianBlur in="BackgroundImage" stdDeviation="17"/>
<feComposite in2="SourceAlpha" operator="in" result="effect1_backgroundBlur_402_292"/>
<feColorMatrix in="SourceAlpha" type="matrix" values="0 0 0 0 0 0 0 0 0 0 0 0 0 0 0 0 0 0 127 0" result="hardAlpha"/>
<feMorphology radius="1" operator="erode" in="SourceAlpha" result="effect2_dropShadow_402_292"/>
<feOffset dy="10"/>
<feGaussianBlur stdDeviation="12"/>
<feComposite in2="hardAlpha" operator="out"/>
<feColorMatrix type="matrix" values="0 0 0 0 0 0 0 0 0 0 0 0 0 0 0 0 0 0 0.2 0"/>
<feBlend mode="normal" in2="effect1_backgroundBlur_402_292" result="effect2_dropShadow_402_292"/>
<feBlend mode="normal" in="SourceGraphic" in2="effect2_dropShadow_402_292" result="shape"/>
</filter>
<filter id="filter2_bd_402_292" x="978.75" y="286.75" width="416.5" height="416.5" filterUnits="userSpaceOnUse" color-interpolation-filters="sRGB">
<feFlood flood-opacity="0" result="BackgroundImageFix"/>
<feGaussianBlur in="BackgroundImage" stdDeviation="17"/>
<feComposite in2="SourceAlpha" operator="in" result="effect1_backgroundBlur_402_292"/>
<feColorMatrix in="SourceAlpha" type="matrix" values="0 0 0 0 0 0 0 0 0 0 0 0 0 0 0 0 0 0 127 0" result="hardAlpha"/>
<feMorphology radius="1" operator="erode" in="SourceAlpha" result="effect2_dropShadow_402_292"/>
<feOffset dy="10"/>
<feGaussianBlur stdDeviation="12"/>
<feComposite in2="hardAlpha" operator="out"/>
<feColorMatrix type="matrix" values="0 0 0 0 0 0 0 0 0 0 0 0 0 0 0 0 0 0 0.2 0"/>
<feBlend mode="normal" in2="effect1_backgroundBlur_402_292" result="effect2_dropShadow_402_292"/>
<feBlend mode="normal" in="SourceGraphic" in2="effect2_dropShadow_402_292" result="shape"/>
</filter>
<filter id="filter3_bd_402_292" x="235.833" y="392.426" width="320.333" height="320.333" filterUnits="userSpaceOnUse" color-interpolation-filters="sRGB">
<feFlood flood-opacity="0" result="BackgroundImageFix"/>
<feGaussianBlur in="BackgroundImage" stdDeviation="17"/>
<feComposite in2="SourceAlpha" operator="in" result="effect1_backgroundBlur_402_292"/>
<feColorMatrix in="SourceAlpha" type="matrix" values="0 0 0 0 0 0 0 0 0 0 0 0 0 0 0 0 0 0 127 0" result="hardAlpha"/>
<feMorphology radius="1" operator="erode" in="SourceAlpha" result="effect2_dropShadow_402_292"/>
<feOffset dy="10"/>
<feGaussianBlur stdDeviation="12"/>
<feComposite in2="hardAlpha" operator="out"/>
<feColorMatrix type="matrix" values="0 0 0 0 0 0 0 0 0 0 0 0 0 0 0 0 0 0 0.2 0"/>
<feBlend mode="normal" in2="effect1_backgroundBlur_402_292" result="effect2_dropShadow_402_292"/>
<feBlend mode="normal" in="SourceGraphic" in2="effect2_dropShadow_402_292" result="shape"/>
</filter>
<filter id="filter4_d_402_292" x="420.704" y="429.129" width="93.8608" height="93.6167" filterUnits="userSpaceOnUse" color-interpolation-filters="sRGB">
<feFlood flood-opacity="0" result="BackgroundImageFix"/>
<feColorMatrix in="SourceAlpha" type="matrix" values="0 0 0 0 0 0 0 0 0 0 0 0 0 0 0 0 0 0 127 0" result="hardAlpha"/>
<feOffset dx="6" dy="11"/>
<feGaussianBlur stdDeviation="6"/>
<feComposite in2="hardAlpha" operator="out"/>
<feColorMatrix type="matrix" values="0 0 0 0 0 0 0 0 0 0 0 0 0 0 0 0 0 0 0.45 0"/>
<feBlend mode="normal" in2="BackgroundImageFix" result="effect1_dropShadow_402_292"/>
<feBlend mode="normal" in="SourceGraphic" in2="effect1_dropShadow_402_292" result="shape"/>
</filter>
<filter id="filter5_bd_402_292" x="66.4607" y="150.461" width="275.078" height="275.078" filterUnits="userSpaceOnUse" color-interpolation-filters="sRGB">
<feFlood flood-opacity="0" result="BackgroundImageFix"/>
<feGaussianBlur in="BackgroundImage" stdDeviation="17"/>
<feComposite in2="SourceAlpha" operator="in" result="effect1_backgroundBlur_402_292"/>
<feColorMatrix in="SourceAlpha" type="matrix" values="0 0 0 0 0 0 0 0 0 0 0 0 0 0 0 0 0 0 127 0" result="hardAlpha"/>
<feMorphology radius="1" operator="erode" in="SourceAlpha" result="effect2_dropShadow_402_292"/>
<feOffset dy="10"/>
<feGaussianBlur stdDeviation="12"/>
<feComposite in2="hardAlpha" operator="out"/>
<feColorMatrix type="matrix" values="0 0 0 0 0 0 0 0 0 0 0 0 0 0 0 0 0 0 0.2 0"/>
<feBlend mode="normal" in2="effect1_backgroundBlur_402_292" result="effect2_dropShadow_402_292"/>
<feBlend mode="normal" in="SourceGraphic" in2="effect2_dropShadow_402_292" result="shape"/>
</filter>
<filter id="filter6_d_402_292" x="202.841" y="181.62" width="77.7554" height="75.4819" filterUnits="userSpaceOnUse" color-interpolation-filters="sRGB">
<feFlood flood-opacity="0" result="BackgroundImageFix"/>
<feColorMatrix in="SourceAlpha" type="matrix" values="0 0 0 0 0 0 0 0 0 0 0 0 0 0 0 0 0 0 127 0" result="hardAlpha"/>
<feOffset dx="6" dy="11"/>
<feGaussianBlur stdDeviation="6"/>
<feComposite in2="hardAlpha" operator="out"/>
<feColorMatrix type="matrix" values="0 0 0 0 0 0 0 0 0 0 0 0 0 0 0 0 0 0 0.45 0"/>
<feBlend mode="normal" in2="BackgroundImageFix" result="effect1_dropShadow_402_292"/>
<feBlend mode="normal" in="SourceGraphic" in2="effect1_dropShadow_402_292" result="shape"/>
</filter>
<filter id="filter7_d_402_292" x="1081.82" y="323.522" width="115.204" height="116.625" filterUnits="userSpaceOnUse" color-interpolation-filters="sRGB">
<feFlood flood-opacity="0" result="BackgroundImageFix"/>
<feColorMatrix in="SourceAlpha" type="matrix" values="0 0 0 0 0 0 0 0 0 0 0 0 0 0 0 0 0 0 127 0" result="hardAlpha"/>
<feOffset dx="6" dy="11"/>
<feGaussianBlur stdDeviation="6"/>
<feComposite in2="hardAlpha" operator="out"/>
<feColorMatrix type="matrix" values="0 0 0 0 0 0 0 0 0 0 0 0 0 0 0 0 0 0 0.45 0"/>
<feBlend mode="normal" in2="BackgroundImageFix" result="effect1_dropShadow_402_292"/>
<feBlend mode="normal" in="SourceGraphic" in2="effect1_dropShadow_402_292" result="shape"/>
</filter>
<linearGradient id="paint0_linear_402_292" x1="427.654" y1="2.28" x2="508.199" y2="18.9687" gradientUnits="userSpaceOnUse">
<stop stop-color="white" stop-opacity="0.1"/>
<stop offset="1" stop-color="white" stop-opacity="0.16"/>
</linearGradient>
<linearGradient id="paint1_linear_402_292" x1="432.233" y1="0.999986" x2="535.543" y2="18.1796" gradientUnits="userSpaceOnUse">
<stop stop-color="white" stop-opacity="0.5"/>
<stop offset="0.442708" stop-color="white" stop-opacity="0"/>
<stop offset="0.635417" stop-color="white" stop-opacity="0"/>
<stop offset="1" stop-color="white" stop-opacity="0.5"/>
</linearGradient>
<linearGradient id="paint2_linear_402_292" x1="1252.51" y1="45.9951" x2="1314.59" y2="140.533" gradientUnits="userSpaceOnUse">
<stop stop-color="white" stop-opacity="0.33"/>
<stop offset="1" stop-color="white" stop-opacity="0.1"/>
</linearGradient>
<linearGradient id="paint3_linear_402_292" x1="1258.2" y1="49.2023" x2="1341.94" y2="166.351" gradientUnits="userSpaceOnUse">
<stop stop-color="white" stop-opacity="0.5"/>
<stop offset="0.442708" stop-color="white" stop-opacity="0"/>
<stop offset="0.635417" stop-color="white" stop-opacity="0"/>
<stop offset="1" stop-color="white" stop-opacity="0.5"/>
</linearGradient>
<linearGradient id="paint4_linear_402_292" x1="1186.01" y1="312.313" x2="1310.18" y2="501.389" gradientUnits="userSpaceOnUse">
<stop stop-color="white" stop-opacity="0.33"/>
<stop offset="1" stop-color="white" stop-opacity="0.1"/>
</linearGradient>
<linearGradient id="paint5_linear_402_292" x1="1197.4" y1="318.728" x2="1364.89" y2="553.025" gradientUnits="userSpaceOnUse">
<stop stop-color="white" stop-opacity="0.5"/>
<stop offset="0.442708" stop-color="white" stop-opacity="0"/>
<stop offset="0.635417" stop-color="white" stop-opacity="0"/>
<stop offset="1" stop-color="white" stop-opacity="0.5"/>
</linearGradient>
<linearGradient id="paint6_linear_402_292" x1="395.266" y1="416.962" x2="487.454" y2="557.336" gradientUnits="userSpaceOnUse">
<stop stop-color="white" stop-opacity="0.33"/>
<stop offset="1" stop-color="white" stop-opacity="0.1"/>
</linearGradient>
<linearGradient id="paint7_linear_402_292" x1="403.724" y1="421.724" x2="528.068" y2="595.672" gradientUnits="userSpaceOnUse">
<stop stop-color="white" stop-opacity="0.5"/>
<stop offset="0.442708" stop-color="white" stop-opacity="0"/>
<stop offset="0.635417" stop-color="white" stop-opacity="0"/>
<stop offset="1" stop-color="white" stop-opacity="0.5"/>
</linearGradient>
<linearGradient id="paint8_linear_402_292" x1="203.386" y1="174.513" x2="280.523" y2="291.969" gradientUnits="userSpaceOnUse">
<stop stop-color="white" stop-opacity="0.1"/>
<stop offset="1" stop-color="white" stop-opacity="0.16"/>
</linearGradient>
<linearGradient id="paint9_linear_402_292" x1="210.463" y1="178.498" x2="314.506" y2="324.046" gradientUnits="userSpaceOnUse">
<stop stop-color="white" stop-opacity="0.5"/>
<stop offset="0.442708" stop-color="white" stop-opacity="0"/>
<stop offset="0.635417" stop-color="white" stop-opacity="0"/>
<stop offset="1" stop-color="white" stop-opacity="0.5"/>
</linearGradient>
</defs>
</svg>
