<svg width="339" height="104" viewBox="0 0 339 104" fill="none" xmlns="http://www.w3.org/2000/svg">
<path d="M116.308 51.379C115.913 41.2161 123.874 32.6906 134.037 32.2954H134.771C144.143 32.2954 149.676 37.7721 151.314 44.2086L145.442 46.1847C144.369 41.2162 139.796 37.7721 134.771 38.1673C128.73 38.1673 122.632 42.5712 122.632 51.4919C122.632 60.4127 128.56 64.6472 134.827 64.6472C139.909 64.7601 144.426 61.429 145.781 56.5734L151.483 58.4366C149.451 65.8893 142.506 70.9708 134.771 70.5755C124.721 70.7449 116.421 62.784 116.252 52.7341C116.252 52.2824 116.252 51.8307 116.308 51.379Z" fill="url(#paint0_linear_534_631)"/>
<path d="M162.889 69.7288H156.734V32.1826H162.889V46.9188C164.639 44.8297 167.292 43.6441 170.059 43.757C176.27 43.757 179.319 48.2174 179.319 53.7505V69.7288H173.334V54.7668C173.729 52.1131 171.866 49.6289 169.212 49.2337C168.873 49.1772 168.478 49.1772 168.139 49.2337C165.26 49.2337 162.889 51.605 162.889 54.4845C162.889 54.6538 162.889 54.7668 162.889 54.9362V69.7288Z" fill="url(#paint1_linear_534_631)"/>
<path d="M192.642 55.2749L199.135 54.2586C200.603 54.0892 200.999 53.2988 200.999 52.4518C200.999 50.3064 199.587 48.6125 196.199 48.6125C193.602 48.3867 191.287 50.3064 191.005 52.9035V53.1294L185.528 51.8872C185.98 47.5398 189.932 43.644 196.143 43.644C203.934 43.644 206.87 48.0479 206.87 53.1858V65.72C206.87 67.0751 206.927 68.4301 207.209 69.7852H201.62C201.394 68.7124 201.337 67.6397 201.394 66.5669C199.7 69.1641 196.708 70.6885 193.602 70.5756C189.255 70.9144 185.472 67.7526 185.02 63.4052V63.0099C184.964 58.3237 188.295 55.8959 192.642 55.2749ZM200.942 59.34V58.2108L194.336 59.1706C192.473 59.2271 191.005 60.7515 190.949 62.6147C190.949 64.4779 192.473 65.9459 194.336 65.8894H194.619C197.78 66.2846 200.66 63.9698 200.999 60.808C200.999 60.7515 200.999 60.7515 200.999 60.6951C201.111 60.2434 201.055 59.7917 200.942 59.34Z" fill="url(#paint2_linear_534_631)"/>
<path d="M217.091 31.6743C219.236 31.6743 221.043 33.3681 221.099 35.5701C221.099 37.7156 219.349 39.4658 217.204 39.5223C215.058 39.5223 213.308 37.772 213.251 35.6265C213.195 33.4246 214.945 31.6743 217.091 31.6743ZM214.155 69.8415V44.4908H220.196V69.7286L214.155 69.8415Z" fill="url(#paint3_linear_534_631)"/>
<path d="M233.858 69.7286H227.816V44.4908H233.688V47.8785C235.269 45.2813 238.092 43.7004 241.141 43.7568C247.295 43.7568 250.231 48.2172 250.231 53.7503V69.7286H244.246V54.7666C244.246 51.6613 242.835 49.177 239.052 49.177C236.116 49.177 233.745 51.6048 233.745 54.5408C233.745 54.7666 233.745 54.936 233.745 55.1618L233.858 69.7286Z" fill="url(#paint4_linear_534_631)"/>
<path d="M263.614 32.1826H257.629V69.7288H263.614V32.1826Z" fill="url(#paint5_linear_534_631)"/>
<path d="M274.398 31.6743C276.543 31.6743 278.293 33.4246 278.35 35.5701C278.35 37.7156 276.6 39.4658 274.454 39.5223C272.309 39.5223 270.558 37.772 270.502 35.6265V35.5701C270.502 33.4246 272.196 31.6743 274.398 31.6743ZM271.405 69.8415V44.4908H277.39V69.7286L271.405 69.8415Z" fill="url(#paint6_linear_534_631)"/>
<path d="M291.166 69.7286H285.182V44.4908H291.054V47.8785C292.634 45.2813 295.457 43.7004 298.506 43.7568C304.66 43.7568 307.653 48.2172 307.653 53.7503V69.7286H301.668V54.7666C302.063 52.113 300.2 49.6287 297.546 49.2335C297.208 49.177 296.812 49.177 296.474 49.2335C293.538 49.2335 291.166 51.6048 291.223 54.5408C291.223 54.7666 291.223 54.9925 291.223 55.1618L291.166 69.7286Z" fill="url(#paint7_linear_534_631)"/>
<path d="M328.147 55.1055L338.762 69.7288H331.365L323.969 59.2836L320.864 62.5583V69.7288H314.879V32.1826H320.864V54.6539L330.575 44.491H338.536L328.147 55.1055Z" fill="url(#paint8_linear_534_631)"/>
<path d="M45.0554 22.0195L71.0836 36.9815V66.962L45.1683 81.9805L19.1401 67.1878V37.0945L45.0554 22.0195ZM45.0554 0L35.5136 5.53312L9.5418 20.608L0 26.1412V78.1411L9.5418 83.6178L35.57 98.5233L45.1118 104L54.6536 98.4669L80.5689 83.392L90.1107 77.8588V25.8024L80.5689 20.3257L54.5407 5.36373L45.0554 0Z" fill="url(#paint9_linear_534_631)"/>
<defs>
<linearGradient id="paint0_linear_534_631" x1="139.494" y1="49.0294" x2="147.167" y2="62.5009" gradientUnits="userSpaceOnUse">
<stop stop-color="#EFF7FC"/>
<stop offset="1" stop-color="white"/>
</linearGradient>
<linearGradient id="paint1_linear_534_631" x1="171.633" y1="48.5865" x2="180.296" y2="58.5314" gradientUnits="userSpaceOnUse">
<stop stop-color="#EFF7FC"/>
<stop offset="1" stop-color="white"/>
</linearGradient>
<linearGradient id="paint2_linear_534_631" x1="199.658" y1="55.4213" x2="205.346" y2="64.3581" gradientUnits="userSpaceOnUse">
<stop stop-color="#EFF7FC"/>
<stop offset="1" stop-color="white"/>
</linearGradient>
<linearGradient id="paint3_linear_534_631" x1="218.428" y1="48.3496" x2="224.475" y2="50.7232" gradientUnits="userSpaceOnUse">
<stop stop-color="#EFF7FC"/>
<stop offset="1" stop-color="white"/>
</linearGradient>
<linearGradient id="paint4_linear_534_631" x1="242.603" y1="55.1031" x2="247.971" y2="63.9437" gradientUnits="userSpaceOnUse">
<stop stop-color="#EFF7FC"/>
<stop offset="1" stop-color="white"/>
</linearGradient>
<linearGradient id="paint5_linear_534_631" x1="261.577" y1="48.5865" x2="266.447" y2="50.0682" gradientUnits="userSpaceOnUse">
<stop stop-color="#EFF7FC"/>
<stop offset="1" stop-color="white"/>
</linearGradient>
<linearGradient id="paint6_linear_534_631" x1="275.679" y1="48.3496" x2="281.726" y2="50.7225" gradientUnits="userSpaceOnUse">
<stop stop-color="#EFF7FC"/>
<stop offset="1" stop-color="white"/>
</linearGradient>
<linearGradient id="paint7_linear_534_631" x1="300.006" y1="55.1031" x2="305.367" y2="63.9557" gradientUnits="userSpaceOnUse">
<stop stop-color="#EFF7FC"/>
<stop offset="1" stop-color="white"/>
</linearGradient>
<linearGradient id="paint8_linear_534_631" x1="330.634" y1="48.5865" x2="339.218" y2="59.0069" gradientUnits="userSpaceOnUse">
<stop stop-color="#EFF7FC"/>
<stop offset="1" stop-color="white"/>
</linearGradient>
<linearGradient id="paint9_linear_534_631" x1="59.4461" y1="45.4376" x2="80.8977" y2="80.9126" gradientUnits="userSpaceOnUse">
<stop stop-color="#EFF7FC"/>
<stop offset="1" stop-color="white"/>
</linearGradient>
</defs>
</svg>
