<svg width="348" height="78" viewBox="0 0 348 78" fill="none" xmlns="http://www.w3.org/2000/svg">
<path d="M340.194 43.9149C340.194 39.3975 337.53 35.9805 333.303 35.9805C329.075 35.9805 326.411 39.3975 326.411 43.9149C326.411 48.4322 329.075 51.8492 333.303 51.8492C337.53 51.8492 340.194 48.4322 340.194 43.9149ZM339.963 32.9689V21.0964C339.963 20.2856 340.484 19.6485 341.237 19.4168L347.492 17.7373V57.8145H340.542V54.3975C338.804 56.9457 335.619 58.4515 331.681 58.4515C323.573 58.4515 318.882 51.965 318.882 43.857C318.882 35.7489 323.631 29.2624 331.681 29.2624C335.677 29.3203 338.515 30.9998 339.963 32.9689ZM297.106 29.9574V33.3743C298.38 30.9998 301.276 29.3203 305.388 29.3203C312.106 29.3203 315.638 33.7798 315.638 40.44V57.8724H308.11V41.3087C308.11 38.0655 306.72 35.8068 303.361 35.8068C299.712 35.8068 297.685 38.1234 297.685 41.8878V57.8724H290.156V30.0153H297.106V29.9574ZM272.492 58.5094C264.326 58.5094 259.808 54.9766 259.808 45.9419V29.9574H267.337V46.0577C267.337 49.938 269.075 51.7334 272.434 51.7334C275.793 51.7334 277.53 49.938 277.53 46.0577V29.9574H285.059V45.9419C285.117 54.9766 280.6 58.5094 272.492 58.5094ZM234.847 43.9149C234.847 48.8956 237.917 51.8492 241.913 51.8492C245.909 51.8492 248.978 48.8956 248.978 43.9149C248.978 38.9342 245.909 35.9805 241.913 35.9805C237.975 35.9805 234.847 38.8763 234.847 43.9149ZM241.913 58.5094C232.994 58.5094 227.26 51.8492 227.26 43.9149C227.26 35.9805 232.936 29.3203 241.913 29.3203C250.832 29.3203 256.565 35.9805 256.565 43.9149C256.565 51.8492 250.89 58.5094 241.913 58.5094ZM204.268 43.9149C204.268 48.4322 206.932 51.8492 211.16 51.8492C215.388 51.8492 218.052 48.4322 218.052 43.9149C218.052 39.3975 215.388 35.9805 211.16 35.9805C206.932 35.9805 204.268 39.3975 204.268 43.9149ZM204.5 54.8608V66.4438C204.5 67.2546 203.978 67.8917 203.226 68.1233L196.971 69.7449V29.9574H203.921V33.3743C205.658 30.8261 208.843 29.3203 212.782 29.3203C220.89 29.3203 225.581 35.8068 225.581 43.9149C225.581 52.023 220.832 58.5094 212.782 58.5094C208.785 58.5094 205.948 56.772 204.5 54.8608ZM174.5 42.0037V57.8724H166.971V41.3087C166.971 38.2392 165.87 35.8068 162.511 35.8068C158.979 35.8068 157.067 38.0655 157.067 41.8299V57.8724H149.538V29.9574H156.488V33.3743C157.762 30.9998 160.542 29.3203 164.538 29.3203C168.303 29.3203 171.025 30.8261 172.646 33.2585C175.079 30.5365 177.917 29.3203 181.913 29.3203C188.631 29.3203 192.048 33.9535 192.048 40.44V57.8724H184.519V41.3087C184.519 38.2392 183.419 35.8068 180.06 35.8068C176.353 35.8068 174.5 38.1234 174.5 42.0037ZM124.287 43.9149C124.287 48.8956 127.357 51.8492 131.353 51.8492C135.349 51.8492 138.419 48.8956 138.419 43.9149C138.419 38.9342 135.349 35.9805 131.353 35.9805C127.357 35.9805 124.287 38.8763 124.287 43.9149ZM131.353 58.5094C122.434 58.5094 116.701 51.8492 116.701 43.9149C116.701 35.9805 122.376 29.3203 131.353 29.3203C140.33 29.3203 146.006 35.9805 146.006 43.9149C146.006 51.8492 140.272 58.5094 131.353 58.5094ZM77.4922 38.8763C77.4922 27.0616 85.6582 19.2431 96.4883 19.2431C105.928 19.2431 113.342 24.8029 114.789 34.0114H106.508C105.407 29.2624 101.585 26.5983 96.4883 26.5983C89.5964 26.5983 85.6582 31.4052 85.6582 38.8183C85.6582 46.2894 89.5385 51.0384 96.4883 51.0384C101.527 51.0384 105.349 48.3743 106.508 43.6253H114.789C113.342 52.8338 105.928 58.3936 96.4883 58.3936C85.6582 58.5674 77.4922 50.6909 77.4922 38.8763Z" fill="url(#paint0_linear_534_644)"/>
<path d="M3.12741 60.1888C1.21621 59.0305 0 56.8876 0 54.6868V42.1193C0 41.656 0.11583 41.1927 0.34749 40.7873C1.10038 39.5131 2.77992 39.0498 4.05405 39.8027L32.4324 56.3664C34.1119 57.3509 35.0965 59.0884 35.0965 61.0575V74.0883C35.0965 74.6675 34.9227 75.2467 34.6331 75.7679C33.7065 77.2737 31.6795 77.7949 30.1737 76.8683L3.12741 60.1888ZM45.4632 36.3278C47.1428 37.3124 48.1273 39.0498 48.1273 41.0189V67.486C48.1273 68.2969 47.7219 68.9918 47.027 69.3972L40.83 72.8721C40.7721 72.9301 40.6563 72.9301 40.5984 72.988V58.3355C40.5984 56.4243 39.6138 54.6868 37.9922 53.7023L13.0888 38.8181V22.0807C13.0888 21.6174 13.2046 21.1541 13.4363 20.7487C14.1892 19.4746 15.8687 19.0112 17.1428 19.7641L45.4632 36.3278ZM57.857 16.7525C59.5366 17.7371 60.5211 19.4746 60.5211 21.4437V60.0729C60.5211 60.8837 60.0578 61.5787 59.3628 61.9841L53.4555 65.1694V38.2969C53.4555 36.3857 52.471 34.6483 50.8493 33.6637L25.3668 18.3742V2.67922C25.3668 2.2159 25.4826 1.75258 25.7142 1.34718C26.4671 0.07305 28.1467 -0.390277 29.4208 0.362618L57.857 16.7525Z" fill="url(#paint1_linear_534_644)"/>
<defs>
<linearGradient id="paint0_linear_534_644" x1="255.611" y1="40.4594" x2="258.031" y2="64.4421" gradientUnits="userSpaceOnUse">
<stop stop-color="#EFF7FC"/>
<stop offset="1" stop-color="white"/>
</linearGradient>
<linearGradient id="paint1_linear_534_644" x1="39.9258" y1="33.7853" x2="56.5782" y2="58.66" gradientUnits="userSpaceOnUse">
<stop stop-color="#EFF7FC"/>
<stop offset="1" stop-color="white"/>
</linearGradient>
</defs>
</svg>
