<svg width="117" height="74" viewBox="0 0 117 74" fill="none" xmlns="http://www.w3.org/2000/svg">
<path fill-rule="evenodd" clip-rule="evenodd" d="M97.0548 21.6831C97.0548 13.7394 106.676 14.7002 106.676 20.935C106.676 23.9984 105.699 26.916 101.865 26.916C98.9349 26.916 97.0548 24.7233 97.0548 21.6822V21.6831ZM87.0635 33.6458C87.0635 35.5709 90.7175 34.7671 95.945 34.7671C97.2816 34.7671 97.0548 33.8243 97.0548 32.5238C101.405 34.8494 100.305 35.1402 105.566 35.1402C111.77 35.1402 116.667 28.7947 116.667 20.935C116.667 11.2173 107.675 4.92064 100.245 8.45671C98.6258 9.22706 98.2802 9.63883 97.0548 10.4675V0H87.0635V33.6441V33.6458Z" fill="white"/>
<path fill-rule="evenodd" clip-rule="evenodd" d="M0.842773 17.9446C0.842773 27.7267 8.56174 35.1411 17.495 35.1411C22.1366 35.1411 23.4188 35.3144 28.0239 33.4409C29.2042 32.9605 33.0366 31.1496 33.0366 29.9074V16.8234C21.6364 16.8234 23.7857 14.943 23.7857 25.7957C22.4075 26.12 21.0225 26.5437 19.3454 26.5437C13.059 26.5437 9.61386 20.2891 12.079 14.3434C14.5187 8.45936 22.81 8.82308 25.636 13.0858L32.2969 7.1048C25.5027 -3.14568 0.842773 -0.765136 0.842773 17.9455V17.9446Z" fill="white"/>
<path fill-rule="evenodd" clip-rule="evenodd" d="M68.5609 28.0374C64.6615 28.0374 64.1707 23.1777 68.9312 23.1777H71.8914C74.5009 23.1777 71.6833 28.0374 68.5609 28.0374ZM57.4597 10.4677C57.9998 12.8114 59.8799 14.8531 60.4199 17.1967C62.311 17.038 67.1496 13.9549 71.1569 16.0695C72.6149 16.839 72.3661 17.3554 73.0013 18.692C65.6704 18.692 55.9788 17.2079 55.9788 27.2902C55.9788 34.648 65.1133 36.821 70.109 34.0887C70.5072 33.8708 71.0558 33.4711 71.4362 33.1871C71.5645 33.091 71.7818 32.9006 72.068 32.7041C72.6276 32.319 72.2531 32.4245 73.0004 32.1508V34.7673H82.6215V18.3188C82.6215 7.29196 68.4251 5.47932 60.0505 9.34909C59.0613 9.80633 58.6647 10.1846 57.458 10.4686L57.4597 10.4677Z" fill="white"/>
<path fill-rule="evenodd" clip-rule="evenodd" d="M47.098 11.5898V8.22529H37.1067V33.6452C37.1067 34.5065 37.364 34.7664 38.2166 34.7664H47.098C47.098 26.4975 45.4141 16.8227 53.0185 16.8227C54.2939 16.8227 54.451 17.0989 55.6084 17.1967C55.6084 13.7035 55.9787 11.5126 55.9787 7.85126C53.4558 7.85126 51.8296 7.62822 49.6863 8.97162L47.0972 11.5898H47.098Z" fill="white"/>
<path fill-rule="evenodd" clip-rule="evenodd" d="M37.1075 67.6645H55.9795V65.0481H39.6975V56.4498H53.7589V53.8334H39.6975C39.6975 48.7952 38.9553 45.6091 40.8074 45.6091H55.6093V42.9927H37.1067V67.6654L37.1075 67.6645Z" fill="white"/>
<path fill-rule="evenodd" clip-rule="evenodd" d="M65.9707 65.4215C59.5349 65.4215 60.7203 58.6925 64.8609 58.6925H72.2623C72.2623 62.745 69.7895 65.4215 65.9716 65.4215H65.9707ZM59.6801 50.8423C60.1166 51.6753 60.2974 51.9678 60.7899 52.7115C62.2106 52.377 67.3422 48.9464 70.9027 52.2149C72.1077 53.3215 72.2614 54.2857 72.2614 56.4492C69.7708 56.3935 63.8087 55.0561 60.7084 57.4881C57.879 59.7082 56.4677 68.0371 65.9707 68.0371C68.694 68.0371 70.9859 66.1558 72.2614 64.6726V67.6631H75.2216C75.2216 56.8318 77.1968 48.2241 66.7104 48.2241C63.2169 48.2241 61.7257 49.4569 59.6792 50.8406L59.6801 50.8423Z" fill="white"/>
<path fill-rule="evenodd" clip-rule="evenodd" d="M96.6846 71.0284C96.4171 72.1891 96.2124 72.111 95.9441 73.2717C104.04 75.177 104.185 73.9134 108.998 62.534C110.023 60.1105 110.927 58.1572 111.909 55.7544C112.328 54.7275 112.854 53.4364 113.343 52.3427C113.968 50.9427 114.412 50.3525 114.817 48.5981H111.857C111.327 49.7125 110.824 51.0602 110.324 52.2835C109.156 55.1427 106.09 61.6521 105.566 63.9254C104.227 62.9337 99.8792 51.164 98.5349 48.5981H95.5747L98.484 55.3786C99.4597 57.7832 100.368 59.7356 101.393 62.1591C102.915 65.7569 104.087 66.9347 103.146 68.9215C101.185 73.0624 99.1234 71.2326 96.6846 71.0276V71.0284Z" fill="white"/>
<path fill-rule="evenodd" clip-rule="evenodd" d="M79.2926 53.4593C79.2926 61.2066 91.5037 57.6928 91.5037 62.4316C91.5037 66.3263 85.4882 65.5576 82.9355 64.7324C81.469 64.258 80.9281 63.5202 79.6628 63.1788C79.3436 64.5642 79.0523 64.2245 78.9224 65.7953C92.8624 73.2466 100.145 60.4071 89.4275 57.052C85.6266 55.8622 82.2528 56.4498 82.2528 53.0853C82.2528 50.2304 88.2955 50.4028 92.6144 52.7113C93.078 51.826 93.4729 51.1869 93.7243 50.0948C91.8306 49.6496 90.7454 48.2256 86.3237 48.2256C82.8787 48.2256 79.2926 50.118 79.2926 53.4593Z" fill="white"/>
</svg>
