<svg xmlns="http://www.w3.org/2000/svg" width="1357.977" height="1358.172" viewBox="0 0 1357.977 1358.172">
  <path id="Path_201" data-name="Path 201" d="M84.59,635.49l-.57-11.16,2.01-11.41-.54-3.76c.78-7.99.09-8.28,3.69-13.74l-.36-8.46,1.75-6.75.05-6.01,2.73-6.88-.56-5.06,2.92-6.22-.86-5.37,3.23-6.01-1.11-3.57,3.46-6-.84-2.6,2.68-5.43-.54-4.06,2.92-6.9,2.95-6.68-.07-3.61,1.74-4.28.41-2.87,1.79-4.13.41-3.04,1.9-3.89.36-3.18,2.03-3.72.44-2.9,1.98-4.34-.44-1.48,3.24-4.43-.21-1.52,1.92-4.4-.28-1.53,3.34-4.14-.32-1.61,1.97-4.02,2.72-7.85,2.04-3.4v-1.59c0-3.83-1.09-3.11,2.29-3.11l-.05-1.49c-.02-4.17-1.25-3.46,2.26-3.46l-.05-1.24,2.22-3.82,11.64-24.43,2.46-2.93-.06-1.62c.15-3.73-.9-2.96,2.49-2.96l.03-1.43c.1-3.99-1.06-3.25,2.42-3.25l.17-1.08,2.36-3.15,1.87-3.99,2.43-3.54.14-1.07,2.47-3.01,1.88-4.42,2.55-2.93.08-1.38,2.16-2.93c-.11-3.6-1.07-2.83,2.31-2.83l.06-1.24c.22-3.8-.85-2.99,2.69-2.99l1.97-4.08,2.69-2.66,1.86-4.47,2.79-2.58,3.93-6.9,2.86-2.64,2.12-3.97,2.79-2.57,4.2-6.76,2.39-2.64c.03-3.38-.83-2.54,2.53-2.54l4.22-6.65,2.54-2.47c0-3.49-.9-2.66,2.53-2.66l4.53-6.4,2.37-2.41,2.2-2.49,2.25-2.43c-.1-3.2-.88-2.44,2.31-2.32-.12-3.62-1.03-2.77,2.47-2.77l11.24-13.42,2.69-2.3,2.36-2.29,2.44-2.2,2.37-2.29,2.3-2.35,2.26-2.39,2.22-2.44,2.32-2.32,2.29-2.61,13.5-11.26c0-3.56-.9-2.73,2.65-2.56-.18-3.2-.91-2.38,2.35-2.28l2.39-2.28,2.62-2.08,2.31-2.45,6.53-4.45c0-3.45-.88-2.61,2.53-2.61l2.4-2.55,6.61-4.17c0-3.45-.84-2.55,2.7-2.53l2.6-2.4,4.04-2.16c0-3.34-.8-2.44,2.67-2.41l2.68-2.4,3.85-2.1,2.79-2.85,4.2-2c0-3.28-.77-2.39,2.64-2.36l2.81-2.3,4.26-1.95,2.84-2.56,3.94-2.12c0-3.46-.8-2.42,2.89-2.66l1.21-.1,3.02-2.68,4.24-1.82,2.84-2.55,4.55-1.85c0-3.4-.76-2.36,2.95-2.45l1.31-.13,3.26-2.41,4.11-1.93,3.25-2.24.92-.25c0-3.46-.74-2.29,3.23-2.45l1.29-.11c0-3.45-.73-2.29,3.25-2.36h1.59l2.87-2.44h1.63l3.29-2.25,9.81-3.73,3.56-3.58,1.57.25,3.6-2.32,1.06-.02,3.62-2.26,1.26.03c0-3.49-.72-2.3,3.35-2.3l1.43.03,3.5-2.11,8.03-2.66,3.79-2.05.93-.09,3.95-1.97,1.94.28,4.06-3.24,2.07.51,4.81-2.71,4.82-2.53,3.55.02,3.66-2.14,3.2-.26,3.74-2.03,2.31.37,3.93-2.99,2.29.38,3.89-1.85,2.86-.42,4.39-1.73,3.95.19,6.11-3.69,9.85-1.22,6.54-3.56,4.21.61,5.51-2.51,4.15.27,5.27-2.49,5.5-.11,4.83-1.64,7.08-.5,6.2-2.01,7.34-.43,6.83-1.75,12.63-.56,2.5,2.62,2.31,2.35,2.34,2.3,2.33,2.33,2.35,2.29,2.3,2.36,2.32,2.33,2.32,2.32,2.33,2.33,2.3,2.34,2.35,2.31,2.32,2.32,2.35,2.3,2.33,2.33,2.3,2.35,2.29,2.36,2.36,2.29,2.31,2.35,2.32,2.33,2.31,2.34,2.39,2.26,2.28,2.34,2.48,2.19,2.33,2.32,2.32,2.32,2.33,2.32,2.32,2.33,2.34,2.31,2.32,2.32,2.33,2.33,2.32,2.32,2.31,2.34,2.54,2.14,4.88.54c-.37-3.27-1.13-2.49,2.09-2.51l2.32-2.32,2.31-2.35,2.26-2.38,2.29-2.36,2.29-2.36,2.39-2.27,2.38-2.26,2.38-2.27,2.3-2.36,2.31-2.34,2.27-2.38,2.29-2.37,2.29-2.35,2.38-2.27,2.39-2.27,2.36-2.29,2.32-2.32,2.32-2.32,2.25-2.4,2.29-2.37,2.29-2.36,2.32-2.32,2.4-2.24,2.4-2.26,2.32-2.32,2.31-2.35,2.27-2.38,2.29-2.36,2.29-2.36,2.33-2.32,2.4-2.25c-.07-3.32-.78-2.3,2.88-2.26l8.11.06,7.31,2.5,4.42-.24,5.97,2.11,6.68-.2,6.29,2.9,5.15-.78L811.12,98l4.63-.52,5.41,2.55,2.48-.62,5.08,2.82,4.1-.59,6.6,3.44,18.56,4.17,4.22,2.82,2.24-.39,4.1,1.85,3.05.39,3.72,2.03,3.01.34,4.16,1.98,2.01-.44,4.17,3.27,2.13-.68,4.71,2.79,4.88,2.54,2.22-.58,3.74,3.31,2.21-.33,3.65,1.99,1.37.03,3.36,2.14,7.75,2.77c4.65-.24,3.92-1.63,3.92,2.16l.9.11,3.93,2.14.63.08,3.89,2.19.9.16,3.73,2.18.82.17,3.65,2.16,1.15.15,3.32,2.18,1.58.11,3.04,2.29,1.48.03c4.09-.06,3.34-1.24,3.34,2.32l1.22.04c4.2-.09,3.41-1.27,3.41,2.44l4.06,1.74,3.34,2.48.96.13,3.35,2.42,1.09.17c3.64.14,2.87-.88,2.87,2.5l4.48,1.8,2.98,2.5,1.55.09c3.67.05,2.85-.93,2.85,2.55l4.27,1.9c3.82.26,3.05-.85,3.05,2.6l3.88,2.01,2.84,2.66,4.05,2.02,2.8,2.63,4.51,1.9,2.54,2.84,4.14,2.07,2.62,2.32c3.56-.02,2.76-.95,2.76,2.45l3.82,2.2,2.68,2.36c3.52-.06,2.71-.97,2.71,2.42l4.09,2.13,2.52,2.42c3.38.1,2.55-.77,2.55,2.59l6.5,4.34,2.47,2.47,2.52,2.17c3.38.03,2.54-.83,2.54,2.55l9,6.55,2.41,2.54,2.33,2.32,2.46,2.21c3.17-.12,2.39-.87,2.29,2.34,3.34-.1,2.4-.85,2.4,2.66,9.09,6.71,25.52,23.05,32.15,32.16,3.51,0,2.76-.94,2.66,2.4l2.3,2.34,2.21,2.45,2.31,2.36,2.63,2.33,6.44,9.09c3.43,0,2.64-.9,2.64,2.42l2.13,2.58,2.53,2.42,2.17,3.9c3.43,0,2.53-.83,2.5,2.7l2.56,2.44,4.14,6.79c3.39,0,2.55-.84,2.49,2.55l2.3,2.75,2.18,3.93,2.87,2.73,2.04,3.97c3.33,0,2.42-.78,2.36,2.71l2.34,2.72,1.93,4.26,2.75,2.7,1.92,4.22,2.63,2.85,2.07,3.86c3.56,0,2.42-.78,2.56,3.19l.07,1.23,2.65,2.94,1.84,4.43,2.45,2.95,1.88,4.41c3.41,0,2.4-.77,2.38,2.93l.18,1.37,2.34,3.22.18,1.04,2.51,3.3.02,1.05,2.48,3.34,4.2,8.91,2.21,3.15.1,1.57,2.14,3.27.15,1.33,2.15,3.4.19,1.08,2.14,3.63.2.92,2.14,3.79,2.95,7.28,2.27,3.41-.05,1.62,2.16,3.3.02,1.61,2.06,3.36.02,1.74c3.46,0,2.34-.71,2.08,3.25l.64,2.78,1.94,4.23-.28,1.37,2.74,4.72,2.59,4.78-.6,2.06,3.26,4.4-.49,1.6,1.94,4.24.47,2.84,1.95,4.07.38,3.07,1.89,3.9.36,3.09,1.86,3.99.41,2.86,1.71,4.35-.06,3.75,2.9,6.83,2.8,6.86-.36,3.9,2.6,5.63-.28,3.79,2.57,5.46-.69,4.78,3.26,5.74-.28,4.47,1.63,4.9.04,6.25,2.7,6.59-.5,6.89,2.86,9.08-.59,5.05,2.56,9.7-.38,8.9c3.57,4.97,3.02,9.26,3.07,16.43v91.89c-.06,5.65.49,13.22-3.07,16.44l.38,8.91-2.56,9.7.59,5.05-2.86,9.08.5,6.89-2.7,6.59-.04,6.24-1.63,4.9.22,4.26-3.2,5.95.69,4.79-2.57,5.46.28,3.79-2.6,5.63.36,3.9-2.8,6.86-2.9,6.83.06,3.75-1.71,4.35-.41,2.86-1.86,3.99-.36,3.1-1.89,3.9-.38,3.07-1.95,4.07-.47,2.84-1.94,4.24.49,1.61-3.26,4.4.6,2.06-2.59,4.78-2.74,4.72.28,1.37-1.94,4.23-.64,2.79c.26,3.97,1.38,3.25-2.08,3.25l-.02,1.74-2.06,3.36-.02,1.61-2.16,3.3.05,1.62-2.27,3.41-2.95,7.28-2.14,3.79-.2.91-2.14,3.63-.19,1.08-2.15,3.39-.15,1.34-2.14,3.27-.1,1.57-2.21,3.15-4.2,8.91-2.48,3.34-.02,1.04-2.51,3.3-.18,1.04-2.34,3.22-.18,1.37c.02,3.71,1.03,2.93-2.38,2.93l-1.88,4.41-2.45,2.95-1.84,4.43-2.65,2.95-.07,1.22c-.15,3.98,1,3.2-2.56,3.2l-2.07,3.86-2.63,2.85-1.92,4.22-2.75,2.7-1.93,4.26-2.34,2.72c.06,3.49.97,2.7-2.36,2.7l-2.04,3.97-2.87,2.73-2.18,3.93-2.3,2.74c.06,3.53.96,2.71-2.44,2.71l-4.19,6.63-2.56,2.45c.03,3.52.93,2.69-2.5,2.69l-2.17,3.9-2.53,2.41-2.13,2.58c0,3.32.8,2.42-2.64,2.42l-6.44,9.09-2.63,2.33-2.31,2.36-2.21,2.45-2.3,2.34c.11,3.34.86,2.4-2.66,2.4-6.63,9.11-23.06,25.44-32.15,32.16,0,3.51.94,2.76-2.4,2.66.1,3.2.89,2.45-2.29,2.33l-2.46,2.21-2.33,2.32-2.41,2.54-9,6.55c0,3.38.84,2.52-2.54,2.55l-2.52,2.17-2.47,2.47-6.5,4.34c0,3.36.83,2.49-2.55,2.59l-2.52,2.42-4.09,2.13c0,3.39.81,2.48-2.71,2.42l-2.68,2.36-3.82,2.19c0,3.41.81,2.47-2.76,2.45l-2.62,2.32-4.14,2.07-2.54,2.84-4.51,1.9-2.8,2.62-4.05,2.02-2.84,2.67-3.88,2.01c0,3.46.77,2.35-3.05,2.61l-4.27,1.89c0,3.49.81,2.51-2.85,2.55l-1.55.09-2.98,2.5-4.48,1.8c0,3.38.77,2.37-2.87,2.49l-1.13.16-3.29,2.43-.98.13-3.34,2.48-4.06,1.74c0,3.72.79,2.53-3.41,2.45l-1.22.04c0,3.55.74,2.38-3.34,2.32l-1.48.03-3.04,2.3-1.58.11-3.32,2.18-1.15.15-3.65,2.16-.82.17-3.73,2.18-.9.16-3.89,2.19-.63.08-3.93,2.14-.9.1c0,3.79.72,2.4-3.92,2.16l-7.75,2.77-3.36,2.14-1.37.03-3.65,1.99-2.21-.33-3.74,3.3-2.22-.57-4.84,2.6-4.9,2.66-1.98-.62-4.17,3.29-2.01-.45-4.16,1.99-3.01.34-3.72,2.02-3.05.39-4.1,1.84-2.24-.38-4.22,2.82-18.56,4.17-6.6,3.45-4.1-.59-5.08,2.82-2.48-.62-5.41,2.55-4.63-.51-6.06,3.18-5.15-.78-6.29,2.9-6.68-.2-5.97,2.11-20.58,1.8-13.86,3.53-4.14-.76L729.2,1274l-12.95-.11c-11.57,5.08-62.59,4.81-74.6.13l-8.13.31-13.75-2.12-11.36-.55-7.79-1.48-11.27-.93-6.83-1.75-7.34-.43-6.2-2.02-7.08-.5-4.83-1.64-5.18-.24-5.73-2.31-4,.21-5.51-2.51-4.21.61-6.54-3.56-9.95-1.16-6.08-3.67-3.88.11-4.39-1.73-2.86-.42-3.89-1.85-2.29.38-3.93-2.99-2.31.37-3.74-2.03-3.2-.26-3.66-2.14-3.55.02-4.82-2.53-4.81-2.71-2.07.52-4.06-3.24-1.94.28-3.95-1.97-.93-.1-3.79-2.04-8.03-2.66-3.5-2.11-1.43.04c-4.07,0-3.35,1.19-3.35-2.3l-1.26.03-3.62-2.26-1.06-.02-3.6-2.32-1.57.25-3.56-3.58-9.81-3.73-3.29-2.25h-1.63l-2.87-2.44h-1.59c-3.98-.07-3.25,1.09-3.25-2.36l-1.29-.11c-3.97-.15-3.23,1.01-3.23-2.45l-.92-.26-3.25-2.24-4.11-1.93-3.26-2.41-1.31-.13c-3.72-.09-2.95.95-2.95-2.45l-4.55-1.85-2.84-2.55-4.24-1.82-3.02-2.68-1.21-.1c-3.69-.25-2.89.79-2.89-2.66l-3.94-2.12-2.84-2.56-4.26-1.95-2.81-2.3c-3.42.03-2.64.92-2.64-2.36l-4.2-1.99-2.79-2.85-3.85-2.1-2.68-2.41c-3.47.03-2.67.93-2.67-2.41l-4.04-2.16-2.6-2.41c-3.54.02-2.7.93-2.7-2.53l-6.61-4.17-2.4-2.55c-3.4,0-2.53.84-2.53-2.61l-6.53-4.45-2.31-2.46-2.62-2.08-2.39-2.28c-3.27.11-2.53.92-2.35-2.28-3.55.17-2.65,1-2.65-2.56l-13.5-11.26-2.29-2.61-2.32-2.32-2.22-2.43-2.26-2.39-2.3-2.35-2.37-2.29-2.44-2.2-2.36-2.29-2.69-2.29-11.24-13.42c-3.5,0-2.59.84-2.47-2.77-3.19.12-2.41.89-2.31-2.32l-2.29-2.39-2.06-2.65-2.48-2.28-4.53-6.4c-3.43,0-2.53.84-2.53-2.66l-2.54-2.47-4.22-6.65c-3.36,0-2.5.83-2.53-2.55l-2.39-2.64-4.2-6.75-2.74-2.69-2.17-3.86-2.86-2.64-3.93-6.9-2.79-2.58-1.86-4.47-2.69-2.66-1.97-4.08c-3.54,0-2.47.82-2.69-2.99l-.06-1.24c-3.38,0-2.42.77-2.31-2.83l-2.16-2.93-.08-1.38-2.55-2.93-1.88-4.42-2.47-3-.14-1.08-2.43-3.54-1.87-3.99-2.36-3.15-.17-1.09c-3.48,0-2.32.74-2.42-3.25l-.03-1.43c-3.4,0-2.35.77-2.49-2.95l.06-1.62L150.84,958,139.2,933.57l-2.22-3.81.05-1.24c-3.51,0-2.28.71-2.26-3.46l.05-1.49c-3.38,0-2.29.72-2.29-3.1v-1.59l-2.04-3.39-2.72-7.86-1.97-4.02.32-1.61-3.34-4.14.28-1.53-1.92-4.39.21-1.52-3.24-4.44.44-1.47-1.98-4.34-.44-2.9-2.03-3.72-.36-3.18-1.9-3.89-.41-3.04-1.79-4.13-.41-2.87-1.74-4.29.07-3.61-2.95-6.68-2.92-6.9.54-4.06-2.68-5.43.84-2.6-3.46-6,1.11-3.57-3.23-6.01.86-5.37-2.92-6.22.56-5.06-2.73-6.88-.05-6.01L88.78,771l.36-8.46c-3.6-5.46-2.9-5.75-3.69-13.74l.54-3.76-2.01-11.4.57-11.16c-6.43-11.05-6.42-76.1,0-87.13ZM534.44,428.88l-1.61,4.77-.55,2.8-2.07,3.42-.09,1.42-2.21,3.21-.08,1.64-2.17,2.75c.06,3.56.99,2.77-2.4,2.77l-2.1,3.96-2.75,2.26-2.32,2.32-2.26,2.39-2.43,2.62-3.97,2.08-2.74,2.73-4.55,1.77c0,3.49.77,2.47-3.04,2.32l-2.99.56-4.31,1.93-.47.05-4.28,2.05c-2.36,14.5-2.64,141.18,1.02,148.59l4.94,3.15,1.4-.34,4.1,2.14,5.49,2.4,3.23,2.51,1.37.11,2.65,2.32c3.46-.02,2.6-.89,2.6,2.55l8.8,8.91c3.46,0,2.65-.89,2.61,2.48l2.34,2.6.04,1.58,2.68,2.74,4.26,11.07,1.75,4.19c.92,7.17,30.37,3.87,37.81,3.87,7.02,0,14,.01,21.02.09,8.23.1,15.93,2.01,19.21-3.8l1.66-4.76.05-.4,2.01-4.31,2.44-5.52,2.48-3.13,1.99-4.29,2.96-2.39,8.87-8.89c0-3.48-.88-2.64,2.55-2.59l2.71-2.29,1.37-.11,3.17-2.59,5.03-1.27,3.49-3.74,3.59.15,4.24-2.05,3.62.22,7.7-2.65,13.53.01,7.73,2.65,3.34-.15,4.6,1.97,3.42-.05,3.74,3.57,4.97,1.41,3.16,2.53,4.01,2.09,2.48,2.57c3.46.02,2.6-.85,2.6,2.6L730,648.5c3.51,0,2.67-.89,2.63,2.6l2.5,2.51,1.99,4.31,2.45,3.04.09,1.18,2.23,3.58.11.92,1.95,4.13-.04,1.21,2.56,5.49c12.35,6.79,62.99,2.27,81.53,2.04l2-3.86.41-2.88,1.94-3.97,2.25-6.03,2.43-3.17.06-1.28,2.71-2.85,4.24-6.5,2.59-2.4,2.33-2.34,2.32-2.63,7.05-3.95c0-3.45-.8-2.44,2.88-2.57l1.06-.17,3.73-2.2.7-.17,4.19-2.07,1.15.06,5.11-2.97c6.1-12.14.58-122.72,2.08-147.94-4.31,0-3.45,1.2-3.45-2.68l-2.77-.55-3.91-1.92-1.09-.06-3.45-2.21-1.49-.02-2.97-2.47-4.26-1.96-2.66-2.9c-5.93-4.58-6.51-5.08-11.03-11.2-3.36,0-2.44.81-2.49-2.69l-2.18-2.88-.18-1.03c-3.52,0-2.32.74-2.5-3.3l-.02-1.11-2.31-3.49.03-1.23c-3.7,0-2.3.68-2.01-3.95l-.09-3.76-2.54-4.57,2.43-36.83,2.02-3.65,4.58-10.6,2.7-3.02,2.24-3.81,2.36-2.66,2.32-2.32,2.29-2.36,2.4-2.25,2.54-2.43,4.17-2.09,3.14-2.44.94-.17,3.68-1.84,4.03-3.05,2.34.63,4.4-3.14,2.9.85,6.92-3.01,30.03,2.27,4.6,3.12,1.55-.27,4.01,2.16.75.12,3.66,2.29,1.03.24,2.87,2.5,6.91,4.02,2.53,2.52,2.32,2.32,2.38,2.7,4.24,6.48c3.49,0,2.45-.81,2.66,2.9l.09,1.22c3.44,0,2.33-.75,2.51,3.09l-.05,1.49,2.22,3.31-.03,1.51c3.65,0,2.31-.68,1.98,3.78l.33,3.04,1.71,4.46.39,26.07-2.14,5.67-.11,3.52-1.93,3.8-.5,3.1c.15,4.04,1.28,3.28-2.3,3.28l-.08,1.31c.1,4.06,1.24,3.28-2.37,3.28l-2.01,3.86-2.4,2.78c-.06,3.34.78,2.49-2.59,2.49l-6.27,6.68c0,3.47.85,2.58-2.68,2.54l-2.44,2.49-4.21,1.97c0,3.41.75,2.32-3.04,2.49l-1.36.07-3.51,2.14-1.44.02-3.72,1.98-2.58.58-3.94,2.07,2.45,148.9,4.98,2.9,1.39-.07,4.26,1.94.64.18,3.3,2.32,4.19,1.86,2.86,2.72c7.52,4.53,9.26,5.79,13.71,13.34,3.45,0,2.56-.83,2.42,2.72l2.18,2.97.11,1.07c3.55,0,2.32-.73,2.39,3.44v1.22l2.28,3.32v1.5c3.63,0,2.36-.7,2.06,3.61l-.25,4.3,2.95,6.16L965,708.73l-2.58,4.54.28,2.38-1.89,4.01-.47,2.96c.16,4.23,1.38,3.49-2.24,3.49l-.03,1.22c.02,4.06,1.15,3.26-2.5,3.26l-1.93,3.96-2.48,2.63c0,3.47.88,2.62-2.55,2.62l-8.72,8.76-2.69,2.94-4.18,1.93-3.16,2.42L924,758.22l-4.15,1.89-1.73-.26-4.45,3.48-.18,103.9,3.83,2.19,3.24.28,3.6,2.12,1.42-.09,3.27,2.37,1.38-.03,2.96,2.6,1.21.17,2.67,2.29c3.41.01,2.61-.87,2.61,2.44l11.13,11.32c3.48,0,2.47-.84,2.85,2.71l1.98,3.89c3.52,0,2.42-.78,2.49,3.13l.04,1.48c3.57,0,2.31-.71,2.17,3.56l4.85,23.4.05,7.81-.18,9.63-2.51,4.78-.13,3.78c.36,4.58,1.73,3.89-1.97,3.89l.04,1.4-2.21,3.52v1.36c-.17,3.76.9,3-2.53,3l-.11,1.29-2.15,2.89c0,3.46.89,2.63-2.51,2.63l-13.54,13.4-2.65,2.79-4.27,1.84c0,3.66.83,2.61-3.09,2.53l-7.95,2.58-4.1,1.81-4.05-.13-7.07,2.58-19-.52-4.88-1.63-2.89-.3-3.91-1.83-3.04-.44c-4.21.22-3.49,1.44-3.49-2.13h-1.53c-3.99.06-3.22,1.18-3.22-2.39l-1.24-.12-2.99-2.07c-3.54.03-2.74.96-2.74-2.43l-3.7-2.28-2.64-2.46-2.27-2.38-2.7-2.39-4.25-6.48c-3.45,0-2.4.8-2.71-2.89l-.06-1.13-2.48-3.3-2.2-6.07-2.03-3.67-.33-3.02-1.68-4.54.13-4.7-3.2-5.68c.23-1.83.08-5.72.37-7.27,1.12-6.01,1.49-5.05,2.06-6.4l.22-5.1,2.49-4.81.01-3.74,2.08-3.62-.05-1.42,2.24-3.41-.05-1.41c.23-3.77-.86-3.01,2.56-3.01l.14-1.33c.24-3.62-.79-2.83,2.63-2.83,5.73-8.89,6.8-10.26,15.7-15.94l2.84-2.69,1.05-.11,3.18-2.16,3.26-1.97,2.86-.6,3.39-2.19,1.43.05,4.01-1.97,1.17-103.6L874.53,760l-1.5.26-4.23-1.93-10.41-4.83-2.64-2.34c-3.52.03-2.7.94-2.7-2.49l-11.08-11.04c-3.34,0-2.34.76-2.41-2.86l-2.21-2.84-.17-1.03c-3.51,0-2.29.73-2.45-3.38v-1.2l-2.28-3.41.03-1.35-2.02-3.74c-2.02-4.02-.37-2.38-4.89-3.65l-78.08.02L743.5,718l.17,1.78-1.91,4.01-.13,1.01-2.22,3.43-.07,1.44c-.06,3.65.92,2.84-2.56,2.84l-4.05,6.81-2.61,2.38-2.2,2.47-2.48,2.2L723.1,749l-4.04,2.1c0,3.34.77,2.4-2.76,2.36l-2.8,2.1-1.77.04-3.06,2.22-1.5.1-3.64,1.93-2.23-.18-4.28,2.84-5.76.09c-8.94,4-15.61,3.95-24.51.04l-4.83-.45-4.93-1.6-2.52-.67-3.7-1.95-1.33-.06-3.17-2.25-1.67-.07c-3.73.01-2.93,1.01-2.93-2.48l-6.73-4.05-2.41-2.61-2.31-2.34-2.35-2.31-2.26-2.4-2.44-2.54-1.94-4.29c-3.36,0-2.33.77-2.52-2.87l-.14-1.42-2.29-3.32-.14-.94-1.89-4.28.19-1.45-3.87-4.04-74.73.07-3.89,3.71.33,2.05-2.01,3.65-.1,1.42-2.2,3.16-.06,1.72c-.2,3.6.8,2.81-2.6,2.81l-1.97,3.97-2.52,2.56-2.31,2.36-2.28,2.37-2.3,2.35-2.32,2.33-2.67,2.36-4.15,1.95c0,3.48.79,2.44-2.99,2.45l-1.6.12-3.16,2.21-1.44.06-3.56,2.01-2.68.59-4.08,1.48.36,105.73,3.67,1.72,2.87.42,3.8,2.08,1.37-.03c4.07.06,3.34-1.14,3.34,2.37l1.15.13,2.99,2.54,3.99,2.05,2.58,2.46,2.56,2.14,2.32,2.32,2.36,2.29,2.23,2.44,2.53,2.49,2.01,4.1c3.41,0,2.36-.78,2.6,2.91l.03,1.42,2.26,3.38.04,1.22,2.01,3.76.02,1.22,1.86,3.96-.65,4.34c6.98,3.49,4.02,24.19,1.05,29.89l-.42,4.98-1.74,4.3-4.39,11.07-2.58,2.74-.08,1.37-2.23,2.82-2.2,2.48c.12,3.45.91,2.51-2.66,2.51l-4.11,4.11c0,3.49.88,2.63-2.59,2.6l-2.44,2.25-2.86,2.17-1.06.2c0,3.42.77,2.34-2.98,2.62l-1.53-.03-3.13,2.35-1.5-.03-3.41,2.1-1.67-.04-3.82,1.88-4.88.55-6.59,1.84-27.16-1.78-4.12-2.86-2.28.37-3.3-2.17-1.55.03-3.16-2.35h-1.48c-3.8-.17-3,.9-3-2.61l-3.91-2.1-2.48-2.49-2.49-2.2-2.32-2.32-2.32-2.32-2.24-2.43-2.45-2.6-1.96-4.21-2.47-3.02-.17-1.08-2.22-3.65-.13-.74-2.01-4.32.41-1.81-3.77-5.6,1.27-3.75c-5.35-4.27-4.47-21.43.07-26.62l-1.01-3.31,2.95-4.72.15-3.14,2.05-4.26.14-.65,2.19-3.82.21-1.04,2.44-2.95,3.98-6.9,2.59-2.5,2.33-2.32,2.37-2.28,2.62-2.5,3.77-2.17c0-3.38-.77-2.41,2.82-2.36l3.17-2,.88-.18c0-3.61-.74-2.36,3.51-2.38l1.05-.03c0-3.65-.7-2.29,3.83-2.1l3.08-.42,3.64-1.7.5-105.91-4.22-1.43-2.7-.64-3.29-2.03-1.72-.04c-3.96.08-3.24,1.22-3.24-2.23l-4.41-1.79-2.58-2.74-4.13-2.12-2.45-2.57-2.31-2.36-2.32-2.32-2.66-2.4-2.12-4.05c-3.34,0-2.35.74-2.24-2.91l-2.11-2.74-.23-1.31-2.22-3.63-.08-.73-2.05-4.13-2.41-12.95c-4.6-6.86-4.28-16.76-.24-23.4l-.3-6.23,2.94-4.99-.22-1.5,2.01-4.31.07-.7,2.27-3.8.17-.87,2.48-3.14,1.99-4.12,2.43-2.67c-.04-3.32-.81-2.4,2.67-2.4l4.06-4.25c0-3.56-.92-2.74,2.54-2.67l2.58-2.48,4.12-2.01,3.26-2.49.83-.09,3.79-2.3.69-.07,4.2-2.1,1.24.18,4.71-2.76,1.11-149.51-3.74-1.6-8.11-2.5c-3.84.16-3.08,1.21-3.08-2.27l-4.47-1.77c-4.05,1.28-2.78,1.77-2.78-2.77l-3.95-2.17-2.6-2.38-2.24-2.42-2.32-2.33-2.67-2.38-2.09-3.97-2.23-3.03-2.15-2.74-.22-1.28-2.34-3.43-.08-.77-2.03-4.11.04-1.39-2.79-5.24.52-4.55-2.91-9.28,2.14-22.71,2.92-4.86-.33-1.66,2.2-3.95.02-.77,2.29-3.86.05-.8,2.46-3.45.24-1.17,2.23-2.69c.09-3.44-.82-2.63,2.54-2.63l8.7-8.89c0-3.45-.84-2.55,2.69-2.49l2.67-2.4,4.25-1.91,3.36-2.23,1.64.11,3.53-3.67,2.66.84,4.35-2.99,3.11.8,6.89-2.91,20.31.26,5.75,2.44,3.78-.16,4.84,2.95,1.45.02,4.05,2.01.85.23,3.3,2.27,4.11,2.02c3.48.29,2.66-.68,2.66,2.73l11.55,10.93c3.43,0,2.59-.87,2.55,2.54l2.32,2.72.04,1.46,2.61,2.84,2.24,6.07,1.94,3.87.09,1.21,1.75,4.12-.63,4.16c6.54,6.17,4.48,20.87,1.32,28.11l-.55,4.63ZM577.3,170.15l-5.2-.61-4.95,2.51-6.2-.2-5.4,2.42-3.28.21-4.7,1.63-4.84.62-6.21,1.87-6.38,3.2-1.75-.66-5.67,2.58-10.07,2.51-4.03,1.93-3.18.34-3.58,1.98-8.34,2.4-3.84,1.96-2.47.68-4.4,1.97-1.27-.2-4.04,3.38-1.96-.42-3.7,2.2-1.22-.05-3.6,2.18h-1.33c0,3.49.71,2.31-3.36,2.19l-6.47,2.19c0,3.49.75,2.42-3.13,2.23l-10.74,4.69-3.51,2.19-.76.23-3.78,2.18-.9.17c0,3.58.76,2.41-3.32,2.43l-1.28.08c0,3.43.74,2.32-3.12,2.38l-1.7.02-2.91,2.42-4.54,1.8c0,3.34.77,2.36-2.81,2.44l-1.37.18-3.16,2.45-3.98,1.99c0,3.45.79,2.41-2.93,2.56l-1.37.11-2.83,2.71-4.34,1.87-2.84,2.69-4.15,1.94-2.94,2.23-2.63,2.2-1.11.29c0,3.39.77,2.4-2.89,2.36l-2.65,2.38-4.03,2.08c0,3.36.8,2.44-2.69,2.47l-2.56,2.42-4.2,2.08-2.56,2.45-2.63,2.11-2.51,2.46-3.94,2.21c0,3.4.86,2.57-2.5,2.57l-2.41,2.27-2.49,2.54-11.33,8.79c0,3.43.9,2.63-2.4,2.66l-2.3,2.35-2.4,2.26-2.35,2.29-2.34,2.31-2.4,2.25-2.38,2.27-2.37,2.28-2.23,2.42-2.33,2.33-2.23,2.42-2.32,2.32-2.34,2.31-2.22,2.44-2.32,2.34-2.7,2.32-8.77,11.38-2.55,2.49-2.29,2.38c-.02,3.38.83,2.54-2.53,2.54l-4.34,6.39-2.5,2.6c0,3.45.89,2.63-2.48,2.63l-2.11,4.12-2.32,2.64c-.03,3.48.87,2.64-2.54,2.64l-2.11,3.9-2.32,2.76c-.02,3.61.97,2.85-2.38,2.85l-2.09,3.93-2.63,2.76-1.97,4.28-2.68,2.79-1.9,4.25c-.28,3.7.78,2.92-2.66,2.92l-1.98,3.79-2.55,3.38-.17,1.05-2.41,3.09-4.42,8.77-2.43,3.03-.08,1.51c-.04,3.86,1.04,3.09-2.45,3.09l-4.11,8.79-2.36,3.57-.06.89-2.29,3.7-9.68,21.63c.1,5.18,1.83,5.1-2.2,3.77l-.02.83-2.06,4.15.28,1.48-3.37,4.02.13,1.61-1.85,4.31.15,1.42-3.17,4.06.33,1.99-1.84,4.02-.5,3.05-1.92,3.78-.43,2.88c.42,4.71,1.84,4.03-1.93,4.03l.49,2.26-3.16,4,.73,2.64-2.87,4.91.77,2.31-2.95,6.78-2.87,6.77.94,2.62-3.36,6.42.44,4.53-2.44,5.1.32,4.53-2.53,4.8.22,6.46-2.42,5.36.09,6.03-2.15,6.4-1.6,22.88-3.34,20.34c.39,2.33.39,81.15,0,83.48l3.34,20.34,1.6,22.87,2.15,6.41-.09,6.03,2.42,5.36-.22,6.46,2.53,4.8-.32,4.53,2.44,5.1-.44,4.52,3.36,6.42-.94,2.62,2.87,6.77,2.38,7.27,2.98,6.42-1.04,2.95,3.16,4-.49,2.26c3.76,0,2.34-.68,1.93,4.02l.43,2.88,1.92,3.78.5,3.05,1.84,4.02-.33,1.99,3.17,4.06-.15,1.42,1.85,4.31-.13,1.61,3.37,4.02-.28,1.49,2.06,4.14.02.83c3.65,0,2.31-.71,2.2,3.77l9.68,21.63,2.29,3.7.06.89,2.36,3.57,4.11,8.79c3.49,0,2.41-.77,2.45,3.09l.08,1.51,2.43,3.03,4.42,8.77,2.41,3.1.17,1.05,2.55,3.38,1.98,3.79c3.43,0,2.37-.79,2.66,2.92l1.9,4.25,2.68,2.8,1.97,4.28,2.63,2.76,2.09,3.93c3.34,0,2.35-.76,2.38,2.85l2.32,2.76,2.11,3.89c3.41,0,2.51-.83,2.54,2.65l2.32,2.64,2.11,4.12c3.37,0,2.48-.82,2.48,2.63l2.5,2.6,4.34,6.39c3.36,0,2.5-.84,2.53,2.54l2.29,2.38,2.55,2.49,8.77,11.38,2.7,2.33,2.32,2.33,2.22,2.44,2.34,2.3,2.32,2.33,2.23,2.42,2.33,2.33,2.23,2.42,2.37,2.28,2.34,2.31,2.43,2.22,2.34,2.31,2.35,2.3,2.4,2.26,2.3,2.35c3.3.03,2.4-.77,2.4,2.66l11.33,8.79,2.49,2.54,2.41,2.27c3.36,0,2.5-.83,2.5,2.57l3.94,2.21,2.51,2.46,2.63,2.11,2.56,2.45,4.2,2.09,2.56,2.42c3.49.03,2.69-.89,2.69,2.47l4.03,2.08,2.65,2.38c3.66-.04,2.89-1.02,2.89,2.36l1.11.29,2.63,2.2,2.94,2.24,4.15,1.94,2.84,2.7,4.34,1.87,2.83,2.71,1.37.11c3.73.15,2.93-.89,2.93,2.56l3.98,1.98,3.16,2.45,1.37.18c3.58.08,2.81-.9,2.81,2.43l4.54,1.81,2.91,2.4,1.78.03c3.71.07,2.95-.96,2.95,2.42l1.38.03c4.11-.07,3.32-1.23,3.32,2.44l.9.17,3.78,2.18.81.26,3.3,2.23,10.9,4.62c3.88-.19,3.13-1.25,3.13,2.23l6.47,2.2c4.07-.12,3.36-1.3,3.36,2.19h1.33l3.6,2.18,1.22-.06,3.7,2.2,1.96-.41,4.04,3.38,1.27-.2,4.4,1.97,2.47.68,3.84,1.96,8.34,2.4,3.58,1.98,3.18.34,4.03,1.93,10.07,2.51,5.67,2.56,1.82-.67,6.32,3.22,6.21,1.87,4.84.61,4.7,1.63,3.28.21,5.4,2.42,6.2-.19,4.95,2.51,5.2-.61,6.31,2.98,6.66-.41,7.5,2.61,5.31-1.13,15.74,3.09,22.77,3.25,74.45-.35,17.17-2.81,12.42.04,8.29-2.45,7.78.03,6.48-2.17,7.2-.33,4.66-1.74,5.74-.1,5.23-2.4,4.34.27,5.13-2.46,4.32.28,5.12-2.53,4.15.28,7.01-2.77,6.77-2.94,3.49.18,4.35-1.98,2.9-.23,3.97-2.03,3.08-.3,3.8-1.99,8.35-2.35,3.61-1.95,3-.53,4.23-1.9,1.52.26,4.09-3.34,1.43.26,4.39-1.93.57-.13,4.22-2,2.53-.72,3.36-2.22,1.69.03,3.3-2.17,1.55-.02,3.23-2.16,1.73-.01,3.1-2.19,1.48-.08,3.39-2.17,1.13-.18,3.67-2.12.79-.2,3.79-2.14.84-.2c0-3.59-.76-2.38,3.36-2.49l1.08-.03,3.25-2.39,1.57-.02,3.04-2.43,4.45-1.77c0-3.38-.75-2.32,2.99-2.4l1.4-.15,3.17-2.45,4.22-1.89c0-3.41-.75-2.34,3.01-2.45l1.09-.17c0-3.45-.78-2.35,2.99-2.66l4.16-1.9c0-3.48-.82-2.45,2.86-2.71l4.26-1.93,2.84-2.6,4.1-2.03,2.76-2.77,3.93-1.99c0-3.42-.8-2.48,2.78-2.45l2.64-2.33,4.19-2.11c0-3.31-.79-2.41,2.65-2.42l2.56-2.41,6.56-4.3c0-3.42-.86-2.57,2.55-2.57l2.54-2.4,6.51-4.4c0-3.35-.85-2.51,2.47-2.58l2.41-2.25,2.51-2.55,15.76-13.58c0-3.42-.87-2.59,2.51-2.59l2.34-2.31,2.33-2.32,2.32-2.32,2.32-2.33,2.3-2.34,2.7-2.32,15.79-18.26,2.58-2.5,2.16-2.53c-.04-3.27-.81-2.38,2.58-2.38l4.37-6.53,2.46-2.57c.02-3.45-.87-2.62,2.53-2.62l4.32-6.51,2.43-2.52,2.39-2.71,2.07-4.19,2.4-2.57c-.06-3.63-1.03-2.85,2.38-2.85l.17-1.11,2.28-2.72,2.32-2.82,2.06-4.08,2.65-2.8,1.95-4.25c.26-3.69-.8-2.91,2.64-2.91l1.88-4.1c.35-3.85-.79-3.09,2.65-3.09l.16-1.18,2.47-3.03,1.94-4.02,2.4-3.3.12-1.31,2.44-2.87,4.2-9.19,2.41-3.17.03-1.27,2.39-3.41.08-.97,2.27-3.65.16-.89,2.18-3.66.15-.96,2.18-3.58.12-1.16,2.2-3.38.07-1.39,2.1-3.5.02-1.55,2.22-3.25,2.79-7.54,2-4.25-.26-1.47,2.79-4.43,2.59-4.83-.54-2.28,3.19-3.8-.35-2.28,1.91-3.83.46-3.02,1.85-3.91.46-3.02,1.86-4.24-.48-1.99,3.18-4.1-.98-2.77,2.94-6.6,2.97-6.73-.19-3.98,2.55-5.09.09-3.76,1.59-4.65,4.56-24.72,2.51-5.16-.02-7.82,2.13-6.57-.05-7.75,2.41-8.5-.86-9.05,4.15-24.26.07-61.6c-2.94-4.68-3.91-16.97-4.15-24.24l.78-9-2.41-8.5.05-7.75-2.13-6.56.02-7.82-2.51-5.16-1.95-16.06-2.42-5.3-.19-3.36-1.59-4.65-.09-3.76-2.55-5.09.19-3.97-2.97-6.73-2.94-6.6.98-2.77-3.18-4.1.48-1.99-1.86-4.24-.46-3.02-1.85-3.91-.46-3.01-1.91-3.84.35-2.28-3.19-3.8.54-2.28-2.59-4.83-2.79-4.43.26-1.47-2-4.25-2.79-7.55-2.2-3.25-.02-1.64-2.14-3.3-.07-1.49-2.16-3.38-.12-1.21-2.19-3.52-.15-.96-2.18-3.65-.16-.9-2.27-3.65-.08-.98-2.45-3.18-.02-1.5-2.36-3.17-4.2-9.19-2.44-2.86-.12-1.31-2.4-3.31-1.94-4.02-2.47-3.03-.16-1.18c-3.44,0-2.3.76-2.65-3.09l-1.88-4.1c-3.43,0-2.38.79-2.64-2.91l-1.95-4.25-2.65-2.8-2.06-4.08-2.32-2.82-2.28-2.72-.17-1.11c-3.41,0-2.44.78-2.38-2.86l-2.4-2.57-2.07-4.18-2.39-2.71-2.43-2.52-4.32-6.51c-3.4,0-2.51.83-2.53-2.62l-2.46-2.57-4.37-6.52c-3.8,1.62-2.62,1.96-2.58-2.38l-2.16-2.53-2.58-2.5-15.79-18.26-2.7-2.32-2.3-2.35-2.32-2.33-2.32-2.32-2.33-2.32-2.34-2.31c-3.38,0-2.51.83-2.51-2.59l-15.76-13.58-2.51-2.56-2.41-2.25c-3.32-.06-2.47.77-2.47-2.58l-6.51-4.39-2.54-2.4c-3.41,0-2.55.85-2.55-2.57l-6.56-4.3-2.56-2.41c-3.44-.02-2.65.89-2.65-2.42l-4.19-2.11-2.64-2.33c-3.58.04-2.78.98-2.78-2.45l-3.93-1.99-2.76-2.77-4.1-2.04-2.84-2.6-4.26-1.93c-3.67-.26-2.86.77-2.86-2.71l-4.16-1.9c-3.76-.3-2.99.79-2.99-2.66l-1.09-.17c-3.76-.1-3.01.97-3.01-2.44l-4.22-1.9-3.17-2.45-1.4-.15c-3.74-.08-2.99.98-2.99-2.4l-4.45-1.77-3.04-2.43-1.57-.02-3.25-2.39-1.08-.02c-4.11-.11-3.36,1.09-3.36-2.5l-.84-.2-3.79-2.14-.79-.2-3.67-2.12-1.13-.18-3.39-2.17-1.48-.09-3.1-2.21-1.7-.02-3.29-2.14-1.51-.02-3.3-2.17-1.69.03-3.36-2.22-2.53-.72-4.22-2-.57-.13-4.39-1.94-1.43.27-4.09-3.34-1.52.26-4.23-1.9-3-.52-3.61-1.95-1.38-.05-4-1.86-2.97-.44-3.8-1.99-3.08-.3-4.06-2-2.66-.31-4.56-1.92-3.45.18-6.77-2.95-6.9-2.87-4.26.39-5.12-2.53-4.32.28-5.13-2.46-4.34.27-5.23-2.4-5.65-.12-4.76-1.72c-14.56,2.05-76.23,78.5-93.94,87.98L599.9,174.6c-6.25-6.53-4.65-7.19-16.28-7.36l-6.31,2.97ZM.01,676.74c0,77.36,12.42,151.61,35.73,220.09,22.97,67.47,47.22,111.24,86.14,169.69,71.43,107.3,185.49,194.39,305.69,243.16,75.36,30.57,167.85,48.48,249.21,48.48,26.35,0,53.71-3.08,79-4.73,23.83-1.55,50.9-7.6,73.51-12.53,79.95-17.42,169.69-56.89,235.87-103.68,146.73-103.74,231.05-233.44,274.44-404.66,12.3-48.56,14.93-94.42,18.27-151.52.55-9.35-1.4-7.9-2-18.24-.37-6.47-.01-14.37.04-20.98.22-32.77-7.44-81.23-15.37-112.55-3.02-11.92-4.98-22.57-8.16-33.7-13.48-47.07-37.14-108.27-62.09-149.56-19.33-31.98-29.01-47.7-50.97-76.94-16.8-22.37-60.63-72.81-80.43-89.36-5.18-4.33-6.36-4.33-11.55-9.38-14.39-14.01-42.68-35.08-59.5-47.49-31.75-23.42-70.22-44.04-108.12-61.65C904.99,35.76,824.37,11.45,760.11,4.97,687.99-2.3,670.62-.96,600.22,4.79c-23.27,1.9-49.69,6.89-71.38,12.35C505.56,23,484.23,27.28,463.48,35.51c-10.68,4.24-20.95,6.96-30.94,10.92-26.69,10.59-63.28,27.05-86.76,41.16-9.6,5.77-17.02,9.39-26.26,15.61-9.56,6.42-17.54,11.75-26.51,17.68C202.29,180.96,101.74,297.67,60.77,397.96L36.9,457.81a554.062,554.062,0,0,0-19.23,66.81C7.32,570.24-.01,622.06-.01,676.71Z" transform="translate(0.01 0.012)" fill="#fff" fill-rule="evenodd"/>
</svg>
