<svg width="158" height="73" viewBox="0 0 158 73" fill="none" xmlns="http://www.w3.org/2000/svg">
<path d="M89.1056 58.9533C89.5389 58.9533 89.8804 59.0583 90.13 59.2681C90.3797 59.478 90.503 59.7695 90.503 60.1368C90.503 60.507 90.3797 60.7955 90.13 61.0083C89.8804 61.2182 89.5389 61.3231 89.1056 61.3231H88.2792V62.355H87.8V58.9533H89.1056ZM89.0913 60.9034C89.3954 60.9034 89.625 60.8363 89.7857 60.7052C89.9464 60.574 90.0239 60.3845 90.0239 60.1397C90.0239 59.8948 89.9435 59.7054 89.7857 59.5742C89.625 59.443 89.3954 59.376 89.0913 59.376H88.2764V60.9034H89.0913ZM95.4155 62.3579L94.6924 61.3115C94.6034 61.3173 94.5317 61.3202 94.4829 61.3202H93.6565V62.355H93.1773V58.9533H94.4829C94.9162 58.9533 95.2577 59.0583 95.5073 59.2681C95.757 59.478 95.8803 59.7695 95.8803 60.1368C95.8803 60.3991 95.8172 60.6236 95.6881 60.8072C95.5618 60.9908 95.3782 61.1249 95.1429 61.2094L95.9377 62.3521H95.4155V62.3579ZM94.4686 60.9092C94.7727 60.9092 95.0023 60.8422 95.163 60.711C95.3237 60.5769 95.4011 60.3875 95.4011 60.1426C95.4011 59.8978 95.3208 59.7083 95.163 59.5771C95.0023 59.446 94.7727 59.3789 94.4686 59.3789H93.6537V60.9092H94.4686ZM98.6264 58.9563H99.1056V62.3579H98.6264V58.9563ZM104.956 58.9563L103.487 62.3579H103.014L101.539 58.9563H102.055L103.26 61.7516L104.477 58.9563H104.956ZM109.381 61.5097H107.602L107.235 62.3608H106.741L108.259 58.9592H108.732L110.253 62.3608H109.751L109.384 61.5097H109.381ZM109.215 61.122L108.491 59.4547L107.768 61.122H109.215ZM113.217 59.3818H112.07V58.9592H114.841V59.3818H113.694V62.3608H113.22V59.3818H113.217ZM119.763 61.9382V62.3608H117.332V58.9592H119.697V59.3818H117.811V60.4283H119.49V60.8422H117.811V61.9411H119.763V61.9382ZM126.408 58.9592H126.887V61.9382H128.701V62.3608H126.408V58.9592ZM131.22 58.9592H131.699V62.3608H131.22V58.9592ZM137.78 62.3608L137.774 59.8803L136.563 61.9469H136.342L135.131 59.8948V62.3608H134.672V58.9592H135.065L136.463 61.3523L137.84 58.9592H138.233L138.239 62.3608H137.78ZM141.214 58.9592H141.694V62.3608H141.214V58.9592ZM145.332 59.3818H144.184V58.9592H146.956V59.3818H145.808V62.3608H145.335V59.3818H145.332ZM151.877 61.9382V62.3608H149.447V58.9592H151.811V59.3818H149.926V60.4283H151.605V60.8422H149.926V61.9411H151.877V61.9382ZM154.623 58.9592H156.035C156.388 58.9592 156.703 59.0291 156.976 59.172C157.252 59.3148 157.464 59.5159 157.616 59.7724C157.768 60.0289 157.843 60.3262 157.843 60.6585C157.843 60.9937 157.768 61.2881 157.616 61.5447C157.464 61.8012 157.252 62.0023 156.976 62.1451C156.701 62.2879 156.388 62.3579 156.035 62.3579H154.623V58.9563V58.9592ZM156.006 61.9382C156.279 61.9382 156.517 61.8857 156.721 61.7778C156.927 61.67 157.085 61.5213 157.197 61.329C157.309 61.1366 157.363 60.9121 157.363 60.6615C157.363 60.4079 157.309 60.1863 157.197 59.9939C157.085 59.8016 156.927 59.65 156.721 59.5451C156.514 59.4372 156.276 59.3847 156.006 59.3847H155.102V61.9411H156.006V61.9382Z" fill="white"/>
<path d="M48.2826 53.759L47.3443 52.9283C47.0516 53.2548 46.6241 53.4909 46.0617 53.6308C45.4993 53.7736 44.8938 53.8436 44.2453 53.8436C43.6829 53.8436 43.1664 53.794 42.6958 53.6949C42.2252 53.5958 41.8149 53.4296 41.4591 53.1935C41.1033 52.9604 40.8278 52.6485 40.6298 52.2666C40.4318 51.8819 40.3314 51.4126 40.3314 50.8587V38.9194C40.3314 37.94 40.6757 37.1938 41.3644 36.6808C42.0531 36.1678 43.0861 35.9142 44.4634 35.9142C45.8608 35.9142 46.8737 36.1707 47.4992 36.6808C48.1248 37.1909 48.4375 37.94 48.4375 38.9194V42.0121H45.8407V38.899C45.8407 38.2315 45.3816 37.8963 44.4634 37.8963C43.6284 37.8963 43.2123 38.2315 43.2123 38.899V50.8587C43.2123 51.2144 43.3271 51.4738 43.5567 51.637C43.7862 51.8002 44.0789 51.8819 44.4318 51.8819C45.307 51.8819 45.7776 51.5845 45.8407 50.987V47.2122H44.3084V45.3351H48.6269V53.7561H48.2826V53.759ZM51.439 53.6512V36.1037H58.5436V38.0858H54.3199V43.7989H57.0745V45.781H54.3199V53.6483H51.439V53.6512ZM65.9554 36.1037H68.8334V50.8587C68.8334 52.8496 67.4675 53.8436 64.733 53.8436C62.0013 53.8436 60.6326 52.8496 60.6326 50.8587V36.1037H63.5106V50.8587C63.5106 51.5408 63.9181 51.8819 64.7301 51.8819C65.545 51.8819 65.9496 51.5408 65.9496 50.8587V36.1037H65.9554ZM73.2437 53.6512V38.0887H70.5522V36.1066H78.8161V38.0887H76.1246V53.6512H73.2466H73.2437ZM86.2594 36.1037H89.1374V50.8587C89.1374 52.8496 87.7716 53.8436 85.037 53.8436C82.3053 53.8436 80.9366 52.8496 80.9366 50.8587V36.1037H83.8146V50.8587C83.8146 51.5408 84.2221 51.8819 85.0341 51.8819C85.8491 51.8819 86.2537 51.5408 86.2537 50.8587V36.1037H86.2594ZM97.6453 39.6657C97.6453 39.1264 97.5506 38.7271 97.3641 38.4706C97.1775 38.214 96.7385 38.0858 96.0499 38.0858H94.9537V43.9709H96.0814C97.1259 43.9709 97.6453 43.5949 97.6453 42.8399V39.6627V39.6657ZM97.6453 53.6512C97.4157 52.3162 97.1862 51.0016 96.9566 49.7074C96.727 48.4132 96.4573 47.0986 96.1417 45.7636H94.9537V53.6512H92.0441V36.1037H96.0499C97.5506 36.1037 98.684 36.3427 99.4444 36.8178C100.205 37.2929 100.586 38.1062 100.586 39.2605V42.8224C100.586 43.5045 100.452 44.0409 100.179 44.4315C99.9064 44.822 99.4788 45.131 98.8963 45.3584C99.2722 46.7808 99.6108 48.1712 99.9121 49.5383C100.216 50.9025 100.512 52.2754 100.804 53.6541H97.6424L97.6453 53.6512ZM103.275 53.6512V36.1037H110.222V38.0858H106.153V43.7144H108.876V45.6965H106.153V51.6866H110.377V53.6483H103.272L103.275 53.6512Z" fill="white"/>
<path d="M121.743 53.6541V38.0916H119.051V36.1095H127.315V38.0916H124.623V53.6541H121.745H121.743ZM129.53 53.6541V36.1066H136.477V38.0887H132.408V43.7173H135.131V45.6994H132.408V51.6895H136.632V53.6512H129.527L129.53 53.6541ZM144.296 47.2152H146.925V50.8412C146.925 51.8644 146.62 52.6222 146.018 53.1119C145.412 53.6016 144.443 53.8465 143.108 53.8465C140.334 53.8465 138.945 52.8583 138.945 50.8821V38.9428C138.945 36.9257 140.334 35.9142 143.108 35.9142C145.653 35.9142 146.927 36.9082 146.927 38.899V42.0121H144.299V38.899C144.299 38.558 144.21 38.3044 144.032 38.1412C143.854 37.9779 143.547 37.8963 143.108 37.8963C142.293 37.8963 141.889 38.2315 141.889 38.899V50.8587C141.889 51.5408 142.296 51.8819 143.108 51.8819C143.9 51.8819 144.296 51.5408 144.296 50.8587V47.2122V47.2152ZM154.965 53.6541V45.7023H152.523V53.6541H149.642V36.1066H152.523V43.7406H154.965V36.1066H157.843V53.6541H154.965Z" fill="url(#paint0_linear_104_34)"/>
<path d="M54.2138 4.94969L54.2167 4.95261L54.2281 4.95844L54.231 4.96135L54.2339 4.96427L54.2367 4.96718L54.2396 4.9701L54.2425 4.97301H54.2453H54.2482L54.2511 4.97592L54.254 4.97884L54.2568 4.98175L54.2597 4.98467L54.2626 4.98758L54.2654 4.9905L54.2683 4.99341L54.2712 4.99633L54.274 4.99924L54.2769 5.00216L54.2798 5.00507L54.2826 5.00799L54.2855 5.0109L54.2884 5.01382L54.2913 5.01673L54.2941 5.01965H54.297H54.2999L54.3027 5.02256L54.3056 5.02548L54.3085 5.02839H54.3113H54.3142L54.3171 5.03131L54.32 5.03422L54.3228 5.03714L54.3257 5.04005L54.3286 5.04297L54.3314 5.04588L54.3343 5.0488L54.3372 5.05171L54.34 5.05463L54.3429 5.05754L54.3458 5.06046L54.3486 5.06337L54.3515 5.06629L54.3544 5.0692L54.3573 5.07212L54.3659 5.07795L54.3687 5.08086L54.3831 5.08961L54.3859 5.09252C54.6327 5.25284 54.8766 5.41898 55.1148 5.58513C55.1291 5.59388 55.1463 5.60554 55.1578 5.61428C55.1578 5.61428 54.911 5.42481 54.1621 4.94969L54.1363 4.93512L54.2826 5.02548C54.6212 5.23243 54.9455 5.45979 55.2869 5.66092C55.2841 5.658 54.9627 5.43356 54.1306 4.9322L54.1277 4.92929L54.1363 4.93512L54.1277 4.92929L54.1306 4.9322L54.1248 4.92929L54.122 4.92637L54.1334 4.93512L54.122 4.92637H54.1191H54.122H54.1191L54.122 4.92929L54.1765 4.96427L54.2138 4.94969ZM25.0949 70.3884C25.7319 70.5954 26.2254 70.7324 26.7764 70.8636L26.7505 70.8577L26.7792 70.8636C27.1465 70.9539 27.5167 71.0385 27.8868 71.1143C27.8954 71.1143 27.9069 71.1143 27.9127 71.1143C27.9069 71.1055 27.9012 71.0968 27.8983 71.088C27.1465 70.7994 26.3488 70.6887 25.5769 70.4788C25.1178 70.3535 24.6673 70.2019 24.2082 70.0795C24.257 70.1028 24.257 70.1028 24.4263 70.164C24.6386 70.2369 24.851 70.3097 25.0633 70.3768L25.0662 70.3797L25.092 70.3884H25.0949ZM26.2972 70.8053L26.2627 70.7936C26.9026 70.9743 27.7548 71.2134 28.4005 71.3737C28.5066 71.3999 28.6157 71.4261 28.7247 71.4465C28.7218 71.4465 28.719 71.4436 28.7161 71.4436C27.9098 71.2338 27.0977 71.0443 26.3 70.8053H26.2972ZM30.1451 71.5282C28.7247 71.3562 28.7247 71.3562 28.696 71.3562C28.894 71.5223 32.1479 72.0353 32.696 71.9129C32.6988 71.9071 32.7017 71.8983 32.7046 71.8925C32.696 71.8896 32.6845 71.8838 32.6759 71.8779C32.4636 71.8109 32.4636 71.8109 30.1451 71.5282ZM31.3617 71.9391H31.3588L33.5195 72.1869C32.7792 72.1228 32.0934 72.0441 31.3617 71.9391ZM34.0188 71.6564C34.3861 71.6593 34.6759 71.6477 34.9858 71.6185C35.4793 71.5894 35.97 71.5515 36.4635 71.4961C36.5238 71.4349 36.4951 71.4057 36.4033 71.3562C35.7835 71.1317 34.0819 71.2571 33.7462 71.2833C33.333 71.3154 32.3918 71.4086 32.5697 71.5398C32.6501 71.601 32.9341 71.6448 33.0403 71.6593C33.3646 71.6622 33.6917 71.6622 34.0159 71.6535L34.0188 71.6564ZM35.4736 72.1053C33.993 72.1257 33.993 72.1257 33.9126 72.1432C34.2942 72.3123 37.7806 72.3123 38.102 72.1432C38.0962 72.1374 38.0876 72.1286 38.0819 72.1228C37.8466 72.0761 37.2957 72.082 35.4736 72.1053ZM38.871 71.2746C38.6271 71.3241 37.4248 71.5719 37.6199 71.7235C38.0503 72.0616 41.617 71.5573 41.6801 71.1492C41.6859 71.1084 41.64 71.0851 41.6027 71.0647C40.9456 70.8665 38.9571 71.2571 38.871 71.2746ZM40.8796 71.9596C40.3258 72.0383 39.7691 72.0936 39.2153 72.184C39.244 72.1898 39.2469 72.1898 39.442 72.1723L39.5826 72.1607C40.6012 72.0295 41.9585 71.8692 42.9685 71.6885C43.2985 71.6243 43.3588 71.6069 43.4018 71.5952C43.4018 71.5923 43.4047 71.5894 43.4047 71.5865C42.5496 71.6302 41.7203 71.84 40.8767 71.9596H40.8796ZM44.5151 70.6858C44.0245 70.8432 43.1923 71.1288 43.1407 71.2804C43.3014 71.569 47.0259 70.5692 47.2066 70.1873C47.2267 70.1465 47.1923 70.1319 47.1636 70.1174C46.7217 70.0357 45.2382 70.4526 44.5151 70.6858ZM47.2612 68.3947C46.5094 68.7998 45.9527 69.2954 46.3401 69.4528C47.1837 69.7967 50.3286 68.4267 50.1622 67.7884C50.1449 67.7213 50.0789 67.6864 50.0273 67.6572C49.3673 67.4648 47.9814 68.007 47.2612 68.3947ZM49.967 69.3391C49.089 69.7384 48.5926 69.9891 48.4922 70.0795C48.495 70.0853 48.5008 70.094 48.5036 70.097C49.0115 70.0562 52.1134 68.6949 52.406 68.383C52.4003 68.3772 52.3946 68.3684 52.3917 68.3626C52.0588 68.3918 50.3142 69.1817 49.967 69.3391ZM52.9742 66.7332C52.2281 67.2404 51.6284 67.803 51.924 67.8962C52.5811 68.109 55.792 66.1444 55.5796 65.6605C55.5681 65.6343 55.5308 65.6139 55.505 65.6022C54.9971 65.5177 53.6829 66.2493 52.9742 66.7303V66.7332ZM54.8307 67.1063C54.2798 67.4444 53.9469 67.6339 53.8207 67.7068L55.1119 66.9402L56.5007 66.0278C56.0445 66.3426 55.4362 66.7361 54.8307 67.1092V67.1063ZM54.9369 63.1129C54.0646 63.9641 53.8867 64.7045 54.5466 64.7336C55.8006 64.7861 58.2482 62.632 57.703 61.9557C57.6714 61.9149 57.6083 61.8829 57.5653 61.8566C56.8508 61.6555 55.5968 62.4688 54.9369 63.1129ZM58.1277 64.2381C57.9211 64.4159 56.8938 65.3107 56.9369 65.4798C57.2755 65.6139 60.4089 63.0372 60.3228 62.6961C60.3142 62.6932 60.3056 62.6903 60.2998 62.6874C59.9813 62.7282 58.7991 63.6609 58.1277 64.2381ZM60.2396 60.3671C59.4218 61.3494 59.175 62.1131 59.7001 62.0344C60.6958 61.8858 63.0631 59.1458 62.5437 58.7406C62.5294 58.729 62.5035 58.7202 62.4892 58.7115C61.9555 58.627 60.8536 59.6297 60.2396 60.3671ZM62.3945 60.8364C61.8292 61.4631 61.3242 62.0082 61.1693 62.1656C61.8981 61.3903 62.8852 60.3671 63.5738 59.5568L64.1219 58.8835C63.9124 59.1371 63.1205 60.0319 62.3945 60.8364ZM68.0243 28.426C68.4605 29.2917 68.7991 29.213 68.9282 28.7729C69.218 27.7818 68.5179 25.3071 67.8407 24.9369C67.7173 24.9049 67.6111 24.902 67.5136 25.1993C67.7288 26.2603 67.9009 27.3388 68.0243 28.426ZM70.2424 27.8897C70.5465 29.216 70.8708 30.0496 70.9942 29.8281C71.2094 29.4433 70.4662 25.8726 69.9813 25.6394C69.746 25.7035 70.2395 27.8664 70.2452 27.8897H70.2424ZM71.0573 27.7702C71.0946 27.9305 71.1692 28.2511 71.2467 28.6213L70.7818 26.6771L70.5953 26.0067C70.7933 26.6975 70.954 27.3475 71.0544 27.7702H71.0573ZM67.878 22.8615C68.34 24.2082 68.8622 25.1002 69.02 24.8116C69.2926 24.3015 68.1104 21.1476 67.5308 20.8415C67.1721 20.8036 67.8722 22.8441 67.878 22.8645V22.8615ZM69.4389 23.2667C69.9583 24.628 70.1161 24.9719 70.1936 25.0681C70.1993 25.0652 70.2079 25.0594 70.2137 25.0564C70.185 24.4064 68.8306 21.0922 68.647 21.0252C68.647 21.1126 68.647 21.1942 69.4418 23.2696L69.4389 23.2667ZM65.8866 19.594C66.2969 20.107 66.3715 19.8971 66.383 19.7834C66.4633 19.0897 65.1434 16.5479 64.5265 16.2011C64.4548 16.1836 64.4232 16.1952 64.4174 16.3089C64.5724 16.6092 64.7216 16.9152 64.8679 17.2213C64.9569 17.437 65.0545 17.6556 65.1549 17.8713C65.1951 17.9587 65.2524 18.0753 65.2955 18.1628C65.5021 18.635 65.6972 19.1101 65.8809 19.594H65.8866ZM66.9425 18.7283C67.5853 19.9525 67.9612 20.553 68.0587 20.518C68.1707 20.1595 66.4289 16.9123 66.0071 16.7024C65.987 16.7403 65.9411 16.8249 66.9397 18.7283H66.9425ZM67.5681 18.6729C67.9382 19.3433 68.162 19.7834 68.4232 20.2935V20.2906C67.8435 19.1917 67.0659 17.7314 66.426 16.6704C66.3916 16.615 66.3572 16.5596 66.3199 16.5071C66.7216 17.2388 67.1692 17.9413 67.5681 18.67V18.6729ZM63.7948 14.356C64.8192 15.8775 65.0516 16.0582 65.1377 16.0641C65.3558 15.7842 63.1951 12.8402 62.7188 12.5808C62.713 12.5808 62.7073 12.5808 62.7015 12.5808C62.6929 12.6158 62.6728 12.6945 63.7919 14.356H63.7948ZM64.7933 14.6212C65.8981 16.134 65.8981 16.134 65.9784 16.2098C65.9956 15.8484 63.5882 12.7907 63.3758 12.6945C63.4045 12.7586 63.4103 12.7703 63.8321 13.3299C64.0042 13.5602 64.3629 14.0382 64.7905 14.6212H64.7933ZM61.548 11.7442C61.6915 11.8783 61.7345 11.9046 61.7776 11.9133C61.8665 11.5752 59.5423 9.1267 59.109 8.87602C59.1119 8.89934 59.1234 8.92848 59.1348 8.94597C59.2898 9.10338 59.4419 9.26369 59.5939 9.42401C59.8379 9.69801 60.0789 9.97492 60.3199 10.2518C60.4863 10.4413 60.6528 10.6308 60.8192 10.8202C61.0688 11.1234 61.3127 11.4294 61.548 11.7442ZM61.3558 10.7707C62.7245 12.2281 62.7245 12.2281 62.7934 12.2631C62.7704 11.9512 60.1621 9.31616 59.7575 9.09755C59.7805 9.13835 59.7833 9.14418 60.1592 9.52312C60.4806 9.84958 60.8393 10.2169 61.3586 10.7707H61.3558ZM61.6858 10.7474C62.1363 11.205 62.5466 11.7005 63.0143 12.1348C62.5552 11.4732 60.119 9.11212 59.8952 9.01885C60.472 9.61639 61.1004 10.1556 61.6829 10.7474H61.6858ZM59.5595 8.66615C59.7374 8.81772 60.2166 9.23746 60.8335 9.82918C60.4519 9.47939 59.944 9.0101 59.5595 8.66906V8.66615ZM57.5222 7.3428C57.8666 7.62845 58.2109 7.92577 58.3974 8.08317C58.8393 8.46211 58.9971 8.59619 59.0688 8.637C59 8.40381 56.3945 6.33717 55.726 5.94075C56.3142 6.41878 56.9369 6.85601 57.5194 7.3428H57.5222ZM57.8522 7.43316C58.3859 7.84998 58.8852 8.30762 59.4333 8.70404C59.2611 8.42713 56.5782 6.37798 55.8436 5.96115C57.703 7.31656 57.703 7.31656 57.8522 7.43024V7.43316ZM57.8637 7.33697C58.3716 7.71881 58.8594 8.12981 59.3644 8.51749C58.5208 7.72756 56.3228 6.17102 55.8178 5.90285C57.307 6.92014 57.307 6.92014 57.8637 7.33697ZM57.5739 7.07171C57.8522 7.27575 58.1564 7.50894 58.4089 7.71299C58.2453 7.58473 58.0272 7.41275 57.8608 7.28741C57.5222 7.02799 57.2095 6.80063 56.934 6.60534L56.9311 6.60242C56.495 6.2847 56.4749 6.27304 55.3845 5.57347C55.3874 5.57639 55.7862 5.79792 56.3314 6.18268C56.4778 6.2847 56.6643 6.41295 56.8278 6.52955C56.1191 6.03694 55.6714 5.77751 55.6686 5.7746C57.3013 6.87059 57.3013 6.87059 57.5796 7.07463L57.5739 7.07171ZM55.373 5.54432L55.1951 5.43064C55.0344 5.33154 54.9799 5.30531 54.9799 5.30531C54.9799 5.30531 54.9828 5.30822 54.9857 5.30822C55.1607 5.41607 55.3357 5.51809 55.5079 5.62886L55.373 5.54141V5.54432ZM54.5925 5.06046L54.5237 5.01965C54.5179 5.01673 54.5122 5.00799 54.5036 5.0109C54.5093 5.01673 54.5122 5.01965 54.5179 5.02256C54.5811 5.05754 54.6442 5.09252 54.7045 5.13041L54.5925 5.06337V5.06046ZM53.9154 4.66112L53.9068 4.65529C53.9498 4.67861 53.99 4.70776 54.033 4.73399C54.0474 4.74274 54.0617 4.74565 54.076 4.7544L53.9154 4.66112ZM53.221 4.27344C53.3357 4.33757 53.4476 4.40461 53.5596 4.46874C53.5624 4.46874 53.5653 4.47165 53.5653 4.47165C53.5366 4.44833 53.4419 4.39587 53.439 4.39587C53.373 4.35797 53.2841 4.31134 53.2181 4.27344H53.221ZM52.2884 3.78374C52.5725 3.92949 52.8508 4.08689 53.132 4.23846C53.1177 4.2268 52.9398 4.12187 52.6758 3.98196C52.561 3.92074 52.406 3.84204 52.2884 3.78374ZM51.3788 3.34068C51.1521 3.23575 50.8479 3.09584 50.6213 2.99382C51.1779 3.24158 51.1779 3.24158 52.7733 4.06357C52.7705 4.06066 52.3228 3.78957 51.4907 3.39315L51.3817 3.34068H51.3788ZM54.1765 4.91471L54.1707 4.9118L54.1736 4.91471H54.1765ZM54.188 4.92346L54.2023 4.9322L54.188 4.92346L54.2023 4.9322L54.1564 4.90305L54.0875 4.86516L54.1507 4.90014C53.8752 4.72816 53.5882 4.57367 53.3157 4.39004C53.3185 4.39004 53.6083 4.55327 54.0933 4.86225L54.1535 4.90014C53.8752 4.71359 53.5854 4.54452 53.307 4.35797C53.3501 4.38129 53.6571 4.56201 54.0474 4.82727L54.1564 4.90014H54.1535H54.1564L54.0875 4.86225L54.2167 4.93803L54.1851 4.91763L54.188 4.92346ZM54.1765 4.91471L54.1736 4.9118L54.1765 4.91471ZM54.1593 4.90305L54.1564 4.90014L54.0875 4.84767C53.8035 4.62906 53.5911 4.50372 53.5882 4.5008C53.6055 4.51538 53.6227 4.52704 53.6399 4.53869C53.8695 4.69318 53.9814 4.77188 54.1535 4.90014C54.0875 4.83893 54.0187 4.77771 53.9498 4.71942C53.9326 4.70484 53.9154 4.69318 53.901 4.67569C53.9125 4.68152 54.0273 4.75148 54.1306 4.8739L54.1535 4.90305C54.1593 4.89139 54.1621 4.88265 54.1707 4.8739C54.1966 4.84476 54.2568 4.87682 54.2597 4.89139C54.254 4.89722 54.2511 4.89722 54.1765 4.90305H54.1535C54.4433 4.99341 54.5839 5.08086 54.5868 5.08086C54.5667 5.07503 54.5466 5.06629 54.5265 5.05754C54.4261 5.01382 54.3257 4.9701 54.2224 4.9322L54.1535 4.90597C54.6585 5.13624 54.891 5.27907 54.8938 5.27907C54.6844 5.17414 54.4778 5.06337 54.2654 4.95844L54.1535 4.90597H54.1564H54.1535C54.8221 5.24701 55.1263 5.43647 55.1263 5.43939C54.8479 5.28782 54.5725 5.13041 54.2941 4.98175L54.1564 4.90888L54.2941 4.98175L54.1564 4.90888C54.9283 5.33154 55.2812 5.55598 55.2841 5.5589C54.9512 5.38692 54.6385 5.17997 54.3113 4.99633L54.1535 4.90888H54.1507L54.1478 4.90597L54.1507 4.90888L54.1478 4.90597C54.0617 4.88265 53.9727 4.86225 53.8838 4.83601C53.8293 4.82144 53.8092 4.81561 53.8063 4.80978C53.8264 4.80686 53.9297 4.83018 54.1191 4.89722C54.1277 4.90014 54.1392 4.90597 54.1478 4.90888C53.8895 4.78063 53.6255 4.66695 53.373 4.52995C53.3874 4.53287 53.6485 4.64946 54.0904 4.87973L54.1478 4.9118C53.8321 4.73108 53.505 4.56493 53.1923 4.38129C53.2123 4.39295 53.5481 4.56493 54.076 4.87099L54.1449 4.90888L54.0789 4.86808C53.5337 4.5387 53.2124 4.36672 53.2124 4.36672C53.5194 4.55618 53.8379 4.72525 54.1478 4.9118C54.1507 4.91471 54.1564 4.92054 54.1593 4.92637C54.3343 5.13041 54.3343 5.13041 54.3458 5.13333C54.3429 5.12167 54.3027 5.05754 54.1478 4.91471C54.1334 4.97884 54.0933 4.9905 54.076 4.98175C54.056 4.9701 54.0703 4.93512 54.1392 4.91763C54.142 4.91763 54.1449 4.91763 54.1478 4.91471C54.4405 5.13041 54.5753 5.24992 54.5897 5.27033C54.4433 5.17122 54.3171 5.0488 54.1765 4.93803L54.1478 4.91471L54.1937 4.94678C54.4003 5.0896 54.5954 5.24409 54.8049 5.38109C54.7991 5.37526 54.6069 5.22369 54.1478 4.91763L54.1593 4.92637L54.1478 4.91763H54.1449L54.1736 4.93512L54.188 4.94386L54.1736 4.93512L54.188 4.94386L54.1736 4.93512L54.1593 4.92637L54.1449 4.91763L54.1593 4.90305ZM54.165 4.90597L54.1621 4.90305L54.3228 4.99633C54.6671 5.20037 55.0029 5.42481 55.3529 5.62011C55.3501 5.6172 55.0086 5.38984 54.1621 4.90305L54.1593 4.90014H54.1564L54.1621 4.90597H54.165ZM15.9959 65.7101C15.5856 65.4011 15.204 65.0572 14.7879 64.7569C14.7822 64.754 14.7764 64.7511 14.7707 64.7453C14.7965 64.7948 15.1839 65.1067 15.2011 65.1213C15.4393 65.2991 15.7578 65.5352 15.9959 65.7101ZM16.7965 66.2639C16.8912 66.331 16.9859 66.398 17.0835 66.465L17.5081 66.742L17.5856 66.7915C17.0318 66.4359 16.5756 65.9462 16.0332 65.5789C16.0189 65.5702 16.0017 65.5614 15.9873 65.5556C15.9845 65.5585 15.9816 65.5643 15.9816 65.5673C16.0419 65.6634 16.346 65.9404 16.7965 66.2668V66.2639ZM17.7119 66.841C17.818 66.9285 17.9443 67.0159 18.0849 67.1034C18.1423 67.1384 18.2169 67.185 18.2743 67.2171C18.1882 67.1617 18.1193 67.0859 18.0131 66.9664C17.8209 66.7478 17.6946 66.6166 17.5397 66.5146C17.4163 66.4446 17.4048 66.4796 17.4192 66.5175C17.4364 66.5671 17.5225 66.6836 17.7147 66.8381L17.7119 66.841ZM18.6875 67.4269C18.6817 67.4473 18.6961 67.4677 18.7219 67.4852C18.7735 67.5144 18.8395 67.5552 18.8912 67.5843C19.138 67.7213 19.2843 67.6893 19.2613 67.5989C19.2441 67.5319 19.1466 67.4707 19.115 67.4532C18.874 67.3249 18.7018 67.3628 18.6875 67.4269ZM19.6602 67.9837C19.5856 67.9545 19.4737 67.9108 19.3503 67.8438C19.4134 67.8787 19.4995 67.9254 19.5626 67.9604C20.2341 68.3247 20.6817 68.4326 20.7247 68.3859C20.7219 68.3684 20.7104 68.3597 20.6616 68.3306C20.3431 68.1673 19.9902 68.109 19.6602 67.9837ZM20.5669 68.4763C20.4751 68.4326 20.2886 68.348 20.0877 68.2431L20.1537 68.2781C20.2427 68.3247 20.3575 68.383 20.4464 68.4297C21.5167 68.9718 22.059 69.1146 22.1135 69.1205C22.1107 69.1088 22.0963 69.1001 22.0849 69.0942C21.5913 68.8552 21.0633 68.7037 20.5669 68.4763ZM21.3503 68.8756C21.3044 68.8552 21.2441 68.8261 21.2011 68.8028L21.5052 68.9485L21.9729 69.1642C22.9658 69.6073 23.3015 69.7034 23.3044 69.7034C23.3015 69.7005 23.2957 69.6976 23.2929 69.6947C22.6501 69.409 21.9902 69.1759 21.3532 68.8756H21.3503ZM12.0993 62.5125C12.2743 62.6757 12.5067 62.8914 12.6846 63.0517C11.8295 62.2618 11.0663 61.3757 10.2313 60.5653C10.2772 60.644 10.742 61.1571 11.2528 61.6788L12.1021 62.5125H12.0993ZM12.478 62.7719C13.115 63.4073 13.7578 63.9582 13.9156 64.0836C13.9041 64.069 11.5828 61.638 11.3532 61.4544C11.3446 61.4486 11.336 61.4427 11.3274 61.4398C11.3245 61.4427 11.3188 61.4485 11.313 61.4515C11.3848 61.603 11.8381 62.1423 12.4752 62.7748L12.478 62.7719ZM13.8066 63.7105C14.346 64.2935 14.9945 64.8531 15.0863 64.8852C15.0749 64.7977 13.6373 63.0459 13.1724 62.7107C13.1179 62.6786 13.1064 62.6728 13.0749 62.6728C13.0089 62.7457 13.3245 63.1916 13.8066 63.7105ZM15.6573 64.9143C15.9902 65.369 16.6473 65.9957 16.6817 65.8529C16.7133 65.7305 16.2226 64.6899 15.6143 64.2789C15.3274 64.1156 15.3475 64.3051 15.3675 64.3926C15.3819 64.4538 15.4393 64.6228 15.6545 64.9143H15.6573ZM17.7865 66.2231C17.8926 66.672 18.4522 67.1763 18.7018 66.8119C18.8309 66.6254 18.7707 66.2144 18.3288 65.9258C17.9185 65.7043 17.7147 65.9025 17.7893 66.2202L17.7865 66.2231ZM19.9787 67.5086C19.775 67.6368 19.7262 67.8379 20.2714 67.9749C20.917 68.1382 21.4593 67.972 21.2556 67.6747C21.2097 67.6077 21.1437 67.5668 21.0806 67.526C20.6272 67.2929 20.1623 67.389 19.9787 67.5086ZM22.0963 68.6949C21.6028 68.6745 21.5684 68.7007 21.5511 68.7153C21.6372 68.9806 23.7405 69.3508 23.8237 69.1176C23.8438 69.0651 23.7577 69.0126 23.7061 68.9806C23.3015 68.7823 22.6071 68.7153 22.0963 68.6949ZM24.0074 69.7064C23.6831 69.6393 23.3675 69.5256 23.0346 69.5052C23.2843 69.7734 25.9471 70.4234 26.0992 70.2544C26.0934 70.231 26.0848 70.2252 26.0332 70.1961C25.7577 70.0736 25.5224 70.0241 24.0045 69.7064H24.0074ZM8.23702 58.1956L9.47661 59.7404C8.58422 58.6765 7.81522 57.5193 6.97734 56.4117C7.00317 56.4583 7.00891 56.47 7.12942 56.6507L8.23415 58.1926L8.23702 58.1956ZM9.00029 58.9593C9.59139 59.7434 10.2628 60.5041 10.3862 60.5857C10.392 60.4662 8.31163 57.6184 8.0419 57.3794C8.03042 57.3706 8.01034 57.3619 7.99599 57.359C7.96443 57.4639 8.42353 58.1956 8.99742 58.9593H9.00029ZM10.6043 60.166C11.1323 60.9326 11.8726 61.7634 11.9931 61.7284C12.0562 61.5535 10.7105 59.3498 10.1136 58.8893C10.0562 58.8543 9.91563 58.7698 9.97015 58.9971C9.99024 59.0846 10.0964 59.4256 10.6072 60.166H10.6043ZM13.0347 61.8042C13.4708 62.6028 14.2944 63.5006 14.4034 63.1887C14.501 62.906 13.9271 61.4515 13.1294 60.8889C12.6416 60.6091 12.7621 61.1279 12.7908 61.2328C12.8338 61.3844 12.9257 61.6001 13.0376 61.8042H13.0347ZM16.1337 63.76C16.3087 64.4771 17.1064 65.3516 17.4479 64.8531C17.6774 64.5179 17.5053 63.6493 16.8109 63.1829C16.2484 62.8739 16.0074 63.2324 16.1365 63.7571L16.1337 63.76ZM19.4479 65.748C19.2011 66.4009 20.0476 66.9955 20.742 66.6545C21.2039 66.4271 21.2728 65.8646 20.6702 65.4769C20.0246 65.1388 19.5684 65.4303 19.4479 65.748ZM22.7534 67.6426C22.3661 67.8438 22.2771 68.144 22.8567 68.3247C23.7176 68.5958 25.0002 68.3393 24.6989 67.835C24.6415 67.7417 24.5583 67.6893 24.4693 67.6339C23.8323 67.3162 23.0949 67.4648 22.7534 67.6426ZM25.8467 69.3303C25.6515 69.3508 25.026 69.4353 25.1752 69.5927C25.4966 69.9308 28.036 70.164 28.1307 69.7151C28.1479 69.6277 28.036 69.5635 27.97 69.5227C27.3847 69.2516 26.3603 69.275 25.8438 69.3303H25.8467ZM28.5238 70.6974C27.5195 70.6479 27.4564 70.6887 27.4248 70.7091C27.4937 70.8373 28.6357 71.0647 29.4908 71.1551C30.4377 71.2542 31.026 71.1988 31.0288 71.088C31.0288 71.0589 30.9829 71.0326 30.9428 71.0093C30.4951 70.8257 29.3818 70.7382 28.5238 70.6974ZM5.89557 54.5345C6.39772 55.4235 6.97161 56.2863 7.08925 56.3679C7.10934 56.2193 5.33317 52.9721 5.08639 52.7098C5.07779 52.704 5.06918 52.6981 5.06344 52.6923C4.98596 52.8031 5.51681 53.8553 5.89844 54.5316L5.89557 54.5345ZM7.4221 55.8054C7.96156 56.8314 8.71335 57.8399 8.78795 57.6359C8.86829 57.4056 7.73487 54.8405 7.05769 54.2721C6.88265 54.1643 6.83674 54.278 6.91996 54.6074C7.02325 55.0125 7.27863 55.5314 7.42497 55.8054H7.4221ZM10.0735 57.6796C10.524 58.7319 11.4163 59.8454 11.5942 59.4081C11.7635 58.9884 11.1409 57.1433 10.26 56.4874C9.66312 56.1377 9.84964 56.9859 9.87259 57.085C9.90129 57.2074 9.96154 57.4085 10.0763 57.6796H10.0735ZM13.775 60.0902C14.0189 61.1512 15.0433 62.2385 15.445 61.638C15.752 61.1804 15.4708 59.8804 14.5727 59.2624C13.8697 58.8689 13.6115 59.3877 13.7721 60.0902H13.775ZM18.0476 62.7194C17.9299 63.6697 18.9744 64.6637 19.7434 64.0457C20.2456 63.6405 20.1939 62.7223 19.3761 62.186C18.6329 61.7896 18.1164 62.1452 18.0476 62.7194ZM22.4493 65.302C21.9356 65.9957 22.7104 66.7274 23.7663 66.5437C24.7276 66.3776 25.0547 65.5731 24.3632 65.0863C24.3345 65.0659 24.2914 65.0426 24.2627 65.0222C23.4593 64.6141 22.7219 64.9376 22.4521 65.302H22.4493ZM26.7132 67.6893C26.2111 67.9516 26.0303 68.3539 26.6903 68.5812C27.7032 68.931 29.5568 68.5054 29.1953 67.8467C29.1322 67.7301 29.0317 67.6689 28.9256 67.6047C28.1479 67.2316 27.158 67.459 26.7161 67.6864L26.7132 67.6893ZM30.5669 69.7297C30.0561 69.8405 29.5568 70.0416 29.8294 70.234C30.5037 70.7032 33.3502 70.473 33.2526 69.9541C33.2354 69.8696 33.1551 69.82 33.0661 69.7705C32.3545 69.4615 31.1178 69.6073 30.564 69.7297H30.5669ZM34.013 71.6477L34.2225 71.6418H34.2369H34.2512L34.013 71.6477ZM3.47378 49.7512C3.82959 50.649 4.23131 51.5176 4.34895 51.6954C4.38912 51.5118 2.82242 47.7428 2.8052 47.7137C2.80233 47.7108 2.7966 47.705 2.79086 47.702C2.77364 47.8682 3.13232 48.8942 3.47378 49.7512ZM4.62442 50.9084C5.07492 52.086 5.72341 53.1791 5.82097 52.9226C5.92714 52.6427 5.0204 49.7454 4.38626 49.1507C4.11366 48.9787 4.22557 49.5705 4.28583 49.8328C4.33461 50.0456 4.43504 50.407 4.62729 50.9084H4.62442ZM7.18968 52.841C7.58853 54.0914 8.47518 55.3652 8.70761 54.8114C8.95151 54.2372 8.33458 52.086 7.47375 51.4097C6.92283 51.0804 6.94004 51.8674 7.08638 52.4766C7.11221 52.5874 7.15525 52.7302 7.18968 52.838V52.841ZM11.0864 55.4731C11.3389 56.7993 12.5239 58.1402 12.9974 57.3415C13.3446 56.7556 13.0175 55.1437 11.9874 54.4091C11.1351 53.9224 10.9458 54.7385 11.0864 55.4731ZM16.0705 58.6211C16.0218 59.8337 17.2556 61.1221 18.0791 60.37C18.61 59.8891 18.6071 58.5949 17.5167 57.8603C16.6502 57.3881 16.0992 57.8749 16.0705 58.6211ZM21.4134 61.8304C20.9859 62.8972 22.2054 63.9437 23.3044 63.4511C24.1623 63.0663 24.3287 61.9616 23.3244 61.3145C22.3517 60.8073 21.62 61.3116 21.4134 61.8304ZM26.7477 64.891C26.1336 65.5323 26.5468 66.3863 27.8065 66.3834C29.1035 66.3805 29.97 65.4944 29.3502 64.8036C29.2555 64.6957 29.1379 64.6258 29.0461 64.5675C28.1135 64.1069 27.1408 64.48 26.7448 64.891H26.7477ZM31.7491 67.6222C31.1063 67.9749 30.8997 68.4792 31.663 68.7182C32.9313 69.1146 34.9829 68.4005 34.6271 67.6864C34.5611 67.5552 34.4521 67.4882 34.3344 67.4182C33.4564 67.0159 32.2828 67.3307 31.7519 67.6222H31.7491ZM36.0848 69.8346C35.4162 70.0445 34.8911 70.3622 35.31 70.5663C36.2569 71.0239 39.2899 70.403 38.9944 69.8113C38.9628 69.7472 38.8825 69.7005 38.8222 69.6685C38.1077 69.3828 36.7935 69.6131 36.0819 69.8346H36.0848ZM2.23706 46.1484C1.93003 45.0612 1.64022 43.7786 1.49101 42.9916C1.70908 43.9419 1.97881 45.2098 2.23706 46.1484ZM2.39775 45.6325C2.65025 46.641 3.06058 47.772 3.24423 47.7778C3.49673 47.5359 2.68469 44.1488 2.26001 43.662C2.01611 43.4959 2.15384 44.4724 2.26001 45.0116C2.29445 45.1894 2.35183 45.443 2.40061 45.6354L2.39775 45.6325ZM4.50964 47.4076C4.79658 48.7339 5.52829 50.0777 5.82958 49.5734C6.15095 49.037 5.68897 46.4457 4.87119 45.7491C4.35756 45.4343 4.28296 46.3641 4.50964 47.4076ZM8.22267 50.0427C8.42066 51.5118 9.52252 52.9809 10.0706 52.1647C10.5125 51.5089 10.2255 49.5238 9.16671 48.7281C8.32884 48.2413 8.11077 49.2032 8.22554 50.0398L8.22267 50.0427ZM13.4364 53.4443C13.4192 54.8289 14.7563 56.365 15.6401 55.5868C16.2771 55.0271 16.2341 53.3394 14.9859 52.4737C13.9328 51.8849 13.4479 52.6865 13.4393 53.4414L13.4364 53.4443ZM19.4966 57.1783C19.1494 58.5861 20.6387 59.8804 21.7721 59.1575C22.5411 58.6678 22.7247 57.257 21.4966 56.4466C20.3862 55.8549 19.6602 56.5195 19.4966 57.1783ZM25.752 60.8539C25.181 61.8421 26.1221 63.0867 27.5683 62.7632C28.8883 62.4658 29.29 61.1163 28.2713 60.3963C28.2312 60.3671 28.1738 60.3351 28.1336 60.3088C27.0346 59.7521 26.0791 60.2943 25.7548 60.8568L25.752 60.8539ZM31.8208 64.2585C31.026 65.028 31.5281 65.9054 32.7763 65.9374C34.3029 65.9753 35.4965 64.8852 34.805 64.0836C34.7046 63.967 34.5783 63.8912 34.4779 63.83C33.4535 63.3432 32.3057 63.7863 31.8179 64.2585H31.8208ZM37.3215 67.1792C36.6041 67.6164 36.3459 68.2314 37.1838 68.4588C38.541 68.829 40.7935 67.87 40.4406 67.0772C40.3774 66.9314 40.2598 66.8644 40.1393 66.7915C39.2067 66.3893 37.9155 66.8148 37.3215 67.1792ZM41.8724 69.4032C41.1579 69.7034 40.5869 70.1174 41.0202 70.3097C41.2612 70.4176 41.7261 70.3914 41.8781 70.3855C42.8652 70.0911 43.8408 69.7443 44.8078 69.3508C44.9542 69.1292 44.8422 69.0418 44.7045 68.966C43.9929 68.7153 42.5898 69.1001 41.8753 69.4032H41.8724ZM1.11224 40.2954C1.22128 41.2602 1.4164 42.3533 1.53118 42.4465C1.72917 42.1696 1.25858 38.4648 1.08068 38.1471C1.07494 38.1413 1.06633 38.1354 1.06059 38.1325C0.891299 38.3337 1.10651 40.275 1.10937 40.2954H1.11224ZM2.54409 41.7674C2.69617 43.2161 3.2184 44.4257 3.52543 44.0381C3.90706 43.5542 3.72629 40.6247 3.00319 39.9252C2.56991 39.6541 2.42931 40.6685 2.54409 41.7674ZM5.82384 44.2537C5.91279 45.7841 6.83674 47.3144 7.45367 46.5536C8.00747 45.8686 7.86973 43.5658 6.83387 42.7409C6.05052 42.2775 5.77219 43.3472 5.82384 44.2537ZM10.8482 47.6554C10.7879 49.3868 12.2399 50.8822 13.1351 50.0106C13.8869 49.279 13.6889 47.3697 12.4666 46.4895C11.3991 45.8802 10.8769 46.8043 10.8482 47.6554ZM17.3159 51.7508C17.0117 53.3336 18.5555 54.8289 19.7434 54.106C20.7334 53.5026 20.7534 51.745 19.4192 50.8414C18.214 50.1855 17.4622 50.9783 17.3159 51.7508ZM24.2771 55.9365C23.7032 57.3386 25.1896 58.7552 26.6157 58.1635C27.8151 57.6651 28.102 56.0823 26.7448 55.202C25.5138 54.5607 24.5612 55.2457 24.2771 55.9365ZM31.2441 59.9386C30.475 61.0521 31.4793 62.2647 32.9801 62.0315C34.5841 61.7808 35.2699 60.2126 34.125 59.4081C34.0819 59.379 34.0217 59.344 33.9757 59.3149C32.7907 58.7319 31.663 59.3294 31.2441 59.9386ZM37.7863 63.5181C36.9112 64.3576 37.2985 65.2729 38.5525 65.3311C40.188 65.4069 41.7232 64.069 41.003 63.1975C40.9025 63.075 40.7734 62.9963 40.6701 62.9351C39.6027 62.4513 38.3401 62.9847 37.7863 63.5181ZM43.4764 66.433C42.5869 67.048 42.4865 67.6864 43.2555 67.8525C44.6959 68.1673 47.1521 66.8206 46.6242 66.0045C46.561 65.9083 46.4606 65.85 46.3774 65.8034C45.4563 65.439 44.1077 65.9957 43.4764 66.433ZM0.845388 37.0278C0.825302 36.095 0.925732 33.4804 0.98312 32.8012C0.917123 34.0692 0.839649 35.7598 0.845388 37.0278ZM1.40206 36.0338C1.37623 37.4388 1.64022 38.6047 1.91568 38.3016C2.32314 37.8556 2.44079 34.623 1.94725 34.0284C1.63735 33.8214 1.42214 34.9087 1.40206 36.0338ZM3.9501 38.185C3.88985 39.8319 4.60433 41.1844 5.20117 40.5606C5.82671 39.9077 5.95583 37.3047 5.02327 36.4973C4.34034 36.0834 3.98454 37.2348 3.94723 38.185H3.9501ZM8.45797 41.3914C8.29441 43.1957 9.51678 44.7085 10.4694 43.8865C11.3216 43.149 11.2729 40.9133 10.105 40.0301C9.10646 39.453 8.54118 40.479 8.46084 41.3914H8.45797ZM14.8023 45.5363C14.478 47.2998 16.1337 48.97 17.3733 48.1247C18.3001 47.4922 18.5096 45.5275 17.006 44.4753C15.7492 43.7757 14.9601 44.6735 14.8023 45.5334V45.5363ZM22.2054 50.1039C21.6717 51.7246 23.3531 53.354 24.8137 52.6282C26.0303 52.0219 26.2283 50.1855 24.7563 49.209C23.4306 48.5065 22.4694 49.3081 22.2082 50.1039H22.2054ZM29.8553 54.6044C29.1235 56.0386 30.5095 57.5106 32.1393 57.0238C33.5998 56.5895 34.1393 54.7589 32.6558 53.8116C31.3416 53.147 30.2254 53.8757 29.8553 54.6044ZM37.2899 58.7785C36.4262 59.9591 37.2928 61.1891 38.8595 61.0055C40.5639 60.8073 41.5539 59.14 40.5152 58.2189C40.4377 58.1489 40.3172 58.076 40.2282 58.0207C39.0058 57.4406 37.772 58.1169 37.2899 58.7814V58.7785ZM44.0331 62.3638C43.089 63.3286 43.4506 64.2964 44.7476 64.2789C46.4807 64.2556 48.1249 62.5591 47.2267 61.7225C47.1636 61.6642 47.0632 61.603 46.9886 61.5593C45.9326 61.1075 44.6242 61.7575 44.0331 62.3609V62.3638ZM49.6256 65.1009C48.7303 65.8238 48.5897 66.5262 49.3157 66.6312C49.6514 66.6807 50.0302 66.5845 50.2339 66.5321C51.0574 66.0045 51.8637 65.439 52.6557 64.8356C52.7819 64.4946 52.7274 64.3197 52.452 64.1681C51.5969 63.8708 50.2626 64.582 49.6256 65.1009ZM1.36188 30.4635C1.2385 31.2534 1.10364 32.5564 1.2758 32.6846C1.59431 32.6293 2.23132 28.8108 2.00177 28.3357C1.99316 28.3298 1.98455 28.324 1.97594 28.3182C1.76934 28.3532 1.48814 29.6532 1.36188 30.4635ZM2.98598 32.1483C2.75355 33.6728 3.10936 34.9437 3.66603 34.5764C4.42069 34.0809 4.89414 31.0727 4.14235 30.3265C3.59143 29.9826 3.13519 31.1835 2.98598 32.1454V32.1483ZM6.7564 35.0136C6.44363 36.7888 7.38193 38.2899 8.34893 37.5641C9.31306 36.8412 9.53113 34.3724 8.45223 33.5037C7.55697 32.9761 6.92283 34.0692 6.7564 35.0136ZM12.5526 38.9429C12.148 40.7413 13.6 42.4524 14.9056 41.7178C16.0763 41.0591 16.2312 38.7709 14.8051 37.739C13.5914 37.0511 12.7564 38.0276 12.5498 38.9429H12.5526ZM20.0418 43.6883C19.4737 45.5188 21.2441 47.2881 22.785 46.4282C24.0303 45.7345 24.2111 43.7116 22.6817 42.671C21.3072 41.9277 20.3116 42.8167 20.0418 43.6883ZM28.1192 48.5503C27.4306 50.1768 28.9973 51.847 30.6616 51.2611C32.1422 50.7393 32.5841 48.661 30.9915 47.6204C29.5884 46.8946 28.4693 47.7283 28.1192 48.5473V48.5503ZM43.8236 57.3677C42.9054 58.6561 43.7576 59.9416 45.3444 59.6617C47.1808 59.3353 48.1995 57.359 46.9685 56.5049C46.9254 56.4758 46.8652 56.4408 46.8193 56.4146C45.6113 55.8695 44.3401 56.6448 43.8236 57.3677ZM50.452 60.7665C49.5596 61.7867 49.7805 62.769 50.8967 62.7515C52.6012 62.7223 54.4319 60.7082 53.5395 59.8395C53.4821 59.7842 53.3903 59.7288 53.3214 59.688C52.3314 59.3003 51.0488 60.0873 50.452 60.7665ZM2.19115 26.2399L1.92716 27.2309C2.13376 26.508 3.11223 23.4562 3.28727 22.949C2.94867 23.9342 2.46948 25.2372 2.19115 26.2399ZM3.01467 26.234C2.59574 27.6594 2.63017 28.8283 3.08354 28.5455C3.7349 28.1404 4.73633 24.934 4.24278 24.2986C3.86115 24.0479 3.29588 25.2809 3.01467 26.234ZM5.76358 28.5776C5.29586 30.1953 5.78653 31.5857 6.67032 31.1427C7.73487 30.6122 8.47231 27.7964 7.50819 26.9365C6.76214 26.4876 6.03904 27.6274 5.76358 28.5776ZM10.6904 32.0958C10.1481 33.8856 11.2327 35.5208 12.5354 34.8737C13.8123 34.2383 14.2657 31.7431 12.9544 30.7375C11.8668 30.1108 10.9773 31.1543 10.6932 32.0958H10.6904ZM17.6659 36.6634C17.0548 38.4881 18.6588 40.3333 20.2255 39.6133C21.6143 38.9749 21.9557 36.6401 20.4005 35.5441C19.0289 34.7833 17.9758 35.7394 17.6659 36.6605V36.6634ZM25.861 41.7266C25.1637 43.4842 26.8337 45.3148 28.5267 44.6473C30.0332 44.0555 30.4521 41.7849 28.8079 40.686C27.3617 39.9223 26.214 40.8346 25.861 41.7266ZM56.3888 58.455C55.5337 59.6151 55.7059 60.6236 56.736 60.4866C57.2295 60.4225 57.6973 60.1106 57.8522 60.0086C58.3343 59.4694 58.8049 58.9126 59.264 58.3384C59.6312 57.3794 59.1807 57.1287 59.0344 57.0442C58.1478 56.741 56.9541 57.6855 56.3888 58.455ZM4.35756 20.7745C3.79802 21.9842 3.51108 22.9869 3.74637 22.9257C4.09357 22.8324 5.89844 19.3287 5.68037 18.772C5.49672 18.6408 4.8511 19.7077 4.35756 20.7745ZM6.00174 22.5205C5.34751 24.01 5.48811 25.2809 6.2686 24.9486C7.30733 24.5055 8.57848 21.579 7.82956 20.8036C7.24707 20.4451 6.4092 21.5907 6.00174 22.5205ZM9.93572 25.5286C9.22697 27.2047 9.93285 28.7408 11.1724 28.2249C12.501 27.6711 13.3905 25.0156 12.2485 24.0741C11.3073 23.5261 10.3288 24.5959 9.93572 25.5286ZM16.0304 29.6736C15.2614 31.5304 16.7018 33.358 18.3288 32.5914C19.7664 31.9151 20.28 29.5395 18.808 28.4552C17.5368 27.741 16.4206 28.735 16.0332 29.6707L16.0304 29.6736ZM23.9557 34.7047C23.1695 36.5702 24.8223 38.4677 26.5956 37.7332C28.1393 37.0948 28.6271 34.7192 26.9887 33.5912C25.5454 32.8158 24.346 33.7748 23.9557 34.7047ZM32.5382 39.8785C31.7261 41.7149 33.4105 43.5717 35.2297 42.8459C36.8222 42.2104 37.3301 39.8669 35.6486 38.7563C34.1795 38.0043 32.9456 38.9574 32.5382 39.8756V39.8785ZM5.8181 17.6877C5.81236 17.6993 5.80375 17.711 5.80088 17.7226C6.02757 17.4574 8.34032 13.945 8.3518 13.9216L8.32023 13.9537C7.54549 15.0584 6.50963 16.5305 5.8181 17.6877ZM7.41924 16.9006C6.64449 18.1336 6.40059 19.2034 6.91709 19.1043C7.71766 18.9498 9.7779 15.9446 9.26714 15.2479C8.87116 14.9914 7.95008 16.0582 7.4221 16.9006H7.41924ZM10.1854 19.2704C9.34462 20.7045 9.55409 22.0279 10.5842 21.8034C11.9128 21.512 13.4795 18.7574 12.4924 17.8655C11.7348 17.4107 10.6846 18.4135 10.1825 19.2704H10.1854ZM15.1782 22.8441C14.2944 24.4822 15.1179 26.097 16.6243 25.6773C18.2255 25.2313 19.2757 22.71 17.9041 21.6519C16.808 21.0223 15.6487 21.9696 15.1753 22.8441H15.1782ZM22.2685 27.4904C21.4105 29.2276 22.7936 31.099 24.5411 30.5714C26.2627 30.0525 26.9916 27.6274 25.333 26.4527C23.95 25.6861 22.7104 26.5984 22.2685 27.4904ZM30.63 32.6613C29.772 34.5123 31.465 36.439 33.2957 35.6928C34.9026 35.0369 35.4248 32.7255 33.7433 31.5974C32.2914 30.8308 31.0489 31.7577 30.63 32.6613ZM10.0275 12.1523C9.17245 13.1346 8.65309 14.0033 8.9429 13.9741C9.38766 13.9304 12.0304 11.1584 11.8554 10.622C11.6488 10.4704 10.6617 11.4265 10.0275 12.1523ZM11.5971 13.84C10.6617 15.0002 10.5326 16.1195 11.3389 16.0174C12.5125 15.8688 14.6244 13.3328 13.8783 12.5517C13.3044 12.196 12.1968 13.0909 11.5942 13.84H11.5971ZM15.4163 16.7666C14.4235 18.1424 14.8424 19.5357 16.1738 19.2937C17.7176 19.0139 19.2413 16.6237 18.0906 15.6735C17.1781 15.1371 15.9759 15.9912 15.4163 16.7695V16.7666ZM21.3532 20.8095C20.3632 22.3893 21.5167 24.1149 23.247 23.6486C24.9055 23.2026 25.8208 20.9406 24.3546 19.8651C23.1265 19.1713 21.861 19.9991 21.3532 20.8095ZM29.1006 25.7327C28.2111 27.3971 29.62 29.2218 31.4162 28.7379C33.1551 28.2686 33.8839 25.9513 32.1996 24.7912C30.8108 24.0392 29.5511 24.8903 29.0977 25.7327H29.1006ZM37.5109 30.8075C36.6787 32.6263 38.3631 34.4889 40.1622 33.7369C41.7117 33.0898 42.1737 30.8454 40.5209 29.761C39.1091 29.0323 37.9097 29.9359 37.5109 30.8075ZM12.7879 9.09755L12.2226 9.61931C12.1882 9.65137 12.1538 9.68635 12.1222 9.72133C12.2743 9.68343 15.4622 6.93763 15.4823 6.9114C15.4594 6.91723 15.4565 6.91723 15.3388 7.00467C14.5698 7.62845 13.5225 8.43296 12.7879 9.09755ZM14.0246 9.24912C13.072 10.1061 12.6043 10.9456 13.0433 11.0068C13.709 11.1001 16.7162 8.76525 16.2513 8.09192C15.8783 7.84415 14.7248 8.61951 14.0275 9.24912H14.0246ZM16.5497 11.4382C15.5282 12.473 15.468 13.5719 16.435 13.5777C17.8783 13.5864 19.9414 11.342 19.2298 10.5375C19.2097 10.5142 19.1753 10.4879 19.1523 10.4646C18.4436 10.0361 17.2011 10.7765 16.5497 11.4382ZM21.1781 14.7611C20.1222 16.0204 20.6415 17.4107 22.1193 17.2796C23.8725 17.1251 25.2527 14.9593 24.1996 14.0149C24.1652 13.9829 24.1135 13.9479 24.0791 13.9216C23.0605 13.3328 21.7692 14.0586 21.181 14.7611H21.1781ZM27.7835 19.1014C26.785 20.585 28.0303 22.3106 29.8036 21.9026C31.4765 21.5178 32.3689 19.3812 30.8682 18.3202C29.5827 17.606 28.2885 18.3464 27.7807 19.1014H27.7835ZM35.6314 23.9634C34.7935 25.5316 36.211 27.3096 37.9269 26.8462C39.5539 26.406 40.2196 24.147 38.6099 23.0656C37.2641 22.3544 36.0589 23.1618 35.6314 23.9634ZM43.7863 28.7787C43.0661 30.5306 44.7246 32.3261 46.3573 31.5624C47.7375 30.9182 48.0847 28.6971 46.5467 27.7031C45.221 27.0385 44.1364 27.9305 43.7863 28.7787ZM17.5483 5.6959C16.5583 6.33717 15.8812 6.94637 16.0734 7.02508C16.455 7.18539 19.7864 5.0488 19.709 4.69318C19.5311 4.56201 18.4493 5.11001 17.5483 5.69298V5.6959ZM18.8912 7.17956C17.8754 7.91411 17.4737 8.7157 18.0447 8.86436C19.0863 9.12961 21.9414 7.09503 21.4794 6.41878C21.4679 6.40129 21.445 6.38089 21.4306 6.3634C20.9084 6.03694 19.6344 6.64614 18.8941 7.17956H18.8912ZM22.2685 9.78545C21.2068 10.7007 21.2355 11.7763 22.3259 11.8754C23.8409 12.0153 25.8897 10.176 25.247 9.24912C25.2068 9.19082 25.135 9.12961 25.0805 9.08589C24.2627 8.60202 22.9428 9.2054 22.2685 9.78545ZM27.5626 13.4028C26.5296 14.5367 27.1637 15.9329 28.696 15.8921C30.4492 15.8484 31.7663 14.0149 30.7993 12.9656C30.7333 12.8956 30.63 12.8169 30.5525 12.7615C29.4593 12.1407 28.1451 12.7644 27.5626 13.4028ZM34.5152 17.8305C33.5654 19.2384 34.805 20.8794 36.5267 20.4918C38.1221 20.1332 38.9255 18.1161 37.4564 17.1047C36.2196 16.4343 34.9915 17.1251 34.5152 17.8305ZM42.0962 22.4127C41.3616 23.94 42.739 25.6132 44.3286 25.1264C45.8092 24.6746 46.3286 22.5001 44.8021 21.4974C43.551 20.8503 42.4664 21.6431 42.0991 22.4127H42.0962ZM49.7317 26.8199C49.1722 28.5601 50.7418 30.2303 52.165 29.4083C53.3443 28.7263 53.5165 26.5663 52.099 25.6715C50.9082 25.0914 49.9957 25.995 49.7317 26.8199ZM22.0762 3.05503L20.5985 3.75751C20.2456 3.93532 20.1537 3.9907 20.1107 4.02568C20.2829 4.03734 24.0074 2.30008 24.0275 2.28259C24.0045 2.27967 23.9586 2.27384 23.3732 2.50995L22.0734 3.05794L22.0762 3.05503ZM22.191 3.89742C21.1408 4.41627 20.5153 4.97592 20.828 5.12167C21.4249 5.4015 24.8309 3.77791 24.6673 3.29405C24.6616 3.28239 24.6501 3.26781 24.6444 3.25615C24.3374 3.05503 23.1351 3.43105 22.1939 3.89742H22.191ZM24.3373 5.76877C23.2871 6.38964 22.9428 7.14459 23.6114 7.35446C24.7477 7.71007 27.5368 6.15062 27.1609 5.36652C27.1408 5.32279 27.092 5.27616 27.0547 5.24118C26.432 4.86516 25.0891 5.32279 24.3345 5.76877H24.3373ZM28.2972 8.61951C27.2355 9.42984 27.3388 10.4617 28.498 10.6308C30.0819 10.8581 32.0848 9.2258 31.356 8.30179C31.31 8.24349 31.2326 8.18228 31.1752 8.13564C30.2971 7.62845 28.9657 8.11232 28.3 8.61951H28.2972ZM33.9671 12.3505C32.9973 13.3911 33.6974 14.7524 35.1981 14.7407C36.848 14.7262 38.0675 13.0006 37.1149 12.0299C37.0489 11.9629 36.9456 11.8871 36.871 11.8346C35.772 11.2254 34.5123 11.7705 33.9671 12.3535V12.3505ZM40.7304 16.545C39.904 17.8655 41.1177 19.4162 42.6701 19.0227C44.1077 18.6583 44.7562 16.752 43.3817 15.8251C42.2425 15.2217 41.1436 15.8804 40.7304 16.5421V16.545ZM47.7691 20.7045C47.2066 22.1649 48.5266 23.736 49.8781 23.2142C51.1406 22.7275 51.4591 20.6375 50.0675 19.7397C48.9541 19.1801 48.0531 19.9671 47.7691 20.7045ZM54.6499 24.5871C54.3257 26.2136 55.6341 27.7206 56.7704 27.0327C57.8149 26.4002 57.8407 24.1616 56.5179 23.3425C55.4964 22.8615 54.8106 23.7826 54.6499 24.5871ZM60.9426 27.9538C60.8393 29.6823 62.0444 31.0873 62.8967 30.2332C63.6857 29.4404 63.482 27.0968 62.3228 26.406C61.4074 26.0183 60.9885 27.1522 60.9426 27.9538ZM66.2194 30.5655C66.2854 32.2037 67.0918 33.4192 67.6828 32.7692C68.3514 32.0346 68.0846 29.2713 67.0774 28.7029C66.3916 28.4727 66.1879 29.7231 66.2194 30.5655ZM26.366 1.65589C25.5109 1.92114 24.6099 2.2855 24.6243 2.44291C24.8711 2.62363 28.7448 1.46351 28.7276 1.21575C28.564 1.09624 27.3502 1.35275 26.366 1.65589ZM27.4363 2.8539C26.3775 3.24741 25.7979 3.76043 26.1939 3.95281C26.9313 4.31425 30.1967 3.19786 30.1192 2.61197C30.1164 2.5799 30.0877 2.54784 30.0676 2.52452C29.6659 2.27384 28.389 2.5012 27.4363 2.8539ZM30.1738 4.97301C29.1293 5.48603 28.8452 6.18559 29.5798 6.43919C30.7907 6.85893 33.5281 5.57347 33.069 4.80103C33.0432 4.75731 32.9887 4.71067 32.9485 4.67569C32.2742 4.27927 30.894 4.6174 30.1738 4.9701V4.97301ZM34.4836 7.91994C33.4937 8.62534 33.6716 9.62222 34.828 9.82335C36.4406 10.1061 38.0733 8.69238 37.5338 7.83541C37.4621 7.72173 37.3588 7.64594 37.2785 7.58473C36.3861 7.08046 35.1063 7.47688 34.4865 7.91994H34.4836ZM40.1622 11.5402C39.2985 12.5138 39.9843 13.7613 41.3674 13.7293C42.848 13.6972 43.8753 12.0969 42.9829 11.2108C42.9226 11.1496 42.8279 11.0855 42.759 11.0359C41.7576 10.4938 40.6385 11.0039 40.1622 11.5373V11.5402ZM46.3659 15.2946C45.7059 16.5713 46.8508 17.9821 48.1909 17.5507C49.3989 17.1601 49.8322 15.3528 48.5926 14.5367C47.5912 14.0208 46.6873 14.6708 46.363 15.2946H46.3659ZM52.627 18.9119C52.2769 20.3489 53.505 21.7714 54.5839 21.1797C55.5681 20.6433 55.6284 18.635 54.406 17.8596C53.4649 17.402 52.7992 18.2007 52.627 18.9119ZM58.5523 22.1736C58.4835 23.7477 59.6972 25.1206 60.4892 24.3656C61.218 23.669 60.9598 21.5003 59.8321 20.8124C58.9598 20.4247 58.5839 21.442 58.5523 22.1736ZM63.7632 24.8699C63.9354 26.5984 64.9569 27.6711 65.4504 26.9832C66.0329 26.1699 65.4275 23.7273 64.5121 23.1909C63.8177 22.9257 63.6829 24.08 63.7632 24.867V24.8699ZM31.2096 0.387925C30.2225 0.536583 29.3273 0.717305 29.2154 0.775602C29.3531 0.807666 33.4277 0.172225 33.4535 0.160565C33.3387 0.128502 32.3115 0.221778 31.2096 0.387925ZM31.3273 0.962154C30.2971 1.15162 29.5454 1.43728 29.686 1.58594C29.9528 1.87451 33.904 1.207 33.8696 0.880538C33.8696 0.871793 33.861 0.863048 33.8552 0.854304C33.6027 0.691071 32.3201 0.778517 31.3273 0.959239V0.962154ZM32.9255 2.37295C31.8696 2.64986 31.3387 3.09001 31.7864 3.31154C32.5841 3.70796 35.8064 2.93843 35.6601 2.38461C35.6515 2.35255 35.6171 2.32048 35.5941 2.30008C35.1579 2.03774 33.861 2.1281 32.9255 2.37295ZM35.9212 4.53869C34.9886 4.92054 34.7132 5.49769 35.3186 5.79792C36.4721 6.37215 39.0144 5.27907 38.7562 4.59991C38.7246 4.51829 38.6558 4.46291 38.5984 4.41919C37.9212 4.02859 36.6013 4.26178 35.9212 4.53869ZM40.234 7.38361C39.3473 7.99864 39.5711 8.92265 40.65 9.11795C42.1163 9.38029 43.5395 8.12981 43.0144 7.36029C42.9456 7.25827 42.8509 7.19122 42.7763 7.13584C41.9441 6.67529 40.7677 7.0105 40.234 7.38361ZM45.4161 10.6045C44.6701 11.5489 45.4477 12.7266 46.6959 12.5429C47.9498 12.3593 48.5811 10.8436 47.6887 10.1615C47.66 10.1382 47.617 10.1119 47.5854 10.0915C46.7275 9.63971 45.8006 10.1207 45.4161 10.6045ZM50.8221 13.8051C50.386 15.0089 51.4477 16.2798 52.4893 15.8047C53.396 15.3907 53.5739 13.6681 52.5323 12.9918C51.7059 12.5779 51.0345 13.2192 50.8221 13.8051ZM56.1191 16.8015C56.0158 18.3144 57.1951 19.4133 57.8981 18.8099C58.6126 18.1948 58.2539 16.2565 57.3156 15.6706C56.5696 15.3237 56.1679 16.1224 56.1191 16.8015ZM60.977 19.4074C61.1893 20.996 62.208 22.0221 62.6671 21.4216C63.1951 20.7279 62.5265 18.4922 61.6312 17.9558C60.9741 17.6818 60.8823 18.702 60.977 19.4074ZM65.0659 21.4391C65.4877 22.9811 66.2481 23.8847 66.5293 23.4591C66.9483 22.8237 65.9899 20.1391 65.1807 19.6785C64.6441 19.5036 64.9167 20.8911 65.0659 21.4391ZM38.1823 0.0410559C37.2383 0.0293965 35.9757 -0.00558194 35.0317 0.0264816C36.4406 -0.0289009 37.683 0.0148221 38.2971 0.0468857L38.1823 0.0410559ZM35.9011 0.151821C34.9743 0.172225 34.1709 0.256756 34.0331 0.350032C34.1623 0.571562 38.2856 0.323798 38.32 0.306309C38.32 0.303394 38.3229 0.297564 38.3229 0.294649C38.1995 0.207203 37.0575 0.125587 35.9011 0.151821ZM36.6127 0.973813C35.5023 1.05251 34.9169 1.27113 35.0862 1.41979C35.4162 1.70836 39.3014 1.481 39.201 1.17785C39.1981 1.16911 39.1866 1.16036 39.1809 1.15162C38.9054 0.982558 37.683 0.898027 36.6127 0.973813ZM38.5066 2.44874C37.5883 2.60322 37.0862 2.93552 37.4133 3.16871C38.0561 3.62926 41.3301 3.17454 41.1378 2.64986C41.1263 2.62071 41.0948 2.59448 41.0718 2.57407C40.6271 2.31465 39.3875 2.30008 38.5066 2.44874ZM41.5108 4.51246C40.6816 4.80686 40.4578 5.31696 41.0345 5.59971C42.1565 6.15353 44.3659 5.28199 44.0818 4.66112C44.0503 4.59116 43.9843 4.54161 43.9326 4.50372C43.2985 4.1481 42.1106 4.29676 41.508 4.51246H41.5108ZM45.4936 7.05714C44.693 7.64886 45.0546 8.41255 45.9068 8.54955C47.1234 8.74776 48.2425 7.64011 47.7805 6.98718C47.7203 6.90265 47.6428 6.85018 47.5825 6.80646C46.891 6.43627 45.9269 6.7365 45.4936 7.05714ZM49.8695 9.70967C49.3157 10.6453 50.1478 11.5927 51.0316 11.3799C52.0244 11.1409 52.3171 9.70092 51.485 9.1471C50.8049 8.80023 50.1306 9.26661 49.8695 9.70967ZM54.2913 12.2689C54.122 13.4932 55.1492 14.4726 55.7805 13.9887C56.4204 13.499 56.1736 11.89 55.3788 11.3799C54.7561 11.0797 54.3687 11.7209 54.2913 12.2689ZM58.4892 14.5833C58.7016 15.9766 59.6255 16.8977 60.0301 16.3818C60.4777 15.8076 59.8264 13.8634 59.0229 13.3649C58.4634 13.1201 58.4003 13.9829 58.4921 14.5833H58.4892ZM62.1936 16.5042C62.7101 18.0054 63.5107 18.8274 63.7058 18.3231C63.9583 17.6731 62.9282 15.4199 62.1736 14.9739C61.6944 14.7961 62.0243 16.0174 62.1908 16.5042H62.1936ZM40.8652 0.300479C39.8954 0.17514 39.0891 0.119757 38.8796 0.131417C38.9198 0.16931 43.1321 0.72022 43.1636 0.717305C43.0316 0.659008 42.0331 0.452052 40.8652 0.300479ZM40.9226 0.647348C40.0159 0.554072 39.2354 0.551158 39.1464 0.638604C39.1952 0.685241 39.2555 0.746454 40.4233 0.874708C40.541 0.886367 43.3071 1.18951 43.3788 1.10207C43.2268 1.00588 42.1019 0.766858 40.9197 0.644433L40.9226 0.647348ZM41.904 1.51598C40.9054 1.47517 40.3688 1.59176 40.4463 1.72585C40.5926 1.98236 44.1249 2.19223 44.3831 1.95904C44.3774 1.94738 44.3688 1.92989 44.3631 1.91823C44.0847 1.755 42.8681 1.55387 41.904 1.51598ZM43.7547 2.85682C42.8796 2.92094 42.5381 3.1483 42.716 3.33194C43.1866 3.81872 46.079 3.53307 46.122 3.20952C46.1277 3.17454 46.0933 3.14539 46.0618 3.11915C45.6744 2.89762 44.5237 2.79852 43.7547 2.8539V2.85682ZM46.4262 4.62323C45.6572 4.85933 45.594 5.28199 46.0503 5.50643C46.9599 5.94658 48.7762 5.27907 48.5524 4.78937C48.5295 4.73691 48.4778 4.69901 48.4376 4.66986C47.9814 4.41919 47.0115 4.44542 46.4262 4.62323ZM49.6543 6.62865C49.0574 7.13876 49.3759 7.77128 50.0388 7.85581C50.9455 7.96949 51.703 7.00759 51.33 6.48874C51.2841 6.42461 51.2267 6.38672 51.1808 6.35466C50.67 6.0894 49.9699 6.36049 49.6543 6.62865ZM53.023 8.62534C52.7504 9.49105 53.4563 10.2722 54.0416 10.007C54.6557 9.73007 54.6298 8.42421 54.0043 8.01322C53.5337 7.78294 53.1492 8.23183 53.023 8.62534ZM56.3257 10.4938C56.4778 11.6014 57.2582 12.3913 57.5854 11.9774C57.967 11.4936 57.3414 9.92245 56.7389 9.54352C56.2683 9.32782 56.2855 10.179 56.3285 10.4967L56.3257 10.4938ZM59.3587 12.1232C59.8866 13.4115 60.6069 14.1315 60.7388 13.7059C60.9168 13.1317 59.8149 11.2196 59.2066 10.8523C58.7704 10.6774 59.3357 12.0649 59.3587 12.1232ZM61.9182 13.397C62.7245 14.7757 63.2869 15.3412 63.3443 15.0759C63.4562 14.5629 61.8321 12.1815 61.2439 11.8433C61.2295 11.8375 61.2037 11.8346 61.1894 11.8404C61.1119 11.9949 61.7288 13.0705 61.9182 13.397ZM45.9011 1.30902C44.8336 1.00588 43.9843 0.825155 43.9011 0.810581C44.6414 1.02045 45.3932 1.18951 46.1335 1.40521C46.7877 1.59759 47.4219 1.84827 48.079 2.02316C48.0072 1.98819 47.1263 1.65589 45.9011 1.30611V1.30902ZM45.6199 1.35566C44.7217 1.11373 43.9039 0.953409 43.7346 0.956324C43.8638 1.04377 47.9527 2.12227 47.9728 2.11936C47.8064 2.03482 46.8078 1.67338 45.6199 1.35566ZM45.9671 1.76374C45.178 1.58302 44.4807 1.47809 44.3028 1.51598C44.3028 1.52472 44.3028 1.53347 44.2999 1.54221C44.4807 1.65006 48.2396 2.52161 48.3229 2.47205C48.1851 2.39044 47.1263 2.02899 45.9642 1.76083L45.9671 1.76374ZM46.9082 2.49829C46.3057 2.4021 45.6256 2.34963 45.5539 2.46331C45.6313 2.7169 48.9168 3.13664 49.1206 3.08709C49.1177 3.08126 49.1148 3.07252 49.1119 3.06377C48.9082 2.94718 47.8695 2.64986 46.9082 2.49537V2.49829ZM48.4089 3.53015C47.6571 3.50683 47.3501 3.64966 47.4965 3.7954C47.6256 3.92366 48.099 4.02568 48.6729 4.049C49.3128 4.07523 50.3573 4.01985 50.3401 3.912C50.3372 3.89742 50.3171 3.88576 50.3056 3.87411C50.0589 3.73711 49.1349 3.55347 48.4089 3.53307V3.53015ZM50.4061 4.80686C49.8551 4.95261 49.769 5.24118 50.033 5.40441C50.6729 5.80083 51.9986 5.20037 51.8982 4.90888C51.8867 4.87682 51.858 4.85642 51.8322 4.83893C51.5653 4.69901 50.8709 4.68444 50.4061 4.80686ZM52.604 6.13896C52.2396 6.59951 52.5553 7.11835 53.0316 7.08337C53.6571 7.03382 53.8293 6.10106 53.505 5.84456C53.4964 5.83581 53.4821 5.82707 53.4706 5.82124C53.1865 5.68132 52.7791 5.92034 52.604 6.14187V6.13896ZM54.8278 7.42733C54.8967 8.29013 55.4763 8.79732 55.7001 8.50583C55.9756 8.1473 55.4792 7.00176 55.1033 6.75691C54.7762 6.60825 54.825 7.41858 54.825 7.42733H54.8278ZM56.9397 8.59327C57.4763 9.68635 57.9613 10.0915 58.0473 9.87873C58.1994 9.4998 57.0746 7.87039 56.6356 7.59348C56.5782 7.57016 56.472 7.52643 56.7446 8.16479C56.7704 8.22892 56.845 8.39798 56.9397 8.59327ZM58.8049 9.56101C59.9325 11.1146 60.1018 11.0593 60.1248 11.0039C60.2539 10.724 58.4892 8.58745 57.9612 8.26681C57.9555 8.2639 57.9469 8.26098 57.9412 8.26098C57.9326 8.29887 57.9211 8.3426 58.8049 9.55809V9.56101ZM50.693 3.05794C49.6715 2.58865 48.8537 2.28842 48.848 2.2855C50.4663 2.97341 50.4663 2.97341 52.7332 4.09564C52.7246 4.08981 51.8838 3.60302 50.6959 3.05794H50.693ZM50.4032 2.98507C49.4276 2.55076 48.6873 2.2855 48.5295 2.23595C48.561 2.25927 48.561 2.25927 48.8623 2.37878C49.287 2.55076 49.9957 2.8335 50.7934 3.19203C51.4161 3.47185 52.0158 3.79832 52.6385 4.08106C52.6299 4.07523 51.6801 3.55055 50.4032 2.98507ZM50.4118 3.08418C49.4706 2.69067 48.7561 2.45457 48.6213 2.43125C48.6528 2.45165 48.6959 2.47205 48.7303 2.48663C49.5165 2.81892 50.3228 3.09584 51.1091 3.42813C51.6342 3.65258 52.1363 3.9324 52.67 4.13644C52.5266 4.05774 51.5596 3.56513 50.4147 3.08418H50.4118ZM50.6987 3.3436C49.9183 3.0492 49.3099 2.86848 49.1349 2.85099C49.155 2.88305 49.155 2.88305 49.2554 2.92094C49.9211 3.17454 50.6012 3.38441 51.2669 3.63217C51.7834 3.82455 52.2855 4.06066 52.802 4.25304C52.8049 4.25304 52.8049 4.25304 52.8078 4.25304C52.6815 4.18891 51.7633 3.74294 50.6987 3.3436ZM51.2525 3.74585C50.6442 3.55639 50.1076 3.43979 50.0072 3.47477C50.0244 3.501 50.0359 3.52432 50.3171 3.61177C50.3515 3.62343 53.0345 4.42501 53.0517 4.43084C53.0086 4.40753 52.188 4.04025 51.2497 3.74877L51.2525 3.74585ZM52.0531 4.27636C51.5194 4.18017 51.2152 4.20349 51.2411 4.27927C51.2468 4.29385 51.2898 4.36672 51.7088 4.4425C51.7145 4.4425 53.3845 4.6582 53.3931 4.6582C53.3931 4.65529 53.396 4.65529 53.396 4.65237C53.3185 4.61157 52.6729 4.39004 52.0531 4.27636ZM53.0287 4.88556C52.6729 4.95261 52.5811 5.12167 52.7418 5.22077C53.1004 5.43939 53.8092 4.97301 53.8063 4.91471C53.8063 4.9118 53.8006 4.90597 53.7977 4.90305C53.7231 4.86807 53.33 4.83018 53.0287 4.88848V4.88556ZM54.0502 5.49186C53.9641 5.94366 54.2769 6.22932 54.4261 6.10398C54.6385 5.92326 54.3343 5.23535 54.2109 5.14499C54.1478 5.11875 54.0588 5.43647 54.0502 5.49186ZM55.0545 6.06026C55.6801 7.08629 55.7776 6.95512 55.792 6.92014C55.878 6.68404 54.868 5.54432 54.6155 5.36943C54.6184 5.38692 54.6184 5.38692 54.6643 5.45396C54.8164 5.66966 54.9024 5.80958 55.0574 6.06026H55.0545ZM55.9785 6.5587C56.9598 7.60513 56.9598 7.60513 57.0631 7.64011C57.066 7.63428 57.0717 7.62554 57.0746 7.61971C56.9254 7.19705 55.3329 5.79209 54.977 5.56181C55.0029 5.59971 55.0402 5.62303 55.0717 5.65509C55.2927 5.85913 55.5423 6.09523 55.9785 6.5587ZM56.7618 6.94929C58.1105 8.15313 58.1105 8.15313 58.1391 8.1677C58.1334 7.91411 55.8694 6.07483 55.2783 5.70756C55.7575 6.14187 56.2798 6.51789 56.7618 6.94637V6.94929Z" fill="url(#paint1_linear_104_34)"/>
<defs>
<linearGradient id="paint0_linear_104_34" x1="119.051" y1="35.9142" x2="154.317" y2="59.1891" gradientUnits="userSpaceOnUse">
<stop stop-color="#386AE7"/>
<stop offset="1" stop-color="#38E8DE"/>
</linearGradient>
<linearGradient id="paint1_linear_104_34" x1="0.842773" y1="0" x2="85.2685" y2="25.0926" gradientUnits="userSpaceOnUse">
<stop stop-color="#386AE7"/>
<stop offset="1" stop-color="#38E8DE"/>
</linearGradient>
</defs>
</svg>
