<svg id="sugarwired" xmlns="http://www.w3.org/2000/svg" width="921.32" height="1063.84" viewBox="0 0 921.32 1063.84">
  <path id="Path_204" data-name="Path 204" d="M82.85,750.05V313.8L0,265.96V797.88L230.33,930.86l230.33,132.98L690.99,930.86,921.32,797.88V265.96L460.66,0,377.81,47.83,838.46,313.8V750.05L460.65,968.18,82.84,750.05ZM687.82,400.77V663.08L460.65,794.24,233.48,663.08V400.78l-82.85-47.84V710.92L460.65,889.91,770.67,710.92V352.94L310.01,86.98l-79.69,46.01-3.16,1.82L687.82,400.78ZM159.37,173.94,76.52,221.77,537.17,487.74V576.1l-76.53,44.19L384.11,576.1V487.74L301.26,439.9V623.93l159.38,92.02,159.38-92.02V439.9L159.36,173.94Z" fill="#fff"/>
</svg>
