<svg width="359" height="75" viewBox="0 0 359 75" fill="none" xmlns="http://www.w3.org/2000/svg">
<path d="M30.2401 35.8868C31.853 38.7094 28.224 39.5158 26.6111 39.7174C24.1918 39.9191 23.587 38.5078 23.9902 36.6933C24.1918 36.0884 24.595 35.4836 24.9982 35.0804C25.4015 34.6772 26.2079 34.2739 26.8127 34.2739C27.4176 34.2739 28.224 34.2739 28.6273 34.6772C29.4337 34.8788 29.8369 35.282 30.2401 35.8868Z" fill="url(#paint0_linear_534_687)"/>
<path d="M39.918 30.8462C38.1035 44.959 62.7001 41.9348 62.2969 53.0235C64.7162 49.7977 65.7243 41.33 58.6678 36.8945C52.2163 32.8623 43.9502 35.08 39.918 30.8462Z" fill="url(#paint1_linear_534_687)"/>
<path d="M54.2313 25.4027C54.0297 25.2011 53.8281 25.2011 53.8281 24.9995C53.8281 25.2011 54.0297 25.4027 54.2313 25.4027Z" fill="url(#paint2_linear_534_687)"/>
<path d="M59.877 35.6852C59.6754 35.282 59.4737 34.8788 59.0705 34.4755C58.2641 33.2659 57.0544 32.4594 55.6431 32.2578C54.8367 32.0562 53.8286 31.8546 52.8206 31.8546C51.8125 31.8546 51.006 31.653 49.998 31.653C47.9819 31.4514 46.1674 31.2497 44.1513 30.8465C43.748 30.6449 43.1432 30.6449 42.74 30.4433C42.5384 30.4433 42.3367 30.2417 41.9335 30.2417C41.7319 30.0401 41.5303 30.0401 41.1271 29.8385C40.119 29.4352 39.3126 28.6288 38.7077 28.024C37.2965 26.6127 36.0868 24.9998 34.8771 23.5885C33.6674 21.9756 32.6594 20.5643 31.2481 19.153C30.0384 17.7418 28.4255 16.5321 26.8127 15.7256C25.1998 14.9192 23.1836 14.3144 21.3691 14.1128C23.3853 13.9111 25.4014 14.1128 27.2159 14.9192C29.0304 15.7257 30.8449 16.7337 32.2562 18.145C33.2642 18.9514 34.0707 19.9595 34.8771 20.9676C41.1271 19.7579 45.9658 20.7659 49.7964 22.9837C51.0061 23.5885 52.2157 24.3949 53.2238 25.403C53.4254 25.6046 53.627 25.6046 53.627 25.8062C54.4335 26.6127 55.2399 27.4191 55.8447 28.2256C58.6673 30.8465 59.877 33.8707 59.877 35.6852Z" fill="url(#paint3_linear_534_687)"/>
<path d="M21.9731 15.7251C23.586 15.9267 25.1989 16.5315 26.2069 17.7412C27.215 18.9509 27.6182 20.5638 28.0214 21.9751C28.2231 23.1847 28.4247 24.3944 28.8279 25.4025C29.0295 26.0073 29.4327 26.4105 29.6343 26.8137C29.8359 27.217 30.2392 27.6202 30.4408 28.0234V28.225V28.4266C29.8359 29.0315 28.4247 28.4266 27.8198 28.0234C26.8118 27.6202 26.0053 26.8137 25.1989 26.0073C22.9812 23.588 21.7715 19.9589 21.7715 16.7332C21.7715 16.5315 21.9731 16.1283 21.9731 15.7251Z" fill="url(#paint4_linear_534_687)"/>
<path d="M48.1817 43.9512C44.7543 53.4269 60.2784 59.8785 54.4317 69.5559C60.2784 67.1365 63.101 59.6769 60.6816 53.8301C58.6655 48.5882 52.214 46.5721 48.1817 43.9512Z" fill="url(#paint5_linear_534_687)"/>
<path d="M27.8203 56.2499C28.8284 55.6451 29.8364 55.0403 30.8445 54.4354C31.8525 54.0322 33.0622 53.629 34.2719 53.4274C36.4896 53.0241 38.909 52.8225 40.7235 52.0161C41.7315 51.6129 42.538 51.2096 43.3444 50.4032C44.1509 49.7984 44.5541 48.9919 44.9573 47.9839C45.3605 46.9758 45.3605 45.9677 45.3605 44.9597C45.3605 43.75 44.9573 42.7419 44.5541 41.7339C45.3605 42.5403 45.9654 43.75 46.3686 44.9597C46.7718 46.1693 46.7718 47.379 46.5702 48.5887C46.3686 49.7983 45.5621 51.008 44.7557 52.0161C43.9492 52.8225 42.7396 53.629 41.5299 54.0322C40.3202 54.4354 39.1106 54.637 37.9009 54.8386C36.6912 54.8386 35.6832 55.0403 34.4735 55.0403C32.2558 55.0403 30.038 55.4435 27.8203 56.2499Z" fill="url(#paint6_linear_534_687)"/>
<path d="M49.5925 72.9838C49.1893 73.1854 48.9876 73.5886 48.5844 73.7902C48.1812 73.9918 47.778 74.1935 47.3748 74.3951C46.5683 74.7983 45.5602 74.9999 44.5522 74.9999C41.9312 74.9999 40.1167 72.9838 39.1087 70.7661C38.3022 69.3548 37.899 67.7419 37.0926 66.3306C35.8829 64.3145 33.6652 62.7016 31.2458 62.9032C30.2378 63.1048 29.2297 63.508 28.8265 64.3145C27.4152 66.5322 29.4313 69.758 32.2539 69.3548C32.4555 69.3548 32.6571 69.3548 32.8587 69.1532C33.0603 69.1532 33.2619 68.9516 33.4635 68.7499C33.8668 68.3467 34.0684 67.9435 34.27 67.5403C34.4716 67.137 34.4716 66.5322 34.4716 65.9274C34.27 65.3225 34.0684 64.9193 33.6652 64.7177C34.27 64.9193 34.6732 65.3225 34.8748 65.9274C34.6732 66.9354 34.6732 67.5403 34.6732 68.1451C34.4716 68.7499 34.27 69.3548 33.8668 69.758C33.6652 69.9596 33.4635 70.1612 33.0603 70.3628C32.8587 70.5645 32.4555 70.7661 32.2539 70.7661C31.649 70.9677 31.0442 70.9677 30.4394 70.9677C29.6329 70.7661 28.6249 70.5644 28.02 69.9596C27.2136 69.3548 26.6088 68.3467 25.8023 67.7419C24.9959 66.7338 23.9878 66.129 22.7781 65.5242C21.9717 65.1209 21.1652 64.9193 20.3588 64.7177C19.9556 64.7177 19.5523 64.5161 19.1491 64.5161C18.9475 64.5161 17.9395 64.3145 17.9395 64.3145C19.3507 63.1048 20.762 62.0968 22.1733 61.0887C23.7862 60.0806 25.3991 59.4758 27.2136 58.871C29.0281 58.2661 30.8426 58.2661 32.8587 58.4677C33.8668 58.6694 34.6732 58.871 35.6813 59.2742C36.6893 59.6774 37.4958 60.2822 38.3022 60.8871C39.1087 61.6935 39.7135 62.5 40.1167 63.3064C40.52 64.1129 40.7216 65.1209 40.9232 66.129C41.528 68.9516 41.3264 73.387 44.9554 73.9918C45.157 73.9918 45.3586 73.9918 45.5602 73.9918H46.1651C46.5683 73.9918 46.9715 73.9918 47.3748 73.7902C47.9796 73.7902 48.786 73.387 49.5925 72.9838Z" fill="url(#paint7_linear_534_687)"/>
<path d="M24.7982 30.0401C24.5966 30.645 24.395 31.0482 24.1934 31.4514C23.5886 32.2579 22.7821 32.8627 21.9757 33.2659C21.1692 33.6691 20.3628 33.8708 19.3547 33.8708C19.1531 33.8708 18.9515 33.8708 18.7499 33.8708C18.145 33.8708 17.7418 34.0724 17.137 34.4756C16.7338 34.8788 16.3305 35.282 16.3305 35.8869C16.3305 36.0885 16.1289 36.4917 16.1289 36.6933C16.1289 37.4998 15.9273 38.1046 15.9273 39.1127C15.7257 40.7256 15.3225 42.1368 14.7177 43.5481C13.9112 45.3626 12.9031 46.9755 13.1048 48.9916C13.3064 50.4029 13.9112 51.411 14.9193 52.2174C16.5322 54.0319 20.3628 54.8384 19.5563 59.0722C18.9515 61.6932 14.7177 64.3141 8.87091 65.3222C9.47575 65.3222 8.06446 62.9028 8.06446 62.7012C7.45963 61.6932 6.65318 60.6851 6.24996 59.677C5.2419 57.6609 4.83868 55.04 5.2419 52.8222C5.64512 50.4029 7.45963 48.5884 8.87091 46.5723C10.6854 44.3546 12.4999 41.532 12.9031 38.5078C12.9031 37.903 13.1048 36.8949 13.3064 36.0885C13.508 35.0804 13.7096 34.274 14.1128 33.2659C14.3144 32.6611 14.7176 32.2579 15.3225 31.653C15.5241 31.4514 15.7257 31.0482 15.7257 30.8466C15.7257 30.4434 15.7257 30.2417 15.5241 29.8385L6.04835 12.7015L19.7579 29.6369C19.9596 29.8385 20.1612 30.0401 20.3628 30.0401C20.5644 30.2417 20.766 30.2417 21.1692 30.2417C21.3708 30.2417 21.5724 30.2417 21.9757 30.0401C22.1773 29.8385 22.3789 29.8385 22.5805 29.6369C22.7821 29.4353 22.7821 29.2337 22.7821 28.8305C22.7821 28.6289 22.7821 28.2256 22.5805 28.024C21.7741 26.8144 20.766 25.8063 19.7579 24.5966L16.3305 20.3628L9.47575 11.8951L0 0L10.2822 11.0886L17.5402 19.1531L21.1692 23.1853C22.3789 24.5966 23.5886 25.8063 24.7982 27.4192L24.9998 27.6208V28.024C24.9998 28.8305 24.9998 29.4353 24.7982 30.0401Z" fill="url(#paint8_linear_534_687)"/>
<path d="M28.0235 69.7579C27.4187 69.153 26.8138 68.5482 26.209 67.9434C26.8138 68.7498 27.217 69.3546 28.0235 69.7579Z" fill="url(#paint9_linear_534_687)"/>
<path fill-rule="evenodd" clip-rule="evenodd" d="M205.644 24.1933C198.991 25.8062 195.966 31.0481 197.781 37.2981C198.587 39.919 201.007 42.7416 204.636 44.7577C210.886 48.3867 212.902 49.798 213.91 52.0157C214.716 53.8302 214.918 54.4351 214.515 56.2496C213.507 60.2818 210.684 62.2979 206.652 62.2979C202.62 62.2979 199.797 60.0802 198.991 56.2496C198.789 54.6367 198.386 54.2335 197.781 54.2335C196.974 54.2335 196.773 54.6367 196.773 58.4673V62.7011L199.394 63.5076C203.628 64.9189 209.474 64.7173 212.902 63.1044C219.757 59.8786 222.378 53.6286 219.353 47.7819C218.144 45.5641 215.321 43.1448 210.482 40.1206C205.241 36.8949 203.023 34.6771 202.62 32.4594C202.015 28.8304 205.241 26.0078 209.676 26.0078C213.103 26.0078 214.515 26.8143 215.724 29.4352C216.531 31.0481 216.934 31.653 217.942 31.653C218.95 31.653 219.152 31.4513 218.749 30.4433C218.547 29.8384 218.345 28.2256 218.345 27.0159C218.345 25.403 218.144 24.5965 217.539 24.3949C216.128 23.7901 207.458 23.5885 205.644 24.1933ZM72.5801 25.6046C72.5801 26.4111 72.9833 26.6127 73.7898 26.6127C76.2091 26.6127 76.4107 27.2175 76.6123 41.9351C76.8139 54.6367 77.0155 55.6447 78.0236 57.6609C79.4349 60.2818 81.451 62.0963 84.4752 63.5076C86.4913 64.5157 87.9026 64.7173 92.1364 64.7173C96.5719 64.7173 97.5799 64.5157 99.9993 63.306C101.612 62.4995 103.628 61.0883 104.435 60.0802C107.257 56.6528 107.661 54.8383 107.862 40.7255C108.265 27.0159 108.265 26.8143 110.483 26.8143C111.088 26.8143 111.29 26.411 111.29 25.8062C111.29 24.7982 110.886 24.7982 105.241 24.7982C99.596 24.7982 99.1928 24.7982 99.1928 25.8062C99.1928 26.6127 99.596 26.8143 100.806 27.0159C103.427 27.2175 103.628 28.2256 103.628 40.7255C103.628 53.427 103.225 55.8463 100.402 58.4673C97.9831 60.8866 95.967 61.6931 92.5396 61.6931C87.701 61.6931 84.0719 59.4754 83.0639 55.4431C82.6607 54.0318 82.459 49.1932 82.6607 40.5239L82.8623 27.6207L84.6768 27.0159C85.6848 26.6127 86.4913 26.0078 86.6929 25.6046C86.8945 24.7982 86.0881 24.7982 79.8381 24.7982C72.9833 24.5965 72.5801 24.5965 72.5801 25.6046ZM119.556 25.6046C119.556 26.4111 119.959 26.6127 120.967 26.6127C123.588 26.6127 124.999 27.6207 125.604 29.8384C126.007 31.0481 126.007 36.8949 126.007 45.1609C125.806 60.0802 125.604 61.0882 122.58 61.6931C121.572 61.8947 121.168 62.2979 121.168 62.9028C121.168 63.7092 121.572 63.9108 128.225 63.9108C134.676 63.9108 135.281 63.9108 135.281 63.1044C135.281 62.4995 134.676 62.0963 133.064 61.6931C131.047 61.0882 130.846 60.8866 130.241 59.2738C129.435 56.8544 129.435 34.0723 130.039 34.2739C130.241 34.2739 132.257 36.29 134.475 38.911C136.693 41.5319 142.539 48.1851 147.781 53.6286C155.846 62.2979 157.257 63.9108 158.467 63.9108H159.878L160.08 46.169C160.281 33.4675 160.483 28.2256 160.886 27.8223C161.289 27.4191 162.297 27.0159 163.104 26.8143C164.112 26.6127 164.717 26.2094 164.717 25.8062C164.717 25.2014 163.507 24.9998 157.862 24.9998C151.209 24.7982 151.007 24.7982 151.007 25.8062C151.007 26.6127 151.41 26.8143 152.217 26.8143C152.822 26.8143 154.031 27.4191 154.838 28.0239L156.249 29.2336L156.451 41.3303C156.451 48.1851 156.451 53.427 156.249 53.427C156.047 53.427 154.434 51.8141 152.822 49.9996C151.209 48.1851 146.572 42.9432 142.539 38.5077C138.507 34.0723 134.072 29.2336 132.66 27.6207L130.241 24.7982H124.999C119.757 24.5965 119.556 24.5965 119.556 25.6046ZM172.378 25.6046C172.378 26.4111 172.781 26.6127 173.789 26.6127C174.596 26.6127 175.604 27.0159 176.208 27.4191C177.217 28.0239 177.217 29.032 177.418 42.9432C177.62 60.2818 177.418 61.2899 174.394 61.6931C172.983 61.8947 172.378 62.2979 172.378 62.9028C172.378 63.7092 172.983 63.9108 180.039 63.9108C187.297 63.9108 187.7 63.9108 187.7 62.9028C187.7 62.0963 187.297 61.8947 186.491 61.8947C185.886 61.8947 184.878 61.4915 184.273 61.0883C183.265 60.4834 183.265 59.4754 183.063 44.5561C182.862 29.2336 182.862 28.6288 183.87 27.6207C184.475 27.0159 185.483 26.6127 186.087 26.6127C187.095 26.6127 187.297 26.4111 187.297 25.6046C187.297 24.5965 186.894 24.5965 179.636 24.5965C172.781 24.5965 172.378 24.5965 172.378 25.6046ZM225.402 25.6046C225.603 26.2094 226.007 26.6127 226.813 26.6127C227.418 26.6127 228.426 27.2175 229.031 27.8223C229.636 28.4272 233.063 36.6932 236.894 46.5722L243.547 64.1124L245.361 64.314L247.176 64.5157L251.813 52.0157C254.434 45.1609 256.853 38.911 257.055 38.3061C257.66 37.0965 257.66 37.2981 259.272 41.3303C260.079 43.7497 262.498 49.798 264.514 55.0399L268.143 64.5157H269.756C270.563 64.5157 271.369 64.314 271.571 63.9108C271.772 63.5076 273.99 57.6608 276.813 50.8061C279.434 43.9513 282.458 36.29 283.466 33.8707C285.684 28.2256 286.087 27.6207 287.7 27.0159C288.506 26.8143 289.111 26.2094 289.111 25.8062C289.111 25.2014 288.103 24.9998 283.063 24.9998C277.417 24.9998 277.014 24.9998 277.014 26.0078C277.014 26.8143 277.417 27.0159 278.224 27.0159C280.24 27.0159 281.046 27.6207 281.046 28.8304C281.046 29.8384 271.369 55.8463 270.764 56.4512C270.361 56.8544 261.692 32.661 261.49 30.2417C261.087 28.0239 262.095 27.0159 264.313 27.0159C265.119 27.0159 265.522 26.8143 265.522 26.0078C265.522 24.9998 265.119 24.9998 257.66 24.9998C250.2 24.9998 249.797 24.9998 249.797 26.0078C249.797 26.6127 250.2 27.0159 250.603 27.0159C252.216 27.0159 254.232 28.6288 254.837 30.0401C255.643 32.2578 255.039 34.4755 250.402 46.5722L246.571 56.8544L245.764 54.8383C245.361 53.8302 242.942 47.3787 240.523 40.7255C235.684 27.6207 235.684 27.0159 238.91 27.0159C240.119 27.0159 240.321 26.8143 240.321 26.0078C240.321 24.9998 239.918 24.9998 232.861 24.9998C225.2 24.5965 224.998 24.5965 225.402 25.6046ZM327.417 26.0078C327.417 26.0078 327.417 26.6127 327.417 26.8143C327.417 27.0159 328.022 27.0159 328.022 27.0159C328.425 27.0159 328.627 27.2175 329.03 27.2175C330.643 27.6207 331.651 27.8223 332.054 28.8304C332.256 29.4352 332.457 31.8546 332.457 44.5561C332.457 57.8625 332.457 59.4754 332.054 60.2818C331.651 61.2899 330.845 61.8947 328.828 62.4995C328.828 62.4995 328.022 62.7011 327.82 62.9028C327.619 63.1044 327.619 63.5076 327.619 63.5076C327.619 63.5076 327.619 63.9108 327.82 64.1124C328.022 64.314 328.627 64.314 328.627 64.314H333.667H342.135C342.135 64.314 342.538 64.314 342.74 64.1124C342.941 63.9108 342.941 63.5076 342.941 63.5076C342.941 63.5076 342.941 63.1044 342.74 62.9028C342.538 62.7011 341.732 62.4995 341.732 62.4995C339.917 62.0963 338.909 61.4915 338.506 60.4834C338.103 59.677 338.103 57.8625 338.103 53.6286V47.5803C338.304 47.7819 338.506 47.7819 338.707 47.9835C339.715 48.5883 340.925 49.5964 345.361 49.5964C350.804 49.798 354.03 47.3787 356.046 44.5561C358.062 41.7335 358.667 37.2981 357.256 32.4594C355.844 27.8223 351.611 24.7982 345.764 24.5965C342.74 24.3949 338.103 24.5965 335.683 24.7982H335.078C332.861 24.7982 330.038 25.2014 328.627 25.2014C328.224 25.2014 328.224 25.2014 328.022 25.403C327.417 25.8062 327.417 26.0078 327.417 26.0078ZM349.796 44.5561C352.014 42.54 352.014 39.3142 352.014 37.0965C351.812 33.8707 350.401 27.6207 343.143 27.6207C341.328 27.6207 337.901 27.8223 337.699 30.2417C337.498 30.6449 337.498 33.6691 337.498 38.1045V45.3625L338.304 45.7658C338.707 45.9674 339.312 46.169 340.119 46.3706C343.143 47.177 347.578 46.5722 349.796 44.5561ZM303.425 25.2014C304.03 24.9998 304.433 24.7982 304.433 24.7982C304.433 24.7982 305.24 24.3949 305.442 24.7982C305.442 24.9998 305.845 25.6046 306.651 27.6207C306.853 28.0239 307.054 28.4272 307.054 28.8304C308.062 31.653 309.675 35.6852 310.482 37.9029C311.288 40.1206 312.901 44.1529 314.111 47.3787C315.32 50.4028 316.732 54.2335 317.538 56.048C318.143 57.8625 319.151 59.4754 319.353 59.8786C319.554 60.0802 319.554 60.2818 319.756 60.4834C320.361 61.2899 320.966 62.4995 322.377 62.7011C322.377 62.7011 323.385 62.9028 323.587 63.1044C323.788 63.306 323.788 63.5076 323.788 63.5076V64.1124C323.788 64.1124 323.788 64.314 323.587 64.314C323.587 64.5157 323.183 64.314 323.183 64.314H314.716H308.667C308.667 64.314 308.466 64.314 308.264 64.314C308.062 64.314 308.062 63.9108 308.062 63.9108V63.5076C308.062 63.5076 308.062 63.1044 308.264 62.9028C308.466 62.7011 309.474 62.4995 309.474 62.4995C311.288 62.2979 312.095 60.8866 312.296 60.0802V59.8786C312.7 59.0721 312.498 58.4673 310.683 54.2335C309.474 51.4109 309.071 50.6044 308.869 50.4028C308.667 50.4028 305.442 50.4028 302.014 50.4028H295.361L294.958 51.4109C293.748 54.6367 292.74 57.6609 292.74 58.4673C292.337 60.0802 292.942 62.0963 295.361 62.4995C295.361 62.4995 296.369 62.7011 296.571 62.9028C296.772 63.1044 296.974 63.5076 296.974 63.5076V63.9108C296.974 63.9108 296.974 64.1124 296.772 64.314C296.571 64.5157 296.167 64.314 296.167 64.314H289.917H283.869C283.869 64.314 283.667 64.314 283.466 64.1124C283.264 63.9108 283.264 63.7092 283.264 63.7092V63.306C283.264 63.306 283.264 63.1044 283.667 62.7011C284.071 62.2979 284.877 62.2979 284.877 62.2979C286.49 62.0963 287.498 60.2818 288.103 59.2738C288.103 59.2738 288.103 59.0721 288.305 59.0721C288.506 58.6689 289.514 56.4512 290.522 54.0319C291.53 51.6125 292.538 48.7899 292.942 47.9835C294.151 44.9593 295.361 42.1368 297.175 37.7013C298.183 35.282 299.595 31.653 300.401 29.6368L301.812 26.0078L303.425 25.2014ZM303.022 33.8707C303.425 34.6771 303.829 35.8868 304.03 36.4916C304.232 37.0965 305.038 38.911 305.643 40.5239C306.248 42.1368 307.054 43.9513 307.458 44.7577C307.861 45.5642 308.062 46.169 308.062 46.169C308.062 46.169 305.643 46.169 302.619 46.169C299.192 46.169 297.175 46.169 297.175 45.9674C297.175 45.9674 297.377 45.5642 297.377 45.1609C297.579 44.5561 298.788 41.3303 301.208 34.4755C301.611 33.4675 302.014 32.4594 302.014 32.2578C302.216 32.2578 302.417 32.4594 303.022 33.8707Z" fill="url(#paint10_linear_534_687)"/>
<defs>
<linearGradient id="paint0_linear_534_687" x1="28.3406" y1="36.6606" x2="29.2534" y2="38.8194" gradientUnits="userSpaceOnUse">
<stop stop-color="#EFF7FC"/>
<stop offset="1" stop-color="white"/>
</linearGradient>
<linearGradient id="paint1_linear_534_687" x1="55.8423" y1="40.5354" x2="59.8646" y2="48.9417" gradientUnits="userSpaceOnUse">
<stop stop-color="#EFF7FC"/>
<stop offset="1" stop-color="white"/>
</linearGradient>
<linearGradient id="paint2_linear_534_687" x1="54.0941" y1="25.1757" x2="54.1713" y2="25.3231" gradientUnits="userSpaceOnUse">
<stop stop-color="#EFF7FC"/>
<stop offset="1" stop-color="white"/>
</linearGradient>
<linearGradient id="paint3_linear_534_687" x1="46.7728" y1="23.4968" x2="49.5053" y2="32.7751" gradientUnits="userSpaceOnUse">
<stop stop-color="#EFF7FC"/>
<stop offset="1" stop-color="white"/>
</linearGradient>
<linearGradient id="paint4_linear_534_687" x1="27.4906" y1="21.3862" x2="30.4206" y2="25.1277" gradientUnits="userSpaceOnUse">
<stop stop-color="#EFF7FC"/>
<stop offset="1" stop-color="white"/>
</linearGradient>
<linearGradient id="paint5_linear_534_687" x1="56.8297" y1="55.1379" x2="62.7902" y2="61.299" gradientUnits="userSpaceOnUse">
<stop stop-color="#EFF7FC"/>
<stop offset="1" stop-color="white"/>
</linearGradient>
<linearGradient id="paint6_linear_534_687" x1="40.277" y1="48.0759" x2="42.6204" y2="53.8941" gradientUnits="userSpaceOnUse">
<stop stop-color="#EFF7FC"/>
<stop offset="1" stop-color="white"/>
</linearGradient>
<linearGradient id="paint7_linear_534_687" x1="38.821" y1="65.6227" x2="40.8083" y2="72.8324" gradientUnits="userSpaceOnUse">
<stop stop-color="#EFF7FC"/>
<stop offset="1" stop-color="white"/>
</linearGradient>
<linearGradient id="paint8_linear_534_687" x1="16.4924" y1="28.5393" x2="30.9863" y2="39.1264" gradientUnits="userSpaceOnUse">
<stop stop-color="#EFF7FC"/>
<stop offset="1" stop-color="white"/>
</linearGradient>
<linearGradient id="paint9_linear_534_687" x1="27.406" y1="68.7361" x2="27.7535" y2="69.3993" gradientUnits="userSpaceOnUse">
<stop stop-color="#EFF7FC"/>
<stop offset="1" stop-color="white"/>
</linearGradient>
<linearGradient id="paint10_linear_534_687" x1="260.888" y1="41.6926" x2="262.31" y2="60.6335" gradientUnits="userSpaceOnUse">
<stop stop-color="#EFF7FC"/>
<stop offset="1" stop-color="white"/>
</linearGradient>
</defs>
</svg>
