<svg width="60" height="61" viewBox="0 0 60 61" fill="none" xmlns="http://www.w3.org/2000/svg">
<path d="M19.025 6.36523H39.9775C43.6949 6.36523 46.4863 7.43769 48.35 9.33212C50.2156 11.2285 51.25 14.0484 51.25 17.7388V43.6677C51.25 47.4237 50.2141 50.2478 48.3512 52.1328C46.4897 54.0164 43.6995 55.0663 39.9775 55.0663H19.025C15.3671 55.0663 12.5735 54.0179 10.6939 52.1307C8.81396 50.2432 7.75 47.4181 7.75 43.6677V17.7388C7.75 14.0541 8.8124 11.2331 10.6951 9.3342C12.5769 7.43619 15.3717 6.36523 19.025 6.36523Z" fill="#242130" stroke="url(#paint0_linear_607_874)" stroke-width="1.5"/>
<path fill-rule="evenodd" clip-rule="evenodd" d="M19.698 17.2871V17.3122C18.6205 17.3122 17.748 18.1907 17.748 19.2701C17.748 20.3494 18.6205 21.2279 19.698 21.2279H27.1705C28.248 21.2279 29.123 20.3494 29.123 19.2424C29.123 18.1656 28.248 17.2871 27.1705 17.2871H19.698ZM39.298 32.5732H19.698C18.6205 32.5732 17.748 31.6947 17.748 30.6154C17.748 29.5361 18.6205 28.655 19.698 28.655H39.298C40.373 28.655 41.248 29.5361 41.248 30.6154C41.248 31.6947 40.373 32.5732 39.298 32.5732ZM39.2984 44.0443H19.6984C18.9484 44.1447 18.2234 43.7682 17.8234 43.1407C17.4234 42.4881 17.4234 41.6598 17.8234 41.0322C18.2234 40.3796 18.9484 40.0282 19.6984 40.1035H39.2984C40.2959 40.2039 41.0484 41.0573 41.0484 42.0865C41.0484 43.088 40.2959 43.9439 39.2984 44.0443Z" fill="#F85E11"/>
<defs>
<linearGradient id="paint0_linear_607_874" x1="29.5" y1="5.61523" x2="29.5" y2="55.8163" gradientUnits="userSpaceOnUse">
<stop stop-color="#F88311"/>
<stop offset="1" stop-color="#F83811"/>
</linearGradient>
</defs>
</svg>
