<svg width="60" height="61" viewBox="0 0 60 61" fill="none" xmlns="http://www.w3.org/2000/svg">
<path d="M40.1881 5.38721H48.653C52.1587 5.38721 54.9993 8.26335 54.9993 11.8128V20.3836C54.9993 23.9331 52.1587 26.8092 48.653 26.8092H40.1881C36.6824 26.8092 33.8418 23.9331 33.8418 20.3836V11.8128C33.8418 8.26335 36.6824 5.38721 40.1881 5.38721Z" fill="url(#paint0_linear_607_857)"/>
<mask id="path-2-inside-1_607_857" fill="white">
<path fill-rule="evenodd" clip-rule="evenodd" d="M11.3463 5.38721H19.8112C23.3169 5.38721 26.1575 8.26335 26.1575 11.8128V20.3836C26.1575 23.9331 23.3169 26.8092 19.8112 26.8092H11.3463C7.84064 26.8092 5 23.9331 5 20.3836V11.8128C5 8.26335 7.84064 5.38721 11.3463 5.38721ZM11.3463 34.1661H19.8112C23.3169 34.1661 26.1575 37.0423 26.1575 40.5918V49.1625C26.1575 52.7096 23.3169 55.5881 19.8112 55.5881H11.3463C7.84064 55.5881 5 52.7096 5 49.1625V40.5918C5 37.0423 7.84064 34.1661 11.3463 34.1661ZM48.6539 34.1661H40.189C36.6833 34.1661 33.8427 37.0423 33.8427 40.5918V49.1625C33.8427 52.7096 36.6833 55.5881 40.189 55.5881H48.6539C52.1595 55.5881 55.0002 52.7096 55.0002 49.1625V40.5918C55.0002 37.0423 52.1595 34.1661 48.6539 34.1661Z"/>
</mask>
<path fill-rule="evenodd" clip-rule="evenodd" d="M11.3463 5.38721H19.8112C23.3169 5.38721 26.1575 8.26335 26.1575 11.8128V20.3836C26.1575 23.9331 23.3169 26.8092 19.8112 26.8092H11.3463C7.84064 26.8092 5 23.9331 5 20.3836V11.8128C5 8.26335 7.84064 5.38721 11.3463 5.38721ZM11.3463 34.1661H19.8112C23.3169 34.1661 26.1575 37.0423 26.1575 40.5918V49.1625C26.1575 52.7096 23.3169 55.5881 19.8112 55.5881H11.3463C7.84064 55.5881 5 52.7096 5 49.1625V40.5918C5 37.0423 7.84064 34.1661 11.3463 34.1661ZM48.6539 34.1661H40.189C36.6833 34.1661 33.8427 37.0423 33.8427 40.5918V49.1625C33.8427 52.7096 36.6833 55.5881 40.189 55.5881H48.6539C52.1595 55.5881 55.0002 52.7096 55.0002 49.1625V40.5918C55.0002 37.0423 52.1595 34.1661 48.6539 34.1661Z" fill="#242130"/>
<path d="M19.8112 3.88721H11.3463V6.88721H19.8112V3.88721ZM27.6575 11.8128C27.6575 7.45255 24.1628 3.88721 19.8112 3.88721V6.88721C22.471 6.88721 24.6575 9.07416 24.6575 11.8128H27.6575ZM27.6575 20.3836V11.8128H24.6575V20.3836H27.6575ZM19.8112 28.3092C24.1628 28.3092 27.6575 24.7439 27.6575 20.3836H24.6575C24.6575 23.1222 22.471 25.3092 19.8112 25.3092V28.3092ZM11.3463 28.3092H19.8112V25.3092H11.3463V28.3092ZM3.5 20.3836C3.5 24.7439 6.9947 28.3092 11.3463 28.3092V25.3092C8.68658 25.3092 6.5 23.1222 6.5 20.3836H3.5ZM3.5 11.8128V20.3836H6.5V11.8128H3.5ZM11.3463 3.88721C6.9947 3.88721 3.5 7.45255 3.5 11.8128H6.5C6.5 9.07416 8.68658 6.88721 11.3463 6.88721V3.88721ZM19.8112 32.6661H11.3463V35.6661H19.8112V32.6661ZM27.6575 40.5918C27.6575 36.2315 24.1628 32.6661 19.8112 32.6661V35.6661C22.471 35.6661 24.6575 37.8531 24.6575 40.5918H27.6575ZM27.6575 49.1625V40.5918H24.6575V49.1625H27.6575ZM19.8112 57.0881C24.1632 57.0881 27.6575 53.52 27.6575 49.1625H24.6575C24.6575 51.8991 22.4706 54.0881 19.8112 54.0881V57.0881ZM11.3463 57.0881H19.8112V54.0881H11.3463V57.0881ZM3.5 49.1625C3.5 53.52 6.99434 57.0881 11.3463 57.0881V54.0881C8.68694 54.0881 6.5 51.8991 6.5 49.1625H3.5ZM3.5 40.5918V49.1625H6.5V40.5918H3.5ZM11.3463 32.6661C6.9947 32.6661 3.5 36.2315 3.5 40.5918H6.5C6.5 37.8531 8.68658 35.6661 11.3463 35.6661V32.6661ZM40.189 35.6661H48.6539V32.6661H40.189V35.6661ZM35.3427 40.5918C35.3427 37.8531 37.5292 35.6661 40.189 35.6661V32.6661C35.8374 32.6661 32.3427 36.2315 32.3427 40.5918H35.3427ZM35.3427 49.1625V40.5918H32.3427V49.1625H35.3427ZM40.189 54.0881C37.5296 54.0881 35.3427 51.8991 35.3427 49.1625H32.3427C32.3427 53.52 35.837 57.0881 40.189 57.0881V54.0881ZM48.6539 54.0881H40.189V57.0881H48.6539V54.0881ZM53.5002 49.1625C53.5002 51.8991 51.3132 54.0881 48.6539 54.0881V57.0881C53.0058 57.0881 56.5002 53.52 56.5002 49.1625H53.5002ZM53.5002 40.5918V49.1625H56.5002V40.5918H53.5002ZM48.6539 35.6661C51.3136 35.6661 53.5002 37.8531 53.5002 40.5918H56.5002C56.5002 36.2315 53.0055 32.6661 48.6539 32.6661V35.6661Z" fill="url(#paint1_linear_607_857)" mask="url(#path-2-inside-1_607_857)"/>
<defs>
<linearGradient id="paint0_linear_607_857" x1="44.4206" y1="5.38721" x2="44.4206" y2="26.8092" gradientUnits="userSpaceOnUse">
<stop stop-color="#F88311"/>
<stop offset="1" stop-color="#F83811"/>
</linearGradient>
<linearGradient id="paint1_linear_607_857" x1="30.0001" y1="5.38721" x2="30.0001" y2="55.5882" gradientUnits="userSpaceOnUse">
<stop stop-color="#F88311"/>
<stop offset="1" stop-color="#F83811"/>
</linearGradient>
</defs>
</svg>
