<svg width="75" height="73" viewBox="0 0 75 73" fill="none" xmlns="http://www.w3.org/2000/svg">
<path d="M45.3761 59.3747C61.7371 59.3747 75.0003 46.0832 75.0003 29.6873C75.0003 13.2915 61.7371 0 45.3761 0C29.0152 0 15.752 13.2915 15.752 29.6873C15.752 46.0832 29.0152 59.3747 45.3761 59.3747Z" fill="#686770"/>
<path fill-rule="evenodd" clip-rule="evenodd" d="M1.09032 18.2124H11.0448C11.3335 18.2132 11.6102 18.3285 11.8144 18.5331C12.0185 18.7377 12.1336 19.0149 12.1344 19.3043V29.2777C12.1348 29.3293 12.1312 29.3809 12.1236 29.4319L17.1913 34.5104C17.2545 34.5709 17.3051 34.6435 17.34 34.7239C17.3748 34.8043 17.3933 34.8908 17.3943 34.9785C17.3954 35.0661 17.3789 35.1531 17.3459 35.2343C17.3129 35.3155 17.264 35.3892 17.2022 35.4512C17.1403 35.5132 17.0667 35.5622 16.9857 35.5952C16.9047 35.6283 16.8179 35.6448 16.7304 35.6438C16.643 35.6428 16.5566 35.6243 16.4764 35.5893C16.3961 35.5544 16.3237 35.5037 16.2633 35.4403L11.1956 30.3572C11.1446 30.3644 11.0932 30.368 11.0417 30.368H1.09032C0.801872 30.3672 0.525442 30.2521 0.321331 30.0479C0.117219 29.8436 0.00198708 29.5667 0.000769404 29.2777V19.3043C0.00158156 19.0149 0.116634 18.7377 0.32079 18.5331C0.524945 18.3285 0.801606 18.2132 1.09032 18.2124ZM55.1064 48.8914V42.1057C55.106 41.9089 55.0278 41.7202 54.8889 41.5811C54.75 41.4419 54.5618 41.3635 54.3654 41.3631H47.5942C47.3978 41.3635 47.2095 41.4419 47.0706 41.5811C46.9318 41.7202 46.8536 41.9089 46.8532 42.1057V44.8416H43.2721C43.1841 44.8385 43.0963 44.8533 43.0141 44.885C42.9319 44.9166 42.8569 44.9646 42.7935 45.0259C42.7302 45.0873 42.6798 45.1608 42.6454 45.242C42.611 45.3233 42.5933 45.4106 42.5933 45.4989C42.5933 45.5872 42.611 45.6746 42.6454 45.7558C42.6798 45.8371 42.7302 45.9106 42.7935 45.9719C42.8569 46.0333 42.9319 46.0812 43.0141 46.1129C43.0963 46.1445 43.1841 46.1593 43.2721 46.1563H46.8485V48.8921C46.849 49.089 46.9272 49.2776 47.066 49.4168C47.2049 49.5559 47.3931 49.6343 47.5895 49.6347H54.3608C54.5572 49.6343 54.7454 49.5559 54.8843 49.4168C55.0232 49.2776 55.1014 49.089 55.1018 48.8921L55.1064 48.8914ZM54.0138 72.999H44.0585C43.7698 72.9982 43.4931 72.8829 43.289 72.6783C43.0848 72.4737 42.9697 72.1965 42.9689 71.9072V61.933C42.9685 61.8814 42.9721 61.8298 42.9797 61.7788L37.9113 56.7034C37.848 56.6428 37.7974 56.5703 37.7626 56.4899C37.7277 56.4095 37.7092 56.3229 37.7082 56.2352C37.7072 56.1476 37.7237 56.0606 37.7567 55.9794C37.7897 55.8983 37.8385 55.8245 37.9004 55.7625C37.9622 55.7005 38.0358 55.6516 38.1168 55.6185C38.1978 55.5854 38.2846 55.5689 38.3721 55.5699C38.4596 55.5709 38.546 55.5895 38.6262 55.6244C38.7064 55.6594 38.7788 55.71 38.8392 55.7734L43.9069 60.8519C43.9579 60.8448 44.0093 60.8412 44.0608 60.8411H54.0138C54.3025 60.8419 54.5791 60.9572 54.7833 61.1618C54.9874 61.3664 55.1025 61.6436 55.1033 61.933V71.9087C55.1021 72.1978 54.9869 72.4746 54.7827 72.6789C54.5786 72.8831 54.3022 72.9982 54.0138 72.999ZM24.2726 72.999H31.0438C31.2402 72.9986 31.4285 72.9203 31.5674 72.7811C31.7062 72.6419 31.7844 72.4533 31.7848 72.2565V65.4708C31.7844 65.274 31.7062 65.0853 31.5674 64.9462C31.4285 64.807 31.2402 64.7286 31.0438 64.7282H28.3146V61.1441C28.3176 61.0559 28.3029 60.968 28.2712 60.8856C28.2396 60.8032 28.1918 60.728 28.1306 60.6646C28.0694 60.6011 27.9961 60.5506 27.915 60.5161C27.8339 60.4816 27.7467 60.4639 27.6586 60.4639C27.5705 60.4639 27.4833 60.4816 27.4023 60.5161C27.3212 60.5506 27.2478 60.6011 27.1866 60.6646C27.1254 60.728 27.0776 60.8032 27.046 60.8856C27.0144 60.968 26.9996 61.0559 27.0026 61.1441V64.7282H24.2718C24.0754 64.7286 23.8872 64.807 23.7483 64.9462C23.6095 65.0853 23.5312 65.274 23.5308 65.4708V72.2565C23.5312 72.4533 23.6095 72.6419 23.7483 72.7811C23.8872 72.9203 24.0754 72.9986 24.2718 72.999H24.2726ZM1.08955 72.999H11.0441C11.3326 72.9984 11.6093 72.8834 11.8135 72.6791C12.0178 72.4749 12.1332 72.1979 12.1344 71.9087V61.933C12.1348 61.8814 12.1312 61.8298 12.1236 61.7788L17.1913 56.7003C17.2545 56.6398 17.3051 56.5672 17.34 56.4868C17.3748 56.4064 17.3933 56.3198 17.3943 56.2322C17.3954 56.1445 17.3789 56.0575 17.3459 55.9764C17.3129 55.8952 17.264 55.8214 17.2022 55.7594C17.1403 55.6975 17.0667 55.6485 16.9857 55.6154C16.9047 55.5823 16.8179 55.5658 16.7304 55.5668C16.643 55.5679 16.5566 55.5864 16.4764 55.6213C16.3961 55.6563 16.3237 55.7069 16.2633 55.7704L11.1956 60.8488C11.1446 60.8417 11.0932 60.8381 11.0417 60.838H1.08955C0.800304 60.8388 0.523179 60.9546 0.318936 61.1598C0.114693 61.3651 -1.14759e-06 61.6431 0 61.933V71.9087C0.00121768 72.1978 0.11645 72.4746 0.320561 72.6789C0.524673 72.8831 0.801102 72.9982 1.08955 72.999ZM54.0138 18.2124H44.0585C43.7698 18.2132 43.4931 18.3285 43.289 18.5331C43.0848 18.7377 42.9697 19.0149 42.9689 19.3043V29.2777C42.9685 29.3293 42.9721 29.3809 42.9797 29.4319L37.9113 34.5096C37.848 34.5701 37.7974 34.6427 37.7626 34.7231C37.7277 34.8035 37.7092 34.8901 37.7082 34.9777C37.7072 35.0654 37.7237 35.1523 37.7567 35.2335C37.7897 35.3147 37.8385 35.3885 37.9004 35.4504C37.9622 35.5124 38.0358 35.5614 38.1168 35.5945C38.1978 35.6276 38.2846 35.6441 38.3721 35.6431C38.4596 35.642 38.546 35.6235 38.6262 35.5886C38.7064 35.5536 38.7788 35.5029 38.8392 35.4395L43.9084 30.3572C43.9594 30.3644 44.0109 30.368 44.0623 30.368H54.0138C54.3021 30.367 54.5783 30.2518 54.7823 30.0476C54.9862 29.8434 55.1013 29.5666 55.1025 29.2777V19.3043C55.1017 19.0151 54.9868 18.7379 54.7828 18.5334C54.5788 18.3288 54.3023 18.2134 54.0138 18.2124ZM0.216218 48.8914V42.1057C0.216625 41.9089 0.294824 41.7202 0.433698 41.5811C0.572572 41.4419 0.76081 41.3635 0.957208 41.3631H7.72845C7.92485 41.3635 8.11309 41.4419 8.25196 41.5811C8.39084 41.7202 8.46904 41.9089 8.46944 42.1057V44.8416H12.0459C12.1339 44.8385 12.2217 44.8533 12.3039 44.885C12.3861 44.9166 12.4611 44.9646 12.5245 45.0259C12.5878 45.0873 12.6382 45.1608 12.6726 45.242C12.707 45.3233 12.7247 45.4106 12.7247 45.4989C12.7247 45.5872 12.707 45.6746 12.6726 45.7558C12.6382 45.8371 12.5878 45.9106 12.5245 45.9719C12.4611 46.0333 12.3861 46.0812 12.3039 46.1129C12.2217 46.1445 12.1339 46.1593 12.0459 46.1563H8.47021V48.8921C8.4698 49.089 8.39161 49.2776 8.25273 49.4168C8.11386 49.5559 7.92562 49.6343 7.72922 49.6347H0.957977C0.76158 49.6343 0.573342 49.5559 0.434468 49.4168C0.295593 49.2776 0.217394 49.089 0.216988 48.8921L0.216218 48.8914ZM24.2734 18.2124H31.0446C31.241 18.2128 31.4293 18.2912 31.5681 18.4303C31.707 18.5695 31.7852 18.7582 31.7856 18.955V25.7406C31.7852 25.9375 31.707 26.1261 31.5681 26.2653C31.4293 26.4044 31.241 26.4828 31.0446 26.4832H28.3153V30.0673C28.3184 30.1555 28.3036 30.2434 28.272 30.3258C28.2404 30.4082 28.1926 30.4834 28.1314 30.5469C28.0702 30.6103 27.9968 30.6608 27.9157 30.6953C27.8346 30.7298 27.7475 30.7476 27.6594 30.7476C27.5713 30.7476 27.4841 30.7298 27.403 30.6953C27.3219 30.6608 27.2486 30.6103 27.1874 30.5469C27.1262 30.4834 27.0783 30.4082 27.0467 30.3258C27.0151 30.2434 27.0004 30.1555 27.0034 30.0673V26.484H24.2726C24.0762 26.4836 23.888 26.4052 23.7491 26.266C23.6102 26.1269 23.532 25.9382 23.5316 25.7414V18.9557C23.532 18.7589 23.6102 18.5703 23.7491 18.4311C23.888 18.2919 24.0762 18.2136 24.2726 18.2132L24.2734 18.2124Z" fill="url(#paint0_linear_598_690)"/>
<path fill-rule="evenodd" clip-rule="evenodd" d="M28.5563 32.9451L38.0592 38.4438C38.1273 38.4833 38.1931 38.5268 38.2561 38.5741L27.6591 44.7051L17.0621 38.5741C17.1254 38.5271 17.1911 38.4836 17.2591 38.4438L26.7619 32.9451C27.0333 32.7832 27.3433 32.6978 27.6591 32.6978C27.975 32.6978 28.2849 32.7832 28.5563 32.9451ZM38.944 39.7647C38.9536 39.8429 38.9585 39.9217 38.9586 40.0006V50.9973C38.963 51.3136 38.882 51.6253 38.7242 51.8993C38.5664 52.1733 38.3377 52.3996 38.0622 52.5541L28.5594 58.0528C28.4915 58.0925 28.421 58.1278 28.3486 58.1585V45.898L38.9456 39.767L38.944 39.7647ZM26.9735 58.1569C26.9013 58.1258 26.8309 58.0905 26.7627 58.0513L17.2599 52.5526C16.9843 52.3981 16.7555 52.1719 16.5977 51.8979C16.4399 51.6238 16.359 51.3121 16.3635 50.9957V39.9998C16.3636 39.921 16.3685 39.8422 16.3781 39.7639L26.9751 45.8941V58.1546L26.9735 58.1569Z" fill="url(#paint1_linear_598_690)"/>
<defs>
<linearGradient id="paint0_linear_598_690" x1="27.5532" y1="18.2124" x2="27.5532" y2="72.999" gradientUnits="userSpaceOnUse">
<stop stop-color="#F88311"/>
<stop offset="1" stop-color="#F83811"/>
</linearGradient>
<linearGradient id="paint1_linear_598_690" x1="27.661" y1="32.6978" x2="27.661" y2="58.1585" gradientUnits="userSpaceOnUse">
<stop stop-color="#F88311"/>
<stop offset="1" stop-color="#F83811"/>
</linearGradient>
</defs>
</svg>
