<svg width="83" height="73" viewBox="0 0 83 73" fill="none" xmlns="http://www.w3.org/2000/svg">
<g clip-path="url(#clip0_598_701)">
<path d="M52.592 60.5607C69.3861 60.5607 83.0005 47.0037 83.0005 30.2803C83.0005 13.557 69.3861 0 52.592 0C35.7979 0 22.1836 13.557 22.1836 30.2803C22.1836 47.0037 35.7979 60.5607 52.592 60.5607Z" fill="#686770"/>
<path fill-rule="evenodd" clip-rule="evenodd" d="M30.3239 72.9998C30.3239 72.9998 25.9917 72.9998 25.9917 68.6858C25.9917 64.3719 30.3239 51.4307 47.6512 51.4307C64.9785 51.4307 69.3107 64.3719 69.3107 68.6858C69.3107 72.9998 64.9785 72.9998 64.9785 72.9998H30.3239ZM47.652 47.1176C50.2223 47.1176 52.7349 46.3586 54.8721 44.9366C57.0092 43.5146 58.675 41.4935 59.6586 39.1288C60.6422 36.7641 60.8996 34.1621 60.3981 31.6518C59.8967 29.1414 58.6589 26.8356 56.8414 25.0257C55.0239 23.2159 52.7083 21.9834 50.1873 21.484C47.6664 20.9847 45.0534 21.241 42.6787 22.2204C40.304 23.1999 38.2743 24.8586 36.8463 26.9868C35.4183 29.1149 34.6561 31.617 34.6561 34.1765C34.657 37.6084 36.0264 40.8995 38.4635 43.3263C40.9005 45.753 44.2055 47.1167 47.652 47.1176ZM22.5939 72.9998C21.9479 71.6544 21.6279 70.1768 21.6595 68.6858C21.6595 62.835 24.6103 56.823 30.053 52.6412C27.3348 51.8079 24.5034 51.3985 21.6595 51.4276C4.33221 51.4315 0 64.3726 0 68.6866C0 73.0006 4.33221 73.0006 4.33221 73.0006L22.5939 72.9998ZM19.4938 47.1176C21.6359 47.1176 23.7299 46.485 25.511 45.2998C27.2921 44.1147 28.6802 42.4302 29.4998 40.4594C30.3194 38.4886 30.5337 36.32 30.1156 34.2279C29.6974 32.1359 28.6657 30.2143 27.1507 28.7061C25.6358 27.198 23.7057 26.1711 21.6047 25.7554C19.5036 25.3396 17.326 25.5536 15.3471 26.3704C13.3682 27.1871 11.677 28.5699 10.4873 30.3438C9.29766 32.1177 8.66301 34.2031 8.66364 36.3362C8.66364 37.7523 8.94379 39.1545 9.48809 40.4628C10.0324 41.771 10.8302 42.9597 11.8359 43.9609C12.8416 44.9621 14.0355 45.7562 15.3495 46.2978C16.6635 46.8394 18.0717 47.118 19.4938 47.1176Z" fill="url(#paint0_linear_598_701)"/>
</g>
<defs>
<linearGradient id="paint0_linear_598_701" x1="34.6553" y1="21.2354" x2="34.6553" y2="73.0006" gradientUnits="userSpaceOnUse">
<stop stop-color="#F88311"/>
<stop offset="1" stop-color="#F83811"/>
</linearGradient>
<clipPath id="clip0_598_701">
<rect width="83" height="73" fill="white"/>
</clipPath>
</defs>
</svg>
