<svg width="74" height="73" viewBox="0 0 74 73" fill="none" xmlns="http://www.w3.org/2000/svg">
<path d="M44.7722 59.0255C60.915 59.0255 74.0014 45.8122 74.0014 29.5128C74.0014 13.2133 60.915 0 44.7722 0C28.6293 0 15.543 13.2133 15.543 29.5128C15.543 45.8122 28.6293 59.0255 44.7722 59.0255Z" fill="#686770"/>
<path fill-rule="evenodd" clip-rule="evenodd" d="M0 63.2437C0 64.3652 0.7592 64.8603 1.90711 64.8534L12.5298 64.8496C12.4175 64.3621 12.0113 63.4346 11.8147 62.3553C11.6079 61.3771 11.4918 60.3816 11.4677 59.3817V47.9093C11.5119 47.148 11.735 46.4084 12.1187 45.7516C12.5024 45.0948 13.0355 44.5397 13.674 44.1324C14.5227 43.5958 18.8927 42.2015 20.2501 41.6588C20.6297 41.5054 21.0093 41.3928 21.3571 41.2755C21.7936 41.1298 22.1239 40.9788 22.5232 40.8447C28.7684 38.745 26.3511 39.0348 33.9666 41.5951L39.5141 43.6066C39.9044 43.7185 40.2785 43.8813 40.6271 44.091C41.2815 44.4965 41.8296 45.0551 42.2251 45.7195C42.6206 46.384 42.8519 47.1348 42.8994 47.9085V59.381C42.8375 61.0241 42.5566 62.6513 42.0642 64.2187C41.9743 64.4233 41.8982 64.6339 41.8365 64.8489H52.3514C53.576 64.8573 54.3663 64.4326 54.3663 63.2391V30.8594H0V63.2391V63.2437Z" fill="url(#paint0_linear_598_676)"/>
<path fill-rule="evenodd" clip-rule="evenodd" d="M26.9687 61.9573C25.9605 61.9573 25.2226 60.8886 24.6593 60.3221C24.121 59.7787 22.169 58.3107 23.4445 56.8964C23.7519 56.6277 24.1268 56.4498 24.5278 56.3821C25.6325 56.3821 26.2596 57.6171 26.9702 58.0977L30.023 55.0681C31.6515 53.3962 33.0233 54.9318 33.0233 55.8463C33.0233 56.6834 32.3272 57.2459 31.8845 57.6959L28.8583 60.7522C28.3466 61.2689 27.9428 61.958 26.9733 61.958L26.9687 61.9573ZM14.5444 48.3408V58.5261C14.5196 61.7498 15.5542 64.8909 17.4863 67.4574C18.1961 68.411 19.0275 69.2656 19.959 69.9993C21.816 71.4627 24.8133 73.0004 27.1805 73.0004C29.1544 73.0004 31.9103 71.7533 33.3611 70.7713C35.3589 69.4314 36.9949 67.6105 38.1215 65.4727C39.2481 63.3349 39.8299 60.9476 39.8144 58.5261V48.3408C39.8144 46.8253 38.586 46.5838 37.4608 46.2105C36.322 45.8318 35.2371 45.3903 34.0892 45.0047C32.9853 44.6337 31.8876 44.199 30.7177 43.7989C26.1503 42.232 28.1364 42.3072 23.711 43.7714L16.9686 46.1837C15.8191 46.567 14.5391 46.8138 14.5391 48.3408H14.5444Z" fill="url(#paint1_linear_598_676)"/>
<path fill-rule="evenodd" clip-rule="evenodd" d="M47.8911 23.0375C47.8879 22.6171 48.0409 22.2107 48.3199 21.8985C48.5988 21.5863 48.9835 21.391 49.3981 21.3511C49.8063 21.3408 50.2025 21.4914 50.5025 21.7711C50.8025 22.0508 50.9828 22.4375 51.0051 22.8492C51.0274 23.2609 50.89 23.6652 50.622 23.9762C50.3541 24.2873 49.9766 24.4808 49.5697 24.5155C49.3631 24.5264 49.1564 24.4946 48.9624 24.4219C48.7684 24.3493 48.5911 24.2374 48.4415 24.0931C48.1526 23.8097 47.9599 23.4413 47.8911 23.0406V23.0375ZM41.5199 23.0375C41.5165 22.617 41.6694 22.2105 41.9484 21.8983C42.2275 21.586 42.6123 21.3908 43.0269 21.3511C43.4405 21.3359 43.8439 21.4833 44.1522 21.7622C44.4604 22.0411 44.6495 22.4299 44.6797 22.8467C44.6939 23.2638 44.5476 23.6703 44.2715 23.9809C43.9953 24.2914 43.6108 24.4819 43.1985 24.5124C42.7872 24.521 42.3876 24.3748 42.0773 24.1021C41.767 23.8295 41.5683 23.45 41.5199 23.0375ZM35.1487 23.0375C35.1455 22.6171 35.2985 22.2107 35.5774 21.8985C35.8564 21.5863 36.2411 21.391 36.6557 21.3511C37.0693 21.3359 37.4727 21.4833 37.7809 21.7622C38.0892 22.0411 38.2783 22.4299 38.3085 22.8467C38.3197 23.2614 38.1709 23.6643 37.8934 23.9703C37.616 24.2763 37.2316 24.4614 36.8215 24.4866C36.4114 24.5117 36.0076 24.375 35.6955 24.1052C35.3833 23.8354 35.1873 23.4537 35.1487 23.0406V23.0375ZM0 19.4991V27.7565H54.3686V19.4991C54.3311 19.1423 54.1736 18.8093 53.9222 18.5557C53.6709 18.302 53.341 18.1431 52.9876 18.1055H1.38099C1.02761 18.1431 0.69771 18.302 0.446376 18.5557C0.195043 18.8093 0.037482 19.1423 0 19.4991H0Z" fill="url(#paint2_linear_598_676)"/>
<defs>
<linearGradient id="paint0_linear_598_676" x1="27.1832" y1="30.8594" x2="27.1832" y2="64.8535" gradientUnits="userSpaceOnUse">
<stop stop-color="#F88311"/>
<stop offset="1" stop-color="#F83811"/>
</linearGradient>
<linearGradient id="paint1_linear_598_676" x1="27.1769" y1="42.6484" x2="27.1769" y2="73.0004" gradientUnits="userSpaceOnUse">
<stop stop-color="#F88311"/>
<stop offset="1" stop-color="#F83811"/>
</linearGradient>
<linearGradient id="paint2_linear_598_676" x1="27.1843" y1="18.1055" x2="27.1843" y2="27.7565" gradientUnits="userSpaceOnUse">
<stop stop-color="#F88311"/>
<stop offset="1" stop-color="#F83811"/>
</linearGradient>
</defs>
</svg>
